<svg width="800" height="800" viewBox="0 0 800 800" fill="none" xmlns="http://www.w3.org/2000/svg">
<g clip-path="url(#clip0_406_4)">
<path d="M640.112 186.655L472.079 165.464L400.001 12.2046L327.923 165.464L159.889 186.655L283.376 302.566L251.604 468.923L400.001 387.299L548.396 468.923L516.626 302.566L640.112 186.655Z" fill="#FE721A"/>
<path d="M691.994 554.504L677.826 435.599L595.278 522.342L477.817 499.07L534.803 604.385L476.373 708.908L594.142 687.253L675.494 775.123L691.29 656.425L800 606.209L691.994 554.504Z" fill="#FE721A"/>
<path d="M265.199 604.385L322.185 499.07L204.724 522.342L122.172 435.598L108.008 554.504L0 606.209L108.71 656.425L124.506 775.123L205.858 687.253L323.629 708.908L265.199 604.385Z" fill="#FE721A"/>
</g>
<defs>
<clipPath id="clip0_406_4">
<rect width="800" height="800" fill="white"/>
</clipPath>
</defs>
</svg>
