<svg width="393" height="936" viewBox="0 0 393 936" fill="none" xmlns="http://www.w3.org/2000/svg">
<path d="M187.682 891.687C186.498 889.149 185.952 886.653 186.043 884.198C186.158 881.731 186.917 879.509 188.319 877.531C189.71 875.529 191.698 873.925 194.284 872.719C196.508 871.683 198.687 871.181 200.821 871.216C202.969 871.215 204.941 871.722 206.739 872.738C208.561 873.742 210.126 875.174 211.435 877.035L202.952 880.991C202.171 880.326 201.311 879.932 200.372 879.811C199.445 879.655 198.523 879.79 197.605 880.219C196.251 880.85 195.412 881.859 195.088 883.246C194.788 884.622 195.038 886.167 195.838 887.883C196.639 889.599 197.662 890.784 198.909 891.439C200.18 892.082 201.492 892.088 202.845 891.457C203.764 891.029 204.466 890.422 204.953 889.636C205.452 888.814 205.698 887.89 205.691 886.864L214.174 882.908C214.758 885.107 214.849 887.228 214.447 889.269C214.07 891.298 213.196 893.148 211.826 894.816C210.469 896.449 208.679 897.784 206.456 898.821C203.87 900.027 201.368 900.531 198.952 900.334C196.524 900.113 194.329 899.253 192.365 897.756C190.426 896.248 188.865 894.225 187.682 891.687ZM234.329 885.912C231.912 887.039 229.424 887.508 226.864 887.319C224.328 887.118 222 886.291 219.881 884.837C217.761 883.383 216.115 881.4 214.943 878.886C213.771 876.373 213.31 873.837 213.558 871.279C213.807 868.721 214.675 866.418 216.163 864.371C217.663 862.288 219.622 860.683 222.039 859.556C224.456 858.429 226.932 857.966 229.468 858.167C231.992 858.343 234.302 859.164 236.397 860.629C238.517 862.083 240.163 864.066 241.335 866.58C242.507 869.093 242.969 871.629 242.72 874.187C242.495 876.734 241.632 879.049 240.132 881.131C238.656 883.203 236.721 884.796 234.329 885.912ZM230.829 878.408C232.424 877.664 233.42 876.582 233.817 875.161C234.203 873.716 233.99 872.123 233.178 870.383C232.355 868.619 231.272 867.432 229.929 866.823C228.574 866.189 227.099 866.244 225.504 866.988C223.885 867.743 222.883 868.843 222.497 870.288C222.101 871.709 222.314 873.302 223.136 875.066C223.948 876.806 225.031 877.993 226.385 878.626C227.729 879.236 229.21 879.163 230.829 878.408ZM274.889 866.69L266.841 870.442L252.303 861.509L258.321 874.415L250.273 878.168L238.305 852.501L246.353 848.748L260.991 857.899L254.872 844.776L262.92 841.023L274.889 866.69ZM271.798 852.463C270.615 849.925 270.069 847.429 270.16 844.973C270.275 842.507 271.033 840.285 272.436 838.307C273.826 836.305 275.815 834.701 278.401 833.495C280.624 832.458 282.803 831.957 284.938 831.992C287.085 831.991 289.058 832.498 290.855 833.513C292.677 834.517 294.243 835.95 295.552 837.811L287.069 841.767C286.288 841.101 285.428 840.708 284.488 840.587C283.562 840.43 282.64 840.566 281.721 840.994C280.368 841.626 279.529 842.635 279.205 844.022C278.905 845.397 279.155 846.943 279.955 848.659C280.755 850.375 281.779 851.56 283.025 852.215C284.296 852.858 285.608 852.864 286.962 852.233C287.88 851.804 288.583 851.197 289.07 850.411C289.569 849.59 289.815 848.666 289.807 847.64L298.29 843.684C298.875 845.883 298.966 848.003 298.564 850.044C298.186 852.074 297.313 853.923 295.943 855.592C294.586 857.225 292.796 858.56 290.572 859.597C287.986 860.803 285.485 861.307 283.069 861.11C280.641 860.888 278.445 860.029 276.482 858.532C274.543 857.023 272.982 855 271.798 852.463Z" fill="#0E0D14"/>
<path d="M330.252 832.133C330.053 831.888 329.775 831.722 329.465 831.663C329.156 831.605 328.835 831.657 328.561 831.812L304.783 843.927C304.598 843.986 304.429 844.084 304.286 844.215C304.144 844.346 304.031 844.506 303.957 844.684C303.882 844.863 303.847 845.056 303.855 845.249C303.862 845.442 303.911 845.632 303.999 845.804C304.087 845.977 304.211 846.128 304.363 846.247C304.515 846.367 304.692 846.452 304.88 846.497C305.068 846.541 305.264 846.545 305.454 846.506C305.643 846.468 305.822 846.388 305.978 846.274L329.757 834.159C329.926 834.077 330.076 833.962 330.197 833.818C330.318 833.675 330.408 833.508 330.461 833.328C330.513 833.148 330.527 832.959 330.501 832.773C330.475 832.587 330.411 832.408 330.311 832.249C330.293 832.21 330.273 832.171 330.252 832.133ZM321.349 817.753C321.15 817.508 320.871 817.342 320.562 817.283C320.252 817.224 319.932 817.277 319.658 817.432L298.382 828.272C298.198 828.33 298.029 828.429 297.886 828.559C297.743 828.69 297.631 828.85 297.557 829.029C297.482 829.207 297.447 829.4 297.455 829.593C297.462 829.787 297.511 829.976 297.599 830.149C297.687 830.321 297.811 830.472 297.963 830.592C298.115 830.711 298.292 830.796 298.48 830.841C298.668 830.886 298.864 830.889 299.053 830.85C299.243 830.812 299.422 830.733 299.578 830.618L320.853 819.778C321.023 819.697 321.173 819.581 321.294 819.438C321.415 819.295 321.505 819.128 321.557 818.948C321.61 818.767 321.624 818.578 321.598 818.392C321.572 818.206 321.507 818.028 321.408 817.869C321.39 817.829 321.37 817.79 321.349 817.753ZM323.333 830.929C323.134 830.684 322.856 830.518 322.546 830.459C322.237 830.401 321.916 830.453 321.642 830.608L307.876 837.622C307.691 837.68 307.521 837.778 307.378 837.909C307.234 838.04 307.121 838.2 307.046 838.379C306.972 838.558 306.936 838.75 306.944 838.944C306.951 839.138 307 839.328 307.088 839.5C307.176 839.673 307.301 839.825 307.453 839.944C307.606 840.064 307.782 840.149 307.971 840.193C308.16 840.238 308.356 840.241 308.546 840.202C308.736 840.163 308.915 840.083 309.071 839.967L322.837 832.953C323.006 832.872 323.156 832.757 323.277 832.614C323.398 832.471 323.488 832.304 323.54 832.124C323.593 831.944 323.607 831.755 323.581 831.57C323.556 831.384 323.492 831.206 323.393 831.047C323.375 831.006 323.355 830.968 323.333 830.929ZM314.43 816.549C314.231 816.304 313.952 816.138 313.643 816.079C313.334 816.02 313.013 816.073 312.739 816.228L301.475 821.967C301.291 822.025 301.121 822.123 300.977 822.253C300.834 822.384 300.721 822.544 300.646 822.723C300.571 822.902 300.536 823.095 300.543 823.289C300.551 823.482 300.6 823.672 300.688 823.845C300.776 824.018 300.901 824.169 301.053 824.289C301.206 824.408 301.382 824.493 301.571 824.538C301.76 824.582 301.956 824.585 302.146 824.546C302.335 824.507 302.515 824.427 302.67 824.312L313.934 818.573C314.103 818.492 314.253 818.376 314.374 818.233C314.495 818.09 314.585 817.924 314.637 817.744C314.69 817.564 314.704 817.375 314.678 817.189C314.653 817.004 314.589 816.825 314.49 816.666C314.472 816.626 314.452 816.587 314.43 816.549ZM317.004 824.695C316.806 824.451 316.527 824.284 316.217 824.226C315.908 824.167 315.588 824.22 315.313 824.374L306.553 828.838C306.368 828.896 306.198 828.994 306.055 829.125C305.912 829.255 305.799 829.416 305.724 829.595C305.649 829.773 305.614 829.966 305.621 830.16C305.628 830.354 305.677 830.543 305.765 830.716C305.853 830.889 305.978 831.04 306.13 831.16C306.283 831.28 306.46 831.365 306.648 831.409C306.837 831.454 307.033 831.456 307.223 831.417C307.413 831.378 307.592 831.298 307.748 831.183L316.508 826.72C316.677 826.639 316.827 826.523 316.948 826.38C317.069 826.237 317.159 826.07 317.212 825.89C317.264 825.71 317.278 825.522 317.253 825.336C317.227 825.15 317.163 824.972 317.064 824.813C317.046 824.772 317.026 824.734 317.004 824.695ZM324.656 839.713C324.457 839.469 324.178 839.302 323.869 839.244C323.56 839.185 323.239 839.238 322.965 839.392L314.204 843.856C314.02 843.915 313.851 844.013 313.708 844.144C313.566 844.274 313.453 844.435 313.379 844.613C313.304 844.792 313.269 844.984 313.277 845.178C313.284 845.371 313.333 845.56 313.421 845.733C313.509 845.905 313.633 846.056 313.785 846.176C313.937 846.296 314.114 846.381 314.302 846.425C314.49 846.47 314.686 846.473 314.875 846.435C315.065 846.396 315.244 846.317 315.4 846.202L324.16 841.739C324.33 841.658 324.48 841.542 324.601 841.399C324.722 841.256 324.812 841.088 324.865 840.908C324.917 840.728 324.931 840.539 324.905 840.353C324.879 840.167 324.814 839.989 324.715 839.83C324.697 839.79 324.677 839.751 324.656 839.713ZM308.762 814.707C308.564 814.463 308.285 814.296 307.976 814.238C307.666 814.179 307.346 814.232 307.072 814.386L303.317 816.299C303.133 816.358 302.963 816.456 302.821 816.587C302.678 816.718 302.566 816.878 302.491 817.056C302.417 817.235 302.382 817.428 302.389 817.621C302.397 817.814 302.446 818.004 302.534 818.176C302.621 818.349 302.746 818.5 302.898 818.619C303.05 818.739 303.226 818.824 303.415 818.869C303.603 818.913 303.798 818.917 303.988 818.878C304.178 818.84 304.357 818.76 304.513 818.646L308.267 816.733C308.436 816.652 308.586 816.536 308.708 816.392C308.829 816.249 308.919 816.082 308.971 815.902C309.023 815.722 309.037 815.533 309.011 815.347C308.986 815.161 308.921 814.983 308.822 814.823C308.804 814.783 308.784 814.744 308.762 814.706L308.762 814.707ZM316.414 829.725C316.215 829.481 315.937 829.314 315.627 829.256C315.318 829.197 314.998 829.249 314.723 829.404L310.969 831.317C310.784 831.375 310.614 831.473 310.471 831.604C310.328 831.735 310.215 831.895 310.14 832.074C310.065 832.252 310.03 832.445 310.037 832.639C310.044 832.833 310.093 833.023 310.181 833.195C310.269 833.368 310.394 833.52 310.546 833.639C310.699 833.759 310.875 833.844 311.064 833.888C311.253 833.933 311.449 833.936 311.639 833.897C311.829 833.858 312.008 833.778 312.164 833.662L315.918 831.75C316.087 831.668 316.237 831.553 316.358 831.41C316.479 831.267 316.569 831.1 316.622 830.92C316.674 830.74 316.688 830.551 316.663 830.366C316.637 830.18 316.573 830.002 316.474 829.843C316.456 829.802 316.436 829.764 316.414 829.725ZM324.066 844.743C323.867 844.499 323.588 844.332 323.279 844.274C322.969 844.215 322.649 844.267 322.375 844.422L318.62 846.335C318.436 846.394 318.267 846.492 318.124 846.623C317.981 846.754 317.869 846.914 317.794 847.092C317.72 847.271 317.685 847.464 317.692 847.657C317.7 847.85 317.749 848.04 317.837 848.212C317.925 848.384 318.049 848.536 318.201 848.655C318.353 848.775 318.53 848.86 318.718 848.905C318.906 848.949 319.102 848.952 319.291 848.914C319.481 848.875 319.66 848.796 319.816 848.682L323.57 846.769C323.74 846.688 323.89 846.572 324.011 846.428C324.132 846.285 324.222 846.118 324.274 845.938C324.327 845.758 324.341 845.569 324.315 845.383C324.289 845.197 324.224 845.019 324.125 844.859C324.107 844.82 324.087 844.781 324.066 844.743Z" fill="#0E0D14"/>
<path d="M351.314 829.556L342.198 822.596L342.162 822.613L346.456 831.821L338.408 835.574L326.439 809.907L338.403 804.329C340.481 803.359 342.432 802.906 344.256 802.967C346.068 803.005 347.635 803.495 348.958 804.438C350.293 805.345 351.332 806.597 352.076 808.192C352.876 809.908 353.103 811.656 352.756 813.436C352.433 815.205 351.513 816.796 349.995 818.21L360.159 825.431L351.314 829.556ZM339.66 817.248L342.85 815.76C343.624 815.399 344.125 814.96 344.354 814.441C344.571 813.898 344.506 813.252 344.156 812.503C343.841 811.826 343.387 811.39 342.796 811.195C342.229 810.989 341.571 811.06 340.822 811.41L337.632 812.897L339.66 817.248ZM370.882 789.183L373.857 795.564L367.042 798.742L376.035 818.028L367.987 821.781L358.994 802.495L352.251 805.639L349.275 799.259L370.882 789.183ZM395.193 809.403C392.124 810.835 389.254 811.305 386.583 810.814C383.925 810.288 381.863 808.675 380.398 805.975L388.954 801.985C389.762 803.403 390.758 803.836 391.943 803.284C392.378 803.081 392.695 802.815 392.895 802.487C393.108 802.123 393.113 801.723 392.91 801.288C392.628 800.684 392.076 800.353 391.255 800.294C390.422 800.212 389.204 800.25 387.601 800.409C385.687 800.596 384.057 800.664 382.71 800.616C381.387 800.556 380.091 800.174 378.822 799.471C377.553 798.769 376.542 797.578 375.788 795.899C375.01 794.231 374.774 792.62 375.079 791.066C375.397 789.476 376.152 788.035 377.345 786.743C378.561 785.44 380.1 784.355 381.961 783.487C385.103 782.022 387.93 781.587 390.443 782.18C392.98 782.762 394.912 784.348 396.237 786.937L387.572 790.978C387.21 790.264 386.786 789.829 386.302 789.672C385.817 789.516 385.333 789.55 384.849 789.776C384.511 789.934 384.289 790.184 384.185 790.527C384.068 790.846 384.106 791.211 384.298 791.622C384.568 792.202 385.108 792.539 385.917 792.632C386.738 792.691 387.974 792.659 389.623 792.537C391.524 792.386 393.124 792.346 394.423 792.418C395.745 792.478 397.024 792.823 398.26 793.453C399.495 794.083 400.462 795.148 401.161 796.646C401.894 798.217 402.166 799.811 401.979 801.428C401.78 803.022 401.107 804.512 399.96 805.901C398.812 807.289 397.223 808.457 395.193 809.403Z" fill="#0E0D14"/>
<path d="M48.4794 897.368L49.9501 900.522L57.9256 896.803L60.7487 902.857L52.7732 906.576L54.4637 910.201L63.5268 905.975L66.5189 912.392L49.4078 920.371L37.4393 894.704L54.5504 886.725L57.5425 893.142L48.4794 897.368ZM94.1672 899.499L86.1192 903.252L71.5819 894.319L77.5999 907.224L69.5519 910.977L57.5834 885.311L65.6314 881.558L80.2702 890.709L74.1507 877.585L82.1987 873.832L94.1672 899.499ZM105.991 862.738L108.966 869.118L102.151 872.296L111.144 891.583L103.096 895.335L94.1028 876.049L87.3598 879.193L84.3846 872.813L105.991 862.738ZM119.214 864.384L120.685 867.538L128.66 863.819L131.483 869.873L123.508 873.592L125.198 877.217L134.261 872.991L137.253 879.408L120.142 887.387L108.174 861.72L125.285 853.741L128.277 860.158L119.214 864.384ZM153.192 871.975L144.077 865.015L144.041 865.032L148.334 874.24L140.286 877.993L128.318 852.327L140.281 846.748C142.36 845.779 144.311 845.325 146.134 845.387C147.947 845.425 149.514 845.915 150.836 846.858C152.172 847.765 153.211 849.016 153.955 850.611C154.755 852.327 154.982 854.075 154.635 855.855C154.312 857.624 153.392 859.215 151.874 860.629L162.038 867.85L153.192 871.975ZM141.539 859.667L144.729 858.179C145.502 857.819 146.003 857.379 146.232 856.86C146.45 856.318 146.384 855.672 146.035 854.922C145.719 854.246 145.266 853.81 144.675 853.615C144.108 853.408 143.45 853.48 142.7 853.829L139.51 855.317L141.539 859.667ZM172.76 831.603L175.736 837.983L168.92 841.161L177.913 860.448L169.865 864.2L160.872 844.914L154.129 848.058L151.154 841.678L172.76 831.603ZM201.561 844.698L193.006 848.687L193.546 853.158L185.099 857.097L182.52 827.052L191.8 822.724L213.122 844.029L204.639 847.985L201.561 844.698ZM196.781 839.557L191.13 833.497L192.14 841.72L196.781 839.557Z" fill="#0E0D14"/>
<path d="M224.033 826.207L230.885 822.807C231.612 822.447 232.167 821.816 232.429 821.053C232.691 820.289 232.638 819.457 232.281 818.739L231.609 817.384L227.498 819.424C227.135 819.604 226.716 819.635 226.333 819.508C225.95 819.382 225.634 819.109 225.456 818.75C225.278 818.39 225.251 817.974 225.382 817.593C225.513 817.211 225.791 816.896 226.154 816.715L230.265 814.675L228.249 810.612L224.138 812.652C223.775 812.832 223.355 812.862 222.972 812.736C222.589 812.61 222.274 812.337 222.096 811.977C221.917 811.618 221.891 811.202 222.022 810.821C222.153 810.439 222.431 810.123 222.794 809.943L226.905 807.903L224.889 803.84L220.778 805.88C220.414 806.06 219.995 806.09 219.612 805.964C219.229 805.837 218.914 805.564 218.735 805.205C218.557 804.846 218.531 804.43 218.662 804.048C218.793 803.667 219.07 803.351 219.434 803.171L223.545 801.131L222.873 799.777C222.516 799.058 221.885 798.512 221.119 798.259C220.353 798.006 219.515 798.067 218.788 798.428L207.825 803.867C207.098 804.228 206.543 804.859 206.281 805.622C206.019 806.385 206.072 807.217 206.429 807.936L207.101 809.29L211.212 807.25C211.575 807.07 211.995 807.04 212.378 807.166C212.761 807.293 213.076 807.566 213.254 807.925C213.432 808.284 213.459 808.7 213.328 809.082C213.197 809.463 212.919 809.779 212.556 809.959L208.445 811.999L210.461 816.062L214.572 814.023C214.936 813.842 215.355 813.812 215.738 813.939C216.121 814.065 216.436 814.338 216.614 814.697C216.793 815.056 216.819 815.473 216.688 815.854C216.557 816.236 216.28 816.551 215.916 816.732L211.805 818.771L213.821 822.835L217.932 820.795C218.296 820.615 218.715 820.584 219.098 820.711C219.481 820.837 219.797 821.11 219.975 821.469C220.153 821.829 220.18 822.245 220.049 822.626C219.918 823.008 219.64 823.323 219.277 823.504L215.166 825.544L215.838 826.898C216.194 827.616 216.825 828.162 217.591 828.415C218.357 828.668 219.196 828.608 219.922 828.247L224.033 826.207ZM228.118 827.556L230.806 832.974L239.028 828.894C239.392 828.714 239.811 828.684 240.194 828.81C240.577 828.937 240.892 829.21 241.071 829.569C241.249 829.928 241.275 830.344 241.144 830.726C241.013 831.107 240.736 831.423 240.372 831.603L221.188 841.122C220.824 841.303 220.405 841.333 220.022 841.206C219.639 841.08 219.324 840.807 219.146 840.448C218.967 840.089 218.941 839.672 219.072 839.291C219.203 838.909 219.48 838.594 219.844 838.413L228.066 834.334L225.377 828.916L221.267 830.956C219.813 831.677 218.135 831.798 216.603 831.292C215.071 830.786 213.81 829.695 213.097 828.258L203.688 809.296C202.975 807.859 202.869 806.194 203.393 804.668C203.917 803.142 205.028 801.88 206.481 801.158L217.444 795.719C218.897 794.997 220.575 794.876 222.107 795.382C223.639 795.888 224.9 796.98 225.613 798.417L235.022 817.379C235.735 818.816 235.841 820.48 235.317 822.006C234.794 823.532 233.683 824.795 232.229 825.516L228.118 827.556Z" fill="#0E0D14"/>
<path d="M275.023 815.244L266.975 818.997L252.438 810.064L258.456 822.97L250.408 826.723L238.439 801.056L246.487 797.303L261.126 806.454L255.007 793.331L263.055 789.578L275.023 815.244ZM297.541 773.496L309.51 799.163L301.498 802.899L295.531 790.102L297.547 804.742L290.659 807.953L280.74 796.999L286.707 809.796L278.659 813.549L266.691 787.882L276.551 783.284L289.391 796.054L287.717 778.078L297.541 773.496ZM312.213 774.467L313.684 777.621L321.659 773.902L324.482 779.956L316.507 783.675L318.197 787.3L327.26 783.074L330.252 789.491L313.141 797.47L301.173 771.803L318.284 763.824L321.276 770.241L312.213 774.467ZM357.901 776.598L349.853 780.351L335.315 771.418L341.333 784.323L333.285 788.076L321.317 762.41L329.365 758.657L344.004 767.808L337.884 754.684L345.932 750.931L357.901 776.598ZM369.724 739.837L372.7 746.217L365.884 749.395L374.878 768.682L366.83 772.434L357.836 753.148L351.093 756.292L348.118 749.912L369.724 739.837Z" fill="#0E0D14"/>
<path d="M-69.911 211.622L-67.3373 217.142L-53.3801 210.633L-48.4397 221.228L-62.3969 227.737L-59.4385 234.081L-43.5781 226.685L-38.3419 237.914L-68.2863 251.877L-89.2313 206.961L-59.2869 192.997L-54.0506 204.227L-69.911 211.622ZM10.0427 215.352L-4.04135 221.919L-29.4818 206.286L-18.9501 228.871L-33.0341 235.439L-53.9791 190.522L-39.8951 183.955L-14.2772 199.969L-24.9863 177.003L-10.9023 170.435L10.0427 215.352ZM30.7342 151.02L35.9409 162.186L24.0138 167.747L39.7522 201.498L25.6681 208.066L9.92983 174.315L-1.8703 179.817L-7.07696 168.652L30.7342 151.02ZM53.8743 153.9L56.4481 159.42L70.4052 152.911L75.3456 163.506L61.3885 170.014L64.3468 176.359L80.2072 168.963L85.4434 180.192L55.499 194.155L34.5541 149.239L64.4985 135.275L69.7347 146.505L53.8743 153.9ZM113.336 167.185L97.3845 155.006L97.3211 155.035L104.835 171.149L90.7512 177.717L69.8063 132.8L90.742 123.038C94.3793 121.342 97.7936 120.548 100.985 120.656C104.157 120.722 106.899 121.579 109.214 123.229C111.55 124.817 113.369 127.007 114.671 129.798C116.071 132.801 116.468 135.86 115.861 138.975C115.296 142.071 113.686 144.856 111.029 147.33L128.816 159.967L113.336 167.185ZM92.9428 145.646L98.5256 143.043C99.879 142.411 100.756 141.642 101.157 140.734C101.538 139.784 101.422 138.654 100.811 137.343C100.259 136.159 99.4653 135.396 98.4307 135.054C97.4385 134.693 96.2868 134.818 94.9756 135.43L89.3928 138.033L92.9428 145.646ZM147.581 96.5335L152.787 107.699L140.86 113.261L156.599 147.012L142.515 153.579L126.776 119.828L114.976 125.331L109.769 114.165L147.581 96.5335ZM197.983 119.45L183.01 126.431L183.955 134.255L169.173 141.148L164.66 88.5694L180.901 80.9961L218.214 118.28L203.368 125.203L197.983 119.45ZM189.616 110.453L179.728 99.8479L181.496 114.239L189.616 110.453Z" fill="#0E0D14"/>
<path d="M227.491 97.6352L235.669 93.5776C236.536 93.1471 237.199 92.3937 237.512 91.483C237.825 90.5722 237.761 89.5789 237.336 88.7214L236.534 87.1048L231.627 89.5394C231.193 89.7546 230.693 89.7907 230.236 89.6397C229.778 89.4888 229.402 89.1631 229.189 88.7343C228.977 88.3056 228.945 87.8089 229.101 87.3536C229.257 86.8982 229.589 86.5215 230.023 86.3062L234.929 83.8717L232.523 79.0219L227.616 81.4565C227.183 81.6717 226.682 81.7078 226.225 81.5569C225.768 81.4059 225.391 81.0802 225.179 80.6515C224.966 80.2227 224.934 79.726 225.09 79.2707C225.247 78.8153 225.578 78.4386 226.012 78.2233L230.919 75.7888L228.512 70.939L223.606 73.3736C223.172 73.5888 222.671 73.6249 222.214 73.474C221.757 73.323 221.381 72.9973 221.168 72.5686C220.955 72.1398 220.924 71.6431 221.08 71.1878C221.236 70.7324 221.568 70.3557 222.001 70.1405L226.908 67.7059L226.106 66.0893C225.68 65.2318 224.928 64.5804 224.013 64.2785C223.099 63.9765 222.098 64.0487 221.231 64.4792L208.146 70.9714C207.279 71.4019 206.616 72.1553 206.303 73.0661C205.991 73.9768 206.054 74.9701 206.48 75.8276L207.282 77.4442L212.188 75.0096C212.622 74.7944 213.123 74.7583 213.58 74.9093C214.037 75.0602 214.413 75.3859 214.626 75.8147C214.839 76.2434 214.87 76.7401 214.714 77.1955C214.558 77.6508 214.226 78.0276 213.793 78.2428L208.886 80.6774L211.292 85.5271L216.199 83.0925C216.633 82.8773 217.133 82.8412 217.59 82.9922C218.047 83.1431 218.424 83.4688 218.637 83.8976C218.849 84.3263 218.881 84.823 218.725 85.2784C218.568 85.7337 218.237 86.1104 217.803 86.3257L212.897 88.7603L215.303 93.61L220.21 91.1754C220.643 90.9602 221.144 90.9241 221.601 91.0751C222.058 91.226 222.434 91.5517 222.647 91.9805C222.86 92.4092 222.892 92.9059 222.735 93.3612C222.579 93.8166 222.248 94.1933 221.814 94.4086L216.907 96.8432L217.709 98.4597C218.135 99.3172 218.888 99.9686 219.802 100.271C220.716 100.572 221.717 100.5 222.585 100.07L227.491 97.6352ZM232.367 99.2453L235.575 105.712L245.388 100.842C245.822 100.627 246.322 100.591 246.78 100.742C247.237 100.893 247.613 101.219 247.826 101.648C248.039 102.076 248.07 102.573 247.914 103.028C247.758 103.484 247.426 103.86 246.992 104.076L224.095 115.437C223.661 115.652 223.161 115.688 222.704 115.537C222.247 115.386 221.87 115.061 221.657 114.632C221.445 114.203 221.413 113.707 221.569 113.251C221.726 112.796 222.057 112.419 222.491 112.204L232.304 107.335L229.095 100.868L224.189 103.303C222.454 104.164 220.452 104.308 218.623 103.704C216.795 103.1 215.289 101.798 214.438 100.083L203.209 77.4507C202.358 75.7357 202.231 73.749 202.856 71.9275C203.481 70.1061 204.807 68.5992 206.542 67.7383L219.626 61.246C221.361 60.3851 223.363 60.2407 225.192 60.8446C227.021 61.4485 228.526 62.7513 229.377 64.4662L240.607 87.0983C241.458 88.8133 241.584 90.8 240.959 92.6215C240.334 94.4429 239.008 95.9498 237.273 96.8108L232.367 99.2453Z" fill="#0E0D14"/>
<path d="M298.79 78.4275L284.706 84.995L259.266 69.3619L269.798 91.9471L255.714 98.5145L234.769 53.5979L248.853 47.0304L274.471 63.0442L263.762 40.0784L277.846 33.5109L298.79 78.4275ZM338.197 5.3684L359.142 50.285L345.122 56.8229L334.679 34.4281L338.207 60.0475L326.153 65.6683L308.795 46.498L319.238 68.8929L305.153 75.4604L284.209 30.5438L301.465 22.4971L323.934 44.8448L321.005 13.3855L338.197 5.3684ZM363.873 7.06666L366.446 12.5861L380.403 6.07775L385.344 16.6725L371.387 23.1808L374.345 29.525L390.205 22.1291L395.442 33.3583L365.497 47.3216L344.552 2.40499L374.497 -11.5583L379.733 -0.329165L363.873 7.06666ZM443.826 10.7962L429.742 17.3637L404.302 1.73056L414.834 24.3158L400.749 30.8832L379.805 -14.0334L393.889 -20.6009L419.506 -4.58709L408.797 -27.5529L422.881 -34.1204L443.826 10.7962ZM464.518 -53.5358L469.724 -42.3701L457.797 -36.8085L473.536 -3.05756L459.452 3.50993L443.713 -30.241L431.913 -24.7385L426.707 -35.9042L464.518 -53.5358Z" fill="#0E0D14"/>
<path d="M-0.911015 445.622L1.66273 451.142L15.6199 444.633L20.5603 455.228L6.60314 461.737L9.56147 468.081L25.4219 460.685L30.6581 471.914L0.713682 485.877L-20.2313 440.961L9.71313 426.997L14.9494 438.227L-0.911015 445.622ZM79.0427 449.352L64.9587 455.919L39.5182 440.286L50.0499 462.871L35.9659 469.439L15.0209 424.522L29.1049 417.955L54.7228 433.969L44.0137 411.003L58.0977 404.435L79.0427 449.352ZM99.7342 385.02L104.941 396.186L93.0138 401.747L108.752 435.498L94.6681 442.066L78.9298 408.315L67.1297 413.817L61.923 402.652L99.7342 385.02ZM122.874 387.9L125.448 393.42L139.405 386.911L144.346 397.506L130.388 404.014L133.347 410.359L149.207 402.963L154.443 414.192L124.499 428.155L103.554 383.239L133.498 369.275L138.735 380.505L122.874 387.9ZM182.336 401.185L166.385 389.006L166.321 389.035L173.835 405.149L159.751 411.717L138.806 366.8L159.742 357.038C163.379 355.342 166.794 354.548 169.985 354.656C173.157 354.722 175.899 355.579 178.214 357.229C180.55 358.817 182.369 361.007 183.671 363.798C185.071 366.801 185.468 369.86 184.861 372.975C184.296 376.071 182.686 378.856 180.029 381.33L197.816 393.967L182.336 401.185ZM161.943 379.646L167.526 377.043C168.879 376.411 169.756 375.642 170.157 374.734C170.538 373.784 170.422 372.654 169.811 371.343C169.259 370.159 168.465 369.396 167.431 369.054C166.438 368.693 165.287 368.818 163.976 369.43L158.393 372.033L161.943 379.646ZM216.581 330.534L221.787 341.699L209.86 347.261L225.599 381.012L211.515 387.579L195.776 353.828L183.976 359.331L178.769 348.165L216.581 330.534ZM266.983 353.45L252.01 360.431L252.955 368.255L238.173 375.148L233.66 322.569L249.901 314.996L287.214 352.28L272.368 359.203L266.983 353.45ZM258.616 344.453L248.728 333.848L250.496 348.239L258.616 344.453Z" fill="#0E0D14"/>
<path d="M296.491 331.635L304.669 327.578C305.536 327.147 306.199 326.394 306.512 325.483C306.825 324.572 306.761 323.579 306.336 322.721L305.534 321.105L300.627 323.539C300.193 323.755 299.693 323.791 299.236 323.64C298.778 323.489 298.402 323.163 298.189 322.734C297.977 322.306 297.945 321.809 298.101 321.354C298.257 320.898 298.589 320.521 299.023 320.306L303.929 317.872L301.523 313.022L296.616 315.457C296.183 315.672 295.682 315.708 295.225 315.557C294.768 315.406 294.391 315.08 294.179 314.651C293.966 314.223 293.934 313.726 294.09 313.271C294.247 312.815 294.578 312.439 295.012 312.223L299.919 309.789L297.512 304.939L292.606 307.374C292.172 307.589 291.671 307.625 291.214 307.474C290.757 307.323 290.381 306.997 290.168 306.569C289.955 306.14 289.924 305.643 290.08 305.188C290.236 304.732 290.568 304.356 291.001 304.14L295.908 301.706L295.106 300.089C294.68 299.232 293.928 298.58 293.013 298.278C292.099 297.977 291.098 298.049 290.231 298.479L277.146 304.971C276.279 305.402 275.616 306.155 275.303 307.066C274.991 307.977 275.054 308.97 275.48 309.828L276.282 311.444L281.188 309.01C281.622 308.794 282.123 308.758 282.58 308.909C283.037 309.06 283.413 309.386 283.626 309.815C283.839 310.243 283.87 310.74 283.714 311.195C283.558 311.651 283.226 312.028 282.793 312.243L277.886 314.677L280.292 319.527L285.199 317.093C285.633 316.877 286.133 316.841 286.59 316.992C287.047 317.143 287.424 317.469 287.637 317.898C287.849 318.326 287.881 318.823 287.725 319.278C287.568 319.734 287.237 320.11 286.803 320.326L281.897 322.76L284.303 327.61L289.21 325.175C289.643 324.96 290.144 324.924 290.601 325.075C291.058 325.226 291.434 325.552 291.647 325.98C291.86 326.409 291.892 326.906 291.735 327.361C291.579 327.817 291.248 328.193 290.814 328.409L285.907 330.843L286.709 332.46C287.135 333.317 287.888 333.969 288.802 334.271C289.716 334.572 290.717 334.5 291.585 334.07L296.491 331.635ZM301.367 333.245L304.575 339.712L314.388 334.842C314.822 334.627 315.322 334.591 315.78 334.742C316.237 334.893 316.613 335.219 316.826 335.648C317.039 336.076 317.07 336.573 316.914 337.028C316.758 337.484 316.426 337.86 315.992 338.076L293.095 349.437C292.661 349.652 292.161 349.688 291.704 349.537C291.247 349.386 290.87 349.061 290.657 348.632C290.445 348.203 290.413 347.707 290.569 347.251C290.726 346.796 291.057 346.419 291.491 346.204L301.304 341.335L298.095 334.868L293.189 337.303C291.454 338.164 289.452 338.308 287.623 337.704C285.795 337.1 284.289 335.798 283.438 334.083L272.209 311.451C271.358 309.736 271.231 307.749 271.856 305.928C272.481 304.106 273.807 302.599 275.542 301.738L288.626 295.246C290.361 294.385 292.363 294.241 294.192 294.845C296.021 295.449 297.526 296.751 298.377 298.466L309.607 321.098C310.458 322.813 310.584 324.8 309.959 326.621C309.334 328.443 308.008 329.95 306.273 330.811L301.367 333.245Z" fill="#0E0D14"/>
<path d="M367.79 312.427L353.706 318.995L328.266 303.362L338.798 325.947L324.714 332.515L303.769 287.598L317.853 281.03L343.471 297.044L332.762 274.078L346.846 267.511L367.79 312.427ZM407.197 239.368L428.142 284.285L414.122 290.823L403.679 268.428L407.207 294.047L395.153 299.668L377.795 280.498L388.238 302.893L374.153 309.46L353.209 264.544L370.465 256.497L392.934 278.845L390.005 247.385L407.197 239.368ZM432.873 241.067L435.446 246.586L449.403 240.078L454.344 250.672L440.387 257.181L443.345 263.525L459.205 256.129L464.442 267.358L434.497 281.322L413.552 236.405L443.497 222.442L448.733 233.671L432.873 241.067ZM512.826 244.796L498.742 251.364L473.302 235.731L483.834 258.316L469.749 264.883L448.805 219.967L462.889 213.399L488.506 229.413L477.797 206.447L491.881 199.88L512.826 244.796ZM533.518 180.464L538.724 191.63L526.797 197.192L542.536 230.942L528.452 237.51L512.713 203.759L500.913 209.262L495.707 198.096L533.518 180.464Z" fill="#0E0D14"/>
<path d="M46.0462 96.6059C49.0489 95.978 51.7539 96.3129 54.1611 97.6105C56.5909 98.846 58.4074 100.754 59.6104 103.334C61.4446 107.267 61.5535 110.924 59.937 114.303C58.3432 117.621 55.1143 120.414 50.2505 122.682L26.7137 133.658L5.76872 88.741L28.6711 78.0614C33.2389 75.9314 37.2974 75.249 40.8466 76.014C44.3958 76.7791 47.0579 79.0649 48.8329 82.8714C50.0557 85.4936 50.3932 88.0395 49.8456 90.509C49.3205 92.9164 48.054 94.9487 46.0462 96.6059ZM28.0177 99.6834L33.4737 97.1392C34.7425 96.5475 35.5547 95.8599 35.9101 95.0762C36.3079 94.2729 36.2602 93.3425 35.7672 92.2852C35.2544 91.1855 34.5625 90.5298 33.6914 90.3181C32.8429 90.0444 31.7842 90.2034 30.5154 90.7951L25.0594 93.3392L28.0177 99.6834ZM41.9395 112.81C43.2083 112.218 44.0303 111.551 44.4055 110.81C44.8032 110.007 44.7457 109.055 44.2329 107.956C43.2271 105.799 41.4765 105.302 38.9811 106.465L32.5736 109.453L35.5319 115.798L41.9395 112.81ZM95.719 93.2156L80.7468 100.197L81.6917 108.021L66.9098 114.914L62.3962 62.3351L78.6373 54.7618L115.95 92.046L101.105 98.9684L95.719 93.2156ZM87.3527 84.2184L77.4646 73.6137L79.2322 88.005L87.3527 84.2184ZM162.227 70.4668L148.143 77.0343L122.702 61.4012L133.234 83.9864L119.15 90.5538L98.205 45.6372L112.289 39.0697L137.907 55.0835L127.198 32.1177L141.282 25.5502L162.227 70.4668Z" fill="#0E0D14"/>
<path d="M180.351 7.77589L150.646 21.919C149.474 22.4769 148.976 23.8792 149.534 25.051L167.718 63.243C168.276 64.4149 169.679 64.9125 170.85 64.3546L200.555 50.2115C201.727 49.6536 202.225 48.2513 201.667 47.0795L183.483 8.88745C182.925 7.71562 181.523 7.21796 180.351 7.77589Z" stroke="#0E0D14" stroke-width="4" stroke-linecap="round" stroke-linejoin="round"/>
<path d="M173.58 31.8226C176.509 30.4278 177.754 26.9222 176.359 23.9926C174.964 21.063 171.458 19.8189 168.529 21.2137C165.599 22.6085 164.355 26.1141 165.75 29.0437C167.145 31.9733 170.65 33.2174 173.58 31.8226Z" stroke="#0E0D14" stroke-width="4"/>
<path d="M158.93 28.3852C160.102 27.8273 160.599 26.425 160.041 25.2532C159.483 24.0814 158.081 23.5837 156.909 24.1416C155.738 24.6996 155.24 26.1018 155.798 27.2736C156.356 28.4455 157.758 28.9431 158.93 28.3852Z" fill="#0E0D14"/>
<path d="M173.073 58.0903C174.245 57.5323 174.743 56.1301 174.185 54.9583C173.627 53.7864 172.225 53.2888 171.053 53.8467C169.881 54.4046 169.384 55.8069 169.941 56.9787C170.499 58.1505 171.902 58.6482 173.073 58.0903Z" fill="#0E0D14"/>
<path d="M180.147 18.2831C181.319 17.7252 181.817 16.323 181.259 15.1511C180.701 13.9793 179.299 13.4817 178.127 14.0396C176.955 14.5975 176.457 15.9998 177.015 17.1716C177.573 18.3434 178.975 18.8411 180.147 18.2831Z" fill="#0E0D14"/>
<path d="M194.291 47.9877C195.463 47.4298 195.96 46.0276 195.402 44.8557C194.844 43.6839 193.442 43.1862 192.27 43.7442C191.099 44.3021 190.601 45.7043 191.159 46.8762C191.717 48.048 193.119 48.5457 194.291 47.9877Z" fill="#0E0D14"/>
<path d="M182.672 50.9178C186.188 49.244 187.681 45.0373 186.007 41.5218C184.333 38.0063 180.126 36.5133 176.611 38.1871C173.095 39.8609 171.602 44.0676 173.276 47.5831C174.95 51.0986 179.157 52.5916 182.672 50.9178Z" stroke="#0E0D14" stroke-width="4"/>
<path d="M170.484 189.24C167.851 183.594 166.636 178.039 166.838 172.577C167.094 167.089 168.782 162.145 171.902 157.744C174.996 153.289 179.421 149.72 185.175 147.037C190.122 144.73 194.97 143.615 199.72 143.692C204.498 143.69 208.886 144.818 212.886 147.078C216.939 149.312 220.423 152.5 223.335 156.641L204.461 165.442C202.723 163.961 200.809 163.086 198.719 162.817C196.658 162.468 194.606 162.771 192.563 163.723C189.551 165.128 187.685 167.373 186.964 170.459C186.296 173.52 186.852 176.959 188.633 180.777C190.413 184.595 192.69 187.232 195.464 188.688C198.292 190.119 201.211 190.133 204.223 188.728C206.266 187.776 207.829 186.425 208.912 184.676C210.024 182.848 210.571 180.793 210.554 178.509L229.429 169.708C230.729 174.601 230.931 179.318 230.038 183.859C229.197 188.376 227.253 192.49 224.206 196.203C221.186 199.836 217.203 202.807 212.256 205.114C206.502 207.797 200.937 208.919 195.56 208.48C190.159 207.987 185.274 206.075 180.905 202.744C176.591 199.388 173.117 194.886 170.484 189.24ZM274.273 176.391C268.896 178.898 263.36 179.942 257.664 179.52C252.022 179.074 246.843 177.234 242.127 173.999C237.411 170.765 233.749 166.351 231.141 160.759C228.533 155.166 227.506 149.524 228.06 143.832C228.613 138.14 230.545 133.017 233.855 128.462C237.193 123.828 241.551 120.257 246.929 117.75C252.306 115.242 257.816 114.212 263.458 114.658C269.074 115.05 274.214 116.876 278.876 120.136C283.593 123.37 287.255 127.784 289.862 133.376C292.47 138.969 293.497 144.611 292.944 150.303C292.444 155.97 290.525 161.12 287.186 165.754C283.901 170.363 279.597 173.908 274.273 176.391ZM266.488 159.694C270.037 158.039 272.253 155.631 273.135 152.47C273.993 149.255 273.519 145.711 271.714 141.839C269.883 137.914 267.473 135.273 264.484 133.917C261.47 132.508 258.189 132.631 254.639 134.285C251.037 135.966 248.806 138.413 247.949 141.628C247.066 144.789 247.54 148.333 249.37 152.258C251.176 156.13 253.586 158.771 256.6 160.18C259.589 161.536 262.885 161.374 266.488 159.694ZM364.519 133.621L346.612 141.971L314.267 122.095L327.657 150.81L309.75 159.16L283.12 102.052L301.027 93.702L333.598 114.062L319.982 84.8629L337.889 76.5128L364.519 133.621ZM357.643 101.966C355.011 96.3198 353.795 90.7653 353.998 85.3026C354.254 79.8149 355.942 74.8706 359.061 70.4699C362.156 66.0153 366.58 62.4465 372.334 59.7634C377.281 57.4565 382.13 56.3413 386.879 56.418C391.657 56.4158 396.046 57.5444 400.046 59.8038C404.099 62.0381 407.582 65.2258 410.495 69.3667L391.62 78.1681C389.882 76.6872 387.968 75.812 385.879 75.5426C383.818 75.1943 381.766 75.4966 379.722 76.4494C376.711 77.8537 374.845 80.0988 374.123 83.1848C373.456 86.2457 374.012 89.6852 375.792 93.5031C377.573 97.3211 379.85 99.9581 382.624 101.414C385.451 102.845 388.371 102.859 391.382 101.454C393.426 100.502 394.989 99.1507 396.072 97.4018C397.184 95.5741 397.731 93.5186 397.714 91.2353L416.588 82.4338C417.888 87.327 418.091 92.0442 417.197 96.5854C416.357 101.102 414.413 105.216 411.365 108.929C408.346 112.562 404.363 115.533 399.416 117.84C393.662 120.523 388.097 121.645 382.72 121.206C377.318 120.713 372.433 118.801 368.065 115.47C363.75 112.114 360.276 107.612 357.643 101.966Z" fill="#0E0D14"/>
<path d="M438.032 68.5273C437.729 68.1543 437.303 67.9006 436.831 67.811C436.359 67.7214 435.87 67.8018 435.452 68.0379L399.169 86.5238C398.888 86.6136 398.629 86.7634 398.412 86.9629C398.194 87.1624 398.023 87.4069 397.909 87.6793C397.795 87.9518 397.742 88.2457 397.753 88.5407C397.764 88.8357 397.84 89.1248 397.974 89.3878C398.108 89.6509 398.297 89.8816 398.529 90.0641C398.761 90.2466 399.03 90.3764 399.318 90.4445C399.605 90.5127 399.904 90.5176 400.193 90.4588C400.482 90.4001 400.755 90.2791 400.993 90.1043L437.276 71.6184C437.534 71.4945 437.763 71.3176 437.948 71.0992C438.133 70.8807 438.27 70.6257 438.35 70.3508C438.43 70.0758 438.451 69.7871 438.412 69.5035C438.372 69.2199 438.274 68.9478 438.122 68.7049C438.095 68.6443 438.065 68.5851 438.032 68.5273ZM424.447 46.5849C424.144 46.2119 423.718 45.9582 423.246 45.8686C422.774 45.779 422.285 45.8594 421.867 46.0955L389.403 62.6355C389.122 62.7253 388.864 62.8751 388.646 63.0746C388.428 63.2741 388.257 63.5186 388.143 63.791C388.029 64.0635 387.976 64.3574 387.988 64.6524C387.999 64.9474 388.074 65.2365 388.208 65.4995C388.342 65.7626 388.532 65.9933 388.764 66.1758C388.996 66.3583 389.265 66.4881 389.552 66.5563C389.839 66.6244 390.138 66.6293 390.427 66.5705C390.717 66.5118 390.99 66.3908 391.228 66.2161L423.691 49.676C423.949 49.5521 424.178 49.3752 424.363 49.1568C424.548 48.9383 424.685 48.6833 424.765 48.4084C424.845 48.1334 424.866 47.8447 424.827 47.5611C424.788 47.2775 424.689 47.0054 424.537 46.7625C424.51 46.7019 424.48 46.6426 424.447 46.5849ZM427.474 66.6902C427.171 66.3172 426.746 66.0635 426.274 65.9739C425.802 65.8844 425.313 65.9647 424.894 66.2008L403.889 76.9032C403.607 76.9922 403.347 77.1416 403.129 77.3409C402.91 77.5403 402.738 77.7849 402.623 78.0577C402.509 78.3305 402.456 78.6249 402.467 78.9204C402.478 79.216 402.553 79.5057 402.687 79.7692C402.821 80.0327 403.011 80.2639 403.244 80.4465C403.477 80.6291 403.746 80.7588 404.034 80.8267C404.322 80.8945 404.621 80.8988 404.911 80.8392C405.201 80.7797 405.474 80.6577 405.712 80.4818L426.718 69.7794C426.975 69.6557 427.204 69.479 427.389 69.261C427.574 69.0429 427.711 68.7884 427.791 68.5139C427.871 68.2394 427.892 67.9511 427.854 67.6678C427.815 67.3846 427.717 67.1126 427.566 66.8697C427.538 66.8078 427.508 66.7492 427.474 66.6902ZM413.89 44.7478C413.586 44.3748 413.161 44.1211 412.689 44.0315C412.217 43.942 411.728 44.0223 411.309 44.2584L394.123 53.0149C393.841 53.1039 393.581 53.2533 393.363 53.4526C393.145 53.652 392.972 53.8966 392.858 54.1694C392.743 54.4422 392.69 54.7366 392.701 55.0321C392.712 55.3277 392.787 55.6174 392.921 55.8809C393.056 56.1444 393.246 56.3756 393.478 56.5582C393.711 56.7408 393.981 56.8706 394.269 56.9384C394.556 57.0062 394.856 57.0105 395.145 56.9509C395.435 56.8914 395.708 56.7694 395.946 56.5935L413.133 47.837C413.39 47.7133 413.619 47.5366 413.804 47.3186C413.989 47.1005 414.126 46.8459 414.206 46.5715C414.286 46.297 414.307 46.0087 414.269 45.7254C414.23 45.4421 414.132 45.1702 413.981 44.9273C413.953 44.8654 413.923 44.8068 413.89 44.7478ZM417.818 57.1785C417.514 56.8055 417.089 56.5517 416.617 56.4622C416.145 56.3726 415.656 56.4529 415.237 56.689L401.87 63.4996C401.588 63.5886 401.329 63.738 401.11 63.9374C400.892 64.1368 400.719 64.3813 400.605 64.6541C400.491 64.9269 400.437 65.2213 400.448 65.5169C400.459 65.8125 400.534 66.1021 400.669 66.3656C400.803 66.6292 400.993 66.8603 401.226 67.0429C401.458 67.2255 401.728 67.3553 402.016 67.4231C402.304 67.4909 402.603 67.4952 402.893 67.4357C403.182 67.3761 403.456 67.2541 403.693 67.0783L417.061 60.2676C417.318 60.1439 417.547 59.9672 417.732 59.7492C417.917 59.5311 418.054 59.2766 418.134 59.0021C418.214 58.7276 418.235 58.4393 418.197 58.156C418.158 57.8728 418.06 57.6008 417.909 57.358C417.881 57.2961 417.851 57.2374 417.818 57.1785ZM429.493 80.0938C429.19 79.7208 428.765 79.4671 428.292 79.3775C427.82 79.2879 427.331 79.3683 426.913 79.6044L413.545 86.415C413.264 86.5047 413.006 86.6545 412.788 86.8541C412.571 87.0536 412.399 87.2981 412.285 87.5705C412.172 87.843 412.119 88.1369 412.13 88.4319C412.141 88.7269 412.216 89.0159 412.35 89.279C412.484 89.542 412.674 89.7728 412.906 89.9553C413.138 90.1377 413.407 90.2676 413.694 90.3357C413.981 90.4039 414.28 90.4088 414.569 90.35C414.859 90.2913 415.132 90.1703 415.37 89.9955L428.737 83.1849C428.995 83.061 429.224 82.8841 429.409 82.6657C429.594 82.4472 429.731 82.1922 429.811 81.9173C429.891 81.6423 429.912 81.3536 429.873 81.07C429.834 80.7864 429.735 80.5143 429.583 80.2714C429.556 80.2108 429.526 80.1516 429.493 80.0938ZM405.242 41.9378C404.939 41.5648 404.513 41.3111 404.041 41.2215C403.569 41.132 403.08 41.2123 402.662 41.4484L396.933 44.3672C396.652 44.457 396.393 44.6068 396.176 44.8063C395.958 45.0058 395.786 45.2503 395.673 45.5227C395.559 45.7952 395.506 46.0891 395.517 46.3841C395.528 46.6791 395.604 46.9682 395.738 47.2312C395.872 47.4943 396.061 47.725 396.293 47.9075C396.525 48.09 396.794 48.2198 397.082 48.288C397.369 48.3561 397.667 48.361 397.957 48.3023C398.246 48.2435 398.519 48.1226 398.757 47.9478L404.486 45.0289C404.744 44.905 404.973 44.7281 405.158 44.5097C405.343 44.2913 405.48 44.0363 405.56 43.7613C405.64 43.4864 405.661 43.1977 405.622 42.9141C405.583 42.6304 405.484 42.3583 405.332 42.1154C405.305 42.0542 405.274 41.9943 405.241 41.9359L405.242 41.9378ZM416.917 64.8532C416.614 64.4802 416.189 64.2265 415.717 64.1369C415.244 64.0473 414.756 64.1277 414.337 64.3638L408.608 67.2826C408.326 67.3716 408.067 67.521 407.848 67.7203C407.63 67.9197 407.457 68.1643 407.343 68.4371C407.229 68.7098 407.175 69.0043 407.186 69.2998C407.197 69.5954 407.272 69.885 407.407 70.1486C407.541 70.4121 407.731 70.6432 407.964 70.8259C408.196 71.0085 408.466 71.1382 408.754 71.2061C409.042 71.2739 409.341 71.2782 409.631 71.2186C409.92 71.1591 410.194 71.0371 410.432 70.8612L416.16 67.9424C416.418 67.8186 416.647 67.642 416.832 67.4239C417.017 67.2059 417.154 66.9513 417.234 66.6768C417.314 66.4023 417.335 66.114 417.296 65.8308C417.258 65.5475 417.159 65.2756 417.009 65.0327C416.981 64.9708 416.951 64.9122 416.917 64.8532ZM428.593 87.7685C428.289 87.3955 427.864 87.1418 427.392 87.0522C426.92 86.9627 426.431 87.043 426.012 87.2791L420.284 90.1979C420.002 90.2877 419.744 90.4375 419.526 90.637C419.309 90.8365 419.137 91.081 419.023 91.3535C418.91 91.6259 418.857 91.9198 418.868 92.2148C418.879 92.5098 418.954 92.7989 419.088 93.0619C419.222 93.325 419.412 93.5558 419.644 93.7382C419.876 93.9207 420.145 94.0505 420.432 94.1187C420.72 94.1868 421.018 94.1917 421.308 94.133C421.597 94.0742 421.87 93.9533 422.108 93.7785L427.837 90.8596C428.095 90.7357 428.324 90.5588 428.509 90.3404C428.694 90.122 428.831 89.867 428.911 89.592C428.991 89.3171 429.012 89.0284 428.973 88.7448C428.933 88.4612 428.835 88.189 428.683 87.9461C428.656 87.8856 428.625 87.8263 428.593 87.7685Z" fill="#0E0D14"/>
<path d="M-13.337 641.759C-15.7333 636.62 -16.8393 631.565 -16.6552 626.593C-16.4221 621.599 -14.8859 617.099 -12.0465 613.094C-9.22999 609.039 -5.20341 605.791 0.0332414 603.349C4.53578 601.25 8.94828 600.235 13.2708 600.305C17.6194 600.303 21.6137 601.33 25.2538 603.386C28.9428 605.42 32.1128 608.321 34.7639 612.089L17.5858 620.1C16.004 618.752 14.2622 617.956 12.3603 617.71C10.4846 617.393 8.61692 617.668 6.75717 618.536C4.0165 619.814 2.31789 621.857 1.66135 624.666C1.05375 627.451 1.56011 630.582 3.18042 634.056C4.80074 637.531 6.8732 639.931 9.3978 641.256C11.9713 642.559 14.6284 642.571 17.3691 641.293C19.2289 640.426 20.6516 639.196 21.6372 637.605C22.649 635.941 23.1471 634.07 23.1314 631.992L40.3095 623.982C41.4924 628.435 41.6771 632.729 40.8636 636.862C40.099 640.972 38.3298 644.716 35.5558 648.095C32.808 651.402 29.1829 654.106 24.6803 656.205C19.4437 658.647 14.3787 659.668 9.48546 659.269C4.56937 658.821 0.123421 657.081 -3.85238 654.049C-7.77924 650.994 -10.9408 646.897 -13.337 641.759ZM81.1232 630.064C76.2292 632.346 71.1903 633.296 66.0067 632.913C60.872 632.507 56.1586 630.832 51.8663 627.888C47.574 624.944 44.2412 620.927 41.8678 615.837C39.4943 610.748 38.5596 605.613 39.0635 600.432C39.5674 595.252 41.3255 590.589 44.3378 586.444C47.3762 582.226 51.3424 578.977 56.2365 576.695C61.1306 574.412 66.1449 573.474 71.2796 573.88C76.3915 574.237 81.0691 575.899 85.3124 578.866C89.6047 581.81 92.9375 585.827 95.3109 590.916C97.6843 596.006 98.6191 601.141 98.1152 606.322C97.6602 611.479 95.9135 616.167 92.8751 620.384C89.8856 624.578 85.9684 627.805 81.1232 630.064ZM74.0372 614.868C77.2673 613.362 79.284 611.17 80.0874 608.293C80.8679 605.367 80.4366 602.142 78.7935 598.619C77.1275 595.046 74.9343 592.643 72.214 591.409C69.4708 590.126 66.4842 590.238 63.2541 591.744C59.9751 593.273 57.9453 595.5 57.1647 598.426C56.3614 601.303 56.7927 604.528 58.4586 608.101C60.1018 611.625 62.2949 614.028 65.0381 615.311C67.7585 616.545 70.7582 616.397 74.0372 614.868ZM163.257 591.139L146.96 598.739L117.522 580.649L129.708 606.783L113.411 614.383L89.1746 562.408L105.472 554.808L135.115 573.338L122.723 546.764L139.021 539.164L163.257 591.139ZM156.999 562.329C154.603 557.191 153.497 552.136 153.681 547.164C153.914 542.169 155.45 537.67 158.29 533.664C161.106 529.61 165.133 526.362 170.37 523.92C174.872 521.821 179.285 520.806 183.607 520.876C187.956 520.874 191.95 521.901 195.59 523.957C199.279 525.991 202.449 528.892 205.1 532.66L187.922 540.671C186.34 539.323 184.598 538.526 182.697 538.281C180.821 537.964 178.953 538.239 177.093 539.106C174.353 540.384 172.654 542.428 171.998 545.236C171.39 548.022 171.896 551.152 173.517 554.627C175.137 558.102 177.209 560.502 179.734 561.827C182.308 563.13 184.965 563.142 187.705 561.864C189.565 560.997 190.988 559.767 191.974 558.176C192.985 556.512 193.483 554.641 193.468 552.563L210.646 544.553C211.829 549.006 212.013 553.299 211.2 557.433C210.435 561.543 208.666 565.287 205.892 568.666C203.144 571.973 199.519 574.677 195.017 576.776C189.78 579.218 184.715 580.239 179.822 579.84C174.906 579.391 170.46 577.651 166.484 574.62C162.557 571.565 159.396 567.468 156.999 562.329Z" fill="#0E0D14"/>
<path d="M257.032 526.527C256.729 526.154 256.303 525.901 255.831 525.811C255.359 525.721 254.87 525.802 254.452 526.038L218.169 544.524C217.888 544.614 217.629 544.763 217.412 544.963C217.194 545.162 217.023 545.407 216.909 545.679C216.795 545.952 216.742 546.246 216.753 546.541C216.764 546.836 216.84 547.125 216.974 547.388C217.108 547.651 217.297 547.882 217.529 548.064C217.761 548.247 218.03 548.376 218.318 548.445C218.605 548.513 218.904 548.518 219.193 548.459C219.482 548.4 219.755 548.279 219.993 548.104L256.276 529.618C256.534 529.495 256.763 529.318 256.948 529.099C257.133 528.881 257.27 528.626 257.35 528.351C257.43 528.076 257.451 527.787 257.412 527.504C257.372 527.22 257.274 526.948 257.122 526.705C257.095 526.644 257.065 526.585 257.032 526.527ZM243.447 504.585C243.144 504.212 242.718 503.958 242.246 503.869C241.774 503.779 241.285 503.859 240.867 504.095L208.403 520.636C208.122 520.725 207.864 520.875 207.646 521.075C207.428 521.274 207.257 521.519 207.143 521.791C207.029 522.063 206.976 522.357 206.988 522.652C206.999 522.947 207.074 523.236 207.208 523.5C207.342 523.763 207.532 523.993 207.764 524.176C207.996 524.358 208.265 524.488 208.552 524.556C208.839 524.624 209.138 524.629 209.427 524.571C209.717 524.512 209.99 524.391 210.228 524.216L242.691 507.676C242.949 507.552 243.178 507.375 243.363 507.157C243.548 506.938 243.685 506.683 243.765 506.408C243.845 506.133 243.866 505.845 243.827 505.561C243.788 505.278 243.689 505.005 243.537 504.762C243.51 504.702 243.48 504.643 243.447 504.585ZM246.474 524.69C246.171 524.317 245.746 524.064 245.274 523.974C244.802 523.884 244.313 523.965 243.894 524.201L222.889 534.903C222.607 534.992 222.347 535.142 222.129 535.341C221.91 535.54 221.738 535.785 221.623 536.058C221.509 536.33 221.456 536.625 221.467 536.92C221.478 537.216 221.553 537.506 221.687 537.769C221.821 538.033 222.011 538.264 222.244 538.446C222.477 538.629 222.746 538.759 223.034 538.827C223.322 538.894 223.621 538.899 223.911 538.839C224.201 538.78 224.474 538.658 224.712 538.482L245.718 527.779C245.975 527.656 246.204 527.479 246.389 527.261C246.574 527.043 246.711 526.788 246.791 526.514C246.871 526.239 246.892 525.951 246.854 525.668C246.815 525.385 246.717 525.113 246.566 524.87C246.538 524.808 246.508 524.749 246.474 524.69ZM232.89 502.748C232.586 502.375 232.161 502.121 231.689 502.032C231.217 501.942 230.728 502.022 230.309 502.258L213.123 511.015C212.841 511.104 212.581 511.253 212.363 511.453C212.145 511.652 211.972 511.897 211.858 512.169C211.743 512.442 211.69 512.737 211.701 513.032C211.712 513.328 211.787 513.617 211.921 513.881C212.056 514.144 212.246 514.376 212.478 514.558C212.711 514.741 212.981 514.871 213.269 514.938C213.556 515.006 213.856 515.01 214.145 514.951C214.435 514.891 214.708 514.769 214.946 514.594L232.133 505.837C232.39 505.713 232.619 505.537 232.804 505.319C232.989 505.101 233.126 504.846 233.206 504.571C233.286 504.297 233.307 504.009 233.269 503.725C233.23 503.442 233.132 503.17 232.981 502.927C232.953 502.865 232.923 502.807 232.89 502.748ZM236.818 515.178C236.514 514.805 236.089 514.552 235.617 514.462C235.145 514.373 234.656 514.453 234.237 514.689L220.87 521.5C220.588 521.589 220.329 521.738 220.11 521.937C219.892 522.137 219.719 522.381 219.605 522.654C219.491 522.927 219.437 523.221 219.448 523.517C219.459 523.812 219.534 524.102 219.669 524.366C219.803 524.629 219.993 524.86 220.226 525.043C220.458 525.226 220.728 525.355 221.016 525.423C221.304 525.491 221.603 525.495 221.893 525.436C222.182 525.376 222.456 525.254 222.693 525.078L236.061 518.268C236.318 518.144 236.547 517.967 236.732 517.749C236.917 517.531 237.054 517.277 237.134 517.002C237.214 516.728 237.235 516.439 237.197 516.156C237.158 515.873 237.06 515.601 236.909 515.358C236.881 515.296 236.851 515.237 236.818 515.178ZM248.493 538.094C248.19 537.721 247.765 537.467 247.292 537.378C246.82 537.288 246.331 537.368 245.913 537.604L232.545 544.415C232.264 544.505 232.006 544.655 231.788 544.854C231.571 545.054 231.399 545.298 231.285 545.571C231.172 545.843 231.119 546.137 231.13 546.432C231.141 546.727 231.216 547.016 231.35 547.279C231.484 547.542 231.674 547.773 231.906 547.955C232.138 548.138 232.407 548.268 232.694 548.336C232.981 548.404 233.28 548.409 233.569 548.35C233.859 548.291 234.132 548.17 234.37 547.996L247.737 541.185C247.995 541.061 248.224 540.884 248.409 540.666C248.594 540.447 248.731 540.192 248.811 539.917C248.891 539.642 248.912 539.354 248.873 539.07C248.834 538.786 248.735 538.514 248.583 538.271C248.556 538.211 248.526 538.152 248.493 538.094ZM224.242 499.938C223.939 499.565 223.513 499.311 223.041 499.222C222.569 499.132 222.08 499.212 221.662 499.448L215.933 502.367C215.652 502.457 215.393 502.607 215.176 502.806C214.958 503.006 214.786 503.25 214.673 503.523C214.559 503.795 214.506 504.089 214.517 504.384C214.528 504.679 214.604 504.968 214.738 505.231C214.872 505.494 215.061 505.725 215.293 505.908C215.525 506.09 215.794 506.22 216.082 506.288C216.369 506.356 216.667 506.361 216.957 506.302C217.246 506.244 217.519 506.123 217.757 505.948L223.486 503.029C223.744 502.905 223.973 502.728 224.158 502.51C224.343 502.291 224.48 502.036 224.56 501.761C224.64 501.486 224.661 501.198 224.622 500.914C224.583 500.63 224.484 500.358 224.332 500.115C224.305 500.054 224.274 499.994 224.241 499.936L224.242 499.938ZM235.917 522.853C235.614 522.48 235.189 522.226 234.717 522.137C234.244 522.047 233.756 522.128 233.337 522.364L227.608 525.283C227.326 525.372 227.067 525.521 226.848 525.72C226.63 525.92 226.457 526.164 226.343 526.437C226.229 526.71 226.175 527.004 226.186 527.3C226.197 527.595 226.272 527.885 226.407 528.149C226.541 528.412 226.731 528.643 226.964 528.826C227.196 529.008 227.466 529.138 227.754 529.206C228.042 529.274 228.341 529.278 228.631 529.219C228.92 529.159 229.194 529.037 229.432 528.861L235.16 525.942C235.418 525.819 235.647 525.642 235.832 525.424C236.017 525.206 236.154 524.951 236.234 524.677C236.314 524.402 236.335 524.114 236.296 523.831C236.258 523.547 236.159 523.276 236.009 523.033C235.981 522.971 235.951 522.912 235.917 522.853ZM247.593 545.769C247.289 545.396 246.864 545.142 246.392 545.052C245.92 544.963 245.431 545.043 245.012 545.279L239.284 548.198C239.002 548.288 238.744 548.437 238.526 548.637C238.309 548.837 238.137 549.081 238.023 549.353C237.91 549.626 237.857 549.92 237.868 550.215C237.879 550.51 237.954 550.799 238.088 551.062C238.222 551.325 238.412 551.556 238.644 551.738C238.876 551.921 239.145 552.051 239.432 552.119C239.72 552.187 240.018 552.192 240.308 552.133C240.597 552.074 240.87 551.953 241.108 551.778L246.837 548.86C247.095 548.736 247.324 548.559 247.509 548.34C247.694 548.122 247.831 547.867 247.911 547.592C247.991 547.317 248.012 547.028 247.973 546.745C247.933 546.461 247.835 546.189 247.683 545.946C247.656 545.886 247.625 545.826 247.593 545.769Z" fill="#0E0D14"/>
<path d="M298.703 527.269L280.244 513.176L280.171 513.21L288.865 531.856L272.568 539.456L248.332 487.481L272.558 476.184C276.766 474.221 280.717 473.303 284.41 473.428C288.08 473.504 291.254 474.497 293.932 476.406C296.636 478.243 298.741 480.777 300.247 484.007C301.867 487.482 302.326 491.021 301.624 494.626C300.97 498.208 299.107 501.43 296.033 504.294L316.615 518.916L298.703 527.269ZM275.104 502.345L281.564 499.333C283.13 498.602 284.145 497.712 284.609 496.662C285.05 495.562 284.916 494.254 284.209 492.737C283.57 491.367 282.652 490.484 281.455 490.089C280.306 489.671 278.974 489.816 277.456 490.523L270.996 493.536L275.104 502.345ZM338.328 445.515L344.353 458.435L330.552 464.871L348.763 503.925L332.466 511.525L314.254 472.47L300.6 478.837L294.575 465.917L338.328 445.515ZM387.559 486.46C381.343 489.359 375.531 490.311 370.123 489.318C364.74 488.253 360.566 484.986 357.599 479.517L374.924 471.439C376.561 474.31 378.578 475.186 380.976 474.068C381.857 473.657 382.5 473.119 382.905 472.454C383.335 471.717 383.345 470.908 382.935 470.027C382.364 468.803 381.247 468.133 379.583 468.015C377.897 467.848 375.43 467.925 372.184 468.247C368.309 468.625 365.007 468.764 362.28 468.665C359.602 468.544 356.977 467.772 354.407 466.348C351.837 464.925 349.789 462.514 348.263 459.114C346.689 455.737 346.21 452.475 346.827 449.327C347.471 446.107 349 443.19 351.415 440.574C353.879 437.936 356.995 435.738 360.763 433.981C367.126 431.014 372.851 430.131 377.94 431.333C383.078 432.513 386.988 435.724 389.672 440.967L372.126 449.148C371.393 447.703 370.535 446.822 369.553 446.505C368.571 446.189 367.591 446.258 366.612 446.715C365.927 447.034 365.478 447.541 365.266 448.236C365.031 448.882 365.107 449.621 365.495 450.453C366.043 451.628 367.136 452.31 368.773 452.499C370.437 452.617 372.939 452.553 376.28 452.306C380.129 452 383.369 451.92 385.998 452.064C388.677 452.186 391.267 452.885 393.768 454.161C396.27 455.437 398.228 457.592 399.643 460.627C401.127 463.808 401.679 467.036 401.299 470.311C400.897 473.537 399.534 476.556 397.211 479.368C394.887 482.179 391.67 484.543 387.559 486.46Z" fill="#0E0D14"/>
<path d="M-17.4744 293.72L-32.4622 300.668L-31.5043 308.48L-46.3016 315.339L-50.899 262.845L-34.6411 255.308L2.78977 292.581L-12.071 299.471L-17.4744 293.72ZM-25.8681 284.726L-35.7885 274.125L-33.997 288.495L-25.8681 284.726ZM-1.27177 239.838L10.5888 265.125C11.5599 267.195 12.7773 268.637 14.2411 269.45C15.7274 270.201 17.4867 270.106 19.5189 269.163C21.5512 268.221 22.7768 266.933 23.1957 265.299C23.5948 263.622 23.3088 261.748 22.3377 259.678L10.4771 234.392L24.5123 227.885L36.3729 253.172C38.3745 257.439 39.1995 261.506 38.8482 265.372C38.477 269.196 37.1027 272.585 34.7254 275.539C32.3482 278.493 29.2543 280.853 25.4438 282.619C21.6334 284.386 17.8896 285.196 14.2125 285.048C10.5777 284.882 7.23121 283.681 4.17299 281.447C1.11477 279.213 -1.42501 275.941 -3.44637 271.631L-15.307 246.345L-1.27177 239.838ZM49.3279 216.381C54.0275 214.202 58.5802 213.249 62.9861 213.521C67.4343 213.774 71.4037 215.148 74.8943 217.645C78.3849 220.142 81.1409 223.545 83.1622 227.855C85.1638 232.122 86.0145 236.408 85.7145 240.714C85.4144 245.019 83.9519 248.989 81.3269 252.624C78.7244 256.196 75.0734 259.072 70.3738 261.25L51.639 269.936L30.5932 225.066L49.3279 216.381ZM63.2179 249.291C66.3933 247.819 68.5062 245.785 69.5566 243.189C70.607 240.593 70.3791 237.69 68.873 234.479C67.3669 231.268 65.2761 229.228 62.6007 228.359C59.9253 227.491 57 227.792 53.8246 229.265L50.4587 230.825L59.852 250.851L63.2179 249.291ZM91.8885 196.651L112.934 241.52L98.8356 248.056L77.7898 203.187L91.8885 196.651Z" fill="#0E0D14"/>
<path d="M131.912 198.771C130.127 198.771 128.416 199.475 127.154 200.73C125.893 201.984 125.184 203.685 125.184 205.459C125.184 207.233 125.893 208.934 127.154 210.189C128.416 211.443 130.127 212.148 131.912 212.148C133.696 212.148 135.407 211.443 136.669 210.189C137.931 208.934 138.64 207.233 138.64 205.459C138.64 203.685 137.931 201.984 136.669 200.73C135.407 199.475 133.696 198.771 131.912 198.771ZM131.912 208.803C131.019 208.803 130.164 208.451 129.533 207.824C128.902 207.197 128.548 206.346 128.548 205.459C128.548 204.572 128.902 203.722 129.533 203.094C130.164 202.467 131.019 202.115 131.912 202.115C132.804 202.115 133.659 202.467 134.29 203.094C134.921 203.722 135.276 204.572 135.276 205.459C135.276 206.346 134.921 207.197 134.29 207.824C133.659 208.451 132.804 208.803 131.912 208.803Z" fill="#0E0D14"/>
<path d="M158.823 205.459C158.823 212.555 155.988 219.36 150.941 224.377C145.894 229.395 139.049 232.213 131.912 232.213C124.774 232.213 117.929 229.395 112.882 224.377C107.835 219.36 105 212.555 105 205.459C105 198.363 107.835 191.558 112.882 186.541C117.929 181.523 124.774 178.705 131.912 178.705C139.049 178.705 145.894 181.523 150.941 186.541C155.988 191.558 158.823 198.363 158.823 205.459ZM118.456 205.459C118.456 209.007 119.873 212.409 122.397 214.918C124.92 217.427 128.343 218.836 131.912 218.836C135.48 218.836 138.903 217.427 141.426 214.918C143.95 212.409 145.367 209.007 145.367 205.459C145.367 201.911 143.95 198.509 141.426 196C138.903 193.491 135.48 192.082 131.912 192.082C128.343 192.082 124.92 193.491 122.397 196C119.873 198.509 118.456 201.911 118.456 205.459Z" fill="#0E0D14"/>
<path d="M14.5256 725.72L-0.462242 732.668L0.495652 740.48L-14.3016 747.339L-18.899 694.845L-2.64106 687.308L34.7898 724.581L19.929 731.471L14.5256 725.72ZM6.13194 716.726L-3.78853 706.125L-1.99704 720.495L6.13194 716.726ZM30.7282 671.838L42.5888 697.125C43.5599 699.195 44.7773 700.637 46.2411 701.45C47.7274 702.201 49.4867 702.106 51.5189 701.163C53.5512 700.221 54.7768 698.933 55.1957 697.299C55.5948 695.622 55.3088 693.748 54.3377 691.678L42.4771 666.392L56.5123 659.885L68.3729 685.172C70.3745 689.439 71.1995 693.506 70.8482 697.372C70.477 701.196 69.1027 704.585 66.7254 707.539C64.3482 710.493 61.2543 712.853 57.4438 714.619C53.6334 716.386 49.8896 717.196 46.2125 717.048C42.5777 716.882 39.2312 715.681 36.173 713.447C33.1148 711.213 30.575 707.941 28.5536 703.631L16.693 678.345L30.7282 671.838ZM81.3279 648.381C86.0275 646.202 90.5802 645.249 94.9861 645.521C99.4343 645.774 103.404 647.148 106.894 649.645C110.385 652.142 113.141 655.545 115.162 659.855C117.164 664.122 118.015 668.408 117.714 672.714C117.414 677.019 115.952 680.989 113.327 684.624C110.724 688.196 107.073 691.072 102.374 693.25L83.639 701.936L62.5932 657.066L81.3279 648.381ZM95.2179 681.291C98.3933 679.819 100.506 677.785 101.557 675.189C102.607 672.593 102.379 669.69 100.873 666.479C99.3669 663.268 97.2761 661.228 94.6007 660.359C91.9253 659.491 89 659.792 85.8246 661.265L82.4587 662.825L91.852 682.851L95.2179 681.291ZM123.888 628.651L144.934 673.52L130.836 680.056L109.79 635.187L123.888 628.651Z" fill="#0E0D14"/>
<path d="M163.912 630.771C162.127 630.771 160.416 631.475 159.154 632.73C157.893 633.984 157.184 635.685 157.184 637.459C157.184 639.233 157.893 640.934 159.154 642.189C160.416 643.443 162.127 644.148 163.912 644.148C165.696 644.148 167.407 643.443 168.669 642.189C169.931 640.934 170.64 639.233 170.64 637.459C170.64 635.685 169.931 633.984 168.669 632.73C167.407 631.475 165.696 630.771 163.912 630.771ZM163.912 640.803C163.019 640.803 162.164 640.451 161.533 639.824C160.902 639.197 160.548 638.346 160.548 637.459C160.548 636.572 160.902 635.722 161.533 635.094C162.164 634.467 163.019 634.115 163.912 634.115C164.804 634.115 165.659 634.467 166.29 635.094C166.921 635.722 167.276 636.572 167.276 637.459C167.276 638.346 166.921 639.197 166.29 639.824C165.659 640.451 164.804 640.803 163.912 640.803Z" fill="#0E0D14"/>
<path d="M190.823 637.459C190.823 644.555 187.988 651.36 182.941 656.377C177.894 661.395 171.049 664.213 163.912 664.213C156.774 664.213 149.929 661.395 144.882 656.377C139.835 651.36 137 644.555 137 637.459C137 630.363 139.835 623.558 144.882 618.541C149.929 613.523 156.774 610.705 163.912 610.705C171.049 610.705 177.894 613.523 182.941 618.541C187.988 623.558 190.823 630.363 190.823 637.459ZM150.456 637.459C150.456 641.007 151.873 644.409 154.397 646.918C156.92 649.427 160.343 650.836 163.912 650.836C167.48 650.836 170.903 649.427 173.426 646.918C175.95 644.409 177.367 641.007 177.367 637.459C177.367 633.911 175.95 630.509 173.426 628C170.903 625.491 167.48 624.082 163.912 624.082C160.343 624.082 156.92 625.491 154.397 628C151.873 630.509 150.456 633.911 150.456 637.459Z" fill="#0E0D14"/>
<path d="M5.65372 522.481L9.81047 531.294L32.0959 520.783L40.075 537.699L17.7895 548.211L22.5674 558.34L47.8918 546.396L56.3486 564.325L8.53619 586.877L-25.2912 515.158L22.5213 492.607L30.9781 510.536L5.65372 522.481ZM103.221 454.543L112.94 537.633L83.8675 551.346L25.9314 490.998L49.8376 479.723L87.8953 522.079L79.3152 465.819L103.221 454.543ZM139.2 459.492L143.357 468.304L165.642 457.793L173.622 474.71L151.336 485.221L156.114 495.351L181.438 483.406L189.895 501.336L142.083 523.887L108.255 452.169L156.068 429.617L164.525 447.547L139.2 459.492ZM267.151 464.897L244.663 475.504L203.849 450.67L220.858 486.732L198.37 497.338L164.543 425.62L187.031 415.013L228.132 440.455L210.836 403.785L233.324 393.178L267.151 464.897Z" fill="#0E0D14"/>
<path d="M303.233 370.857L295.308 353.863C296.1 351.089 297.724 348.623 299.959 346.799C302.194 344.974 304.935 343.878 307.812 343.658C310.689 343.437 313.564 344.103 316.051 345.565C318.539 347.028 320.519 349.217 321.725 351.838C322.956 354.446 323.363 357.368 322.889 360.213C322.415 363.059 321.084 365.691 319.073 367.759C317.062 369.827 314.468 371.232 311.638 371.786C308.807 372.339 305.875 372.015 303.233 370.857ZM248.16 378.388L289.869 358.896L295.875 371.73L254.153 391.255L248.193 378.4L248.16 378.388ZM240.086 386.119L249.666 381.607L252.68 388.047L243.066 392.546L240.052 386.107L240.086 386.119Z" fill="#0E0D14"/>
<path d="M292.726 457.661L261.997 389.883L273.319 385.242L304.534 451.26L292.726 457.661Z" fill="#0E0D14"/>
<path d="M392.012 407.194C382.859 411.604 374.267 413.124 366.237 411.754C358.243 410.277 351.998 405.516 347.5 397.471L373.013 385.179C375.491 389.401 378.497 390.662 382.028 388.96C383.325 388.335 384.267 387.526 384.854 386.533C385.479 385.433 385.478 384.234 384.853 382.937C383.985 381.135 382.318 380.162 379.851 380.019C377.35 379.803 373.698 379.965 368.895 380.503C363.161 381.134 358.273 381.403 354.231 381.308C350.261 381.178 346.359 380.083 342.525 378.023C338.691 375.963 335.612 372.43 333.288 367.422C330.892 362.449 330.121 357.625 330.977 352.951C331.87 348.169 334.081 343.818 337.609 339.898C341.209 335.943 345.784 332.629 351.333 329.955C360.702 325.441 369.167 324.026 376.728 325.711C384.361 327.362 390.214 332.045 394.288 339.762L368.451 352.211C367.337 350.084 366.05 348.795 364.589 348.344C363.129 347.893 361.678 348.015 360.236 348.71C359.227 349.196 358.572 349.955 358.271 350.989C357.935 351.95 358.062 353.043 358.652 354.268C359.486 355.998 361.117 356.988 363.547 357.238C366.013 357.382 369.719 357.239 374.663 356.811C380.36 356.286 385.157 356.106 389.055 356.27C393.024 356.4 396.874 357.386 400.604 359.23C404.334 361.074 407.276 364.23 409.429 368.698C411.686 373.383 412.564 378.154 412.064 383.013C411.528 387.8 409.566 392.298 406.177 396.506C402.788 400.714 398.066 404.277 392.012 407.194Z" fill="#0E0D14"/>
<path d="M20.5363 816.678L24.1547 824.59L44.1617 815.44L51.1072 830.627L31.1002 839.777L35.2592 848.871L57.9945 838.474L65.3559 854.57L22.4317 874.201L-7.01403 809.814L35.9101 790.184L43.2716 806.281L20.5363 816.678ZM108.36 757.051L116.161 831.335L90.0613 843.272L38.9716 788.784L60.4337 778.969L93.9654 817.185L86.8975 766.866L108.36 757.051ZM140.429 761.847L144.048 769.759L164.055 760.609L171 775.797L150.993 784.946L155.152 794.041L177.887 783.643L185.249 799.74L142.325 819.37L112.879 754.984L155.803 735.353L163.165 751.45L140.429 761.847ZM254.606 768.02L234.417 777.253L198.24 754.652L213.046 787.027L192.857 796.26L163.412 731.874L183.6 722.641L220.027 745.788L204.972 712.867L225.161 703.634L254.606 768.02Z" fill="#0E0D14"/>
<path d="M284.741 685.725L278.053 670.931C278.767 668.536 280.198 666.418 282.152 664.862C284.106 663.305 286.49 662.384 288.983 662.222C291.476 662.06 293.959 662.666 296.098 663.958C298.236 665.25 299.928 667.165 300.946 669.447C301.986 671.718 302.307 674.252 301.868 676.71C301.429 679.169 300.249 681.435 298.487 683.205C296.725 684.975 294.465 686.165 292.008 686.615C289.552 687.065 287.016 686.755 284.741 685.725ZM236.98 691.683L273.292 675.233L278.361 686.406L242.038 702.885L237.008 691.694L236.98 691.683ZM229.91 698.294L238.251 694.486L240.795 700.093L232.425 703.89L229.881 698.284L229.91 698.294Z" fill="#0E0D14"/>
<path d="M274.757 760.775L248.843 701.778L258.693 697.875L285.046 755.353L274.757 760.775Z" fill="#0E0D14"/>
<path d="M356.007 717.756C348.337 721.341 341.162 722.523 334.484 721.303C327.838 719.994 322.68 715.965 319.011 709.217L340.392 699.225C342.415 702.768 344.907 703.847 347.866 702.464C348.954 701.956 349.747 701.291 350.245 700.469C350.777 699.559 350.788 698.56 350.28 697.473C349.574 695.963 348.194 695.136 346.14 694.992C344.058 694.788 341.013 694.887 337.006 695.288C332.222 695.758 328.146 695.933 324.779 695.814C321.472 695.667 318.232 694.717 315.057 692.963C311.882 691.208 309.351 688.234 307.464 684.038C305.516 679.871 304.922 675.844 305.681 671.957C306.472 667.981 308.357 664.377 311.335 661.146C314.374 657.886 318.219 655.169 322.869 652.995C330.721 649.326 337.788 648.23 344.072 649.709C350.416 651.159 355.247 655.119 358.566 661.589L336.914 671.709C336.007 669.925 334.947 668.838 333.734 668.448C332.522 668.058 331.312 668.146 330.104 668.71C329.258 669.105 328.705 669.732 328.443 670.59C328.154 671.388 328.249 672.3 328.729 673.327C329.406 674.776 330.756 675.617 332.778 675.849C334.832 675.993 337.921 675.911 342.045 675.602C346.797 675.221 350.797 675.118 354.043 675.293C357.349 675.44 360.548 676.3 363.638 677.873C366.728 679.446 369.148 682.105 370.898 685.85C372.733 689.775 373.418 693.76 372.953 697.804C372.46 701.787 370.781 705.516 367.915 708.989C365.049 712.463 361.08 715.385 356.007 717.756Z" fill="#0E0D14"/>
<path d="M82.656 292.173C81.8985 291.676 81.0358 291.431 80.0678 291.438C79.0843 291.411 78.0276 291.661 76.8978 292.188C74.771 293.179 73.4514 294.644 72.9392 296.582C72.4114 298.487 72.7054 300.636 73.8211 303.029C75.1073 305.787 76.716 307.545 78.6474 308.303C80.5787 309.061 82.8903 308.813 85.582 307.558C88.1408 306.364 89.7208 304.373 90.3219 301.585L81.499 305.699L77.8497 297.873L95.8444 289.482L101.005 300.548C100.7 303.886 99.6437 307.13 97.8352 310.279C96.0113 313.395 93.0389 315.914 88.9183 317.836C85.2628 319.54 81.724 320.28 78.3017 320.055C74.8971 319.782 71.8284 318.624 69.0956 316.58C66.396 314.522 64.2326 311.748 62.6055 308.258C60.9785 304.769 60.244 301.329 60.4023 297.938C60.5938 294.531 61.6868 291.452 63.6812 288.702C65.6601 285.918 68.4607 283.681 72.0829 281.992C76.702 279.838 80.9763 279.201 84.9056 280.079C88.8682 280.942 92.0064 283.16 94.3201 286.734L82.656 292.173ZM125.53 257.494L141.986 292.786L130.92 297.946L124.505 284.188L113.987 289.093L120.403 302.851L109.337 308.011L92.8799 272.719L103.946 267.559L109.873 280.27L120.391 275.366L114.464 262.655L125.53 257.494ZM158.223 242.249L162.314 251.022L152.943 255.392L165.309 281.911L154.243 287.071L141.877 260.552L132.606 264.876L128.515 256.103L158.223 242.249ZM191.652 270.052C187.431 272.019 183.485 272.666 179.813 271.992C176.158 271.269 173.323 269.05 171.308 265.337L183.072 259.852C184.184 261.801 185.554 262.396 187.182 261.637C187.78 261.358 188.217 260.993 188.491 260.541C188.784 260.041 188.791 259.491 188.512 258.893C188.124 258.062 187.366 257.607 186.236 257.527C185.091 257.413 183.416 257.466 181.212 257.685C178.581 257.941 176.339 258.036 174.487 257.969C172.668 257.886 170.887 257.362 169.141 256.395C167.396 255.429 166.006 253.792 164.97 251.483C163.9 249.19 163.575 246.975 163.995 244.838C164.432 242.651 165.47 240.67 167.11 238.894C168.783 237.103 170.899 235.61 173.457 234.417C177.777 232.403 181.665 231.803 185.12 232.62C188.609 233.42 191.264 235.601 193.086 239.161L181.173 244.716C180.675 243.735 180.092 243.137 179.426 242.922C178.759 242.707 178.093 242.754 177.429 243.064C176.963 243.281 176.659 243.625 176.515 244.097C176.355 244.536 176.407 245.037 176.67 245.602C177.042 246.4 177.784 246.863 178.896 246.992C180.026 247.072 181.725 247.028 183.993 246.86C186.607 246.653 188.807 246.598 190.592 246.696C192.411 246.779 194.169 247.253 195.868 248.12C197.567 248.986 198.897 250.45 199.857 252.51C200.865 254.67 201.239 256.862 200.982 259.086C200.709 261.277 199.783 263.327 198.205 265.236C196.628 267.145 194.443 268.75 191.652 270.052Z" fill="#0E0D14"/>
<path d="M22.4331 334.605L33.1003 329.631L37.0053 338.005L15.2721 348.139L-1.18469 312.848L9.88132 307.687L22.4331 334.605Z" fill="#0E0D14"/>
<path d="M54.9094 330.799C57.1847 329.582 59.0306 327.695 60.1969 325.393C61.3631 323.091 61.7933 320.487 61.4289 317.932C61.0646 315.378 59.9234 312.997 58.1601 311.113C56.3969 309.23 54.0969 307.934 51.5721 307.401C50.8533 307.248 50.2503 306.942 49.8477 306.488L48.4594 304.93L36.9716 311.073L37.4984 313.093C37.6521 313.679 37.5724 314.351 37.3004 315.034C36.3414 317.429 36.1423 320.062 36.7304 322.575C37.3184 325.087 38.665 327.358 40.5875 329.079C42.51 330.8 44.9154 331.889 47.4774 332.196C50.0394 332.504 52.634 332.016 54.9094 330.799ZM36.4278 308.987L47.0271 303.318L45.5872 301.699C44.9098 300.936 43.9955 300.424 42.9916 300.245C41.9878 300.065 40.9527 300.229 40.0531 300.709L38.1331 301.736C37.2335 302.217 36.5221 302.987 36.1136 303.922C35.7051 304.857 35.6232 305.902 35.8813 306.889L36.4278 308.987Z" fill="#0E0D14"/>
<path d="M38.4828 300.102L33.3809 290.482" stroke="#0E0D14"/>
<path d="M259.846 579.169C259.295 578.808 258.667 578.63 257.963 578.634C257.248 578.615 256.48 578.796 255.658 579.18C254.111 579.901 253.152 580.966 252.779 582.376C252.395 583.761 252.609 585.324 253.42 587.064C254.356 589.07 255.526 590.349 256.93 590.9C258.335 591.451 260.016 591.271 261.974 590.358C263.835 589.49 264.984 588.042 265.421 586.014L259.004 589.006L256.35 583.314L269.437 577.212L273.19 585.26C272.969 587.688 272.2 590.047 270.885 592.337C269.559 594.603 267.397 596.435 264.4 597.833C261.742 599.072 259.168 599.61 256.679 599.447C254.203 599.248 251.971 598.406 249.984 596.92C248.02 595.423 246.447 593.405 245.264 590.868C244.08 588.33 243.546 585.828 243.661 583.361C243.801 580.884 244.595 578.645 246.046 576.644C247.485 574.62 249.522 572.993 252.156 571.765C255.516 570.198 258.624 569.734 261.482 570.373C264.364 571.001 266.646 572.614 268.329 575.213L259.846 579.169ZM291.027 553.948L302.995 579.615L294.947 583.368L290.281 573.362L282.632 576.929L287.298 586.935L279.25 590.687L267.281 565.021L275.329 561.268L279.64 570.512L287.289 566.945L282.979 557.701L291.027 553.948ZM314.804 542.861L317.779 549.241L310.964 552.419L319.957 571.705L311.909 575.458L302.916 556.172L296.173 559.316L293.197 552.936L314.804 542.861ZM339.115 563.081C336.046 564.512 333.176 564.982 330.505 564.492C327.847 563.966 325.785 562.353 324.32 559.652L332.876 555.663C333.684 557.08 334.68 557.513 335.865 556.961C336.3 556.758 336.617 556.493 336.817 556.164C337.03 555.8 337.035 555.4 336.832 554.965C336.55 554.361 335.998 554.03 335.177 553.972C334.344 553.889 333.126 553.928 331.523 554.087C329.609 554.273 327.979 554.342 326.632 554.293C325.309 554.233 324.013 553.852 322.744 553.149C321.475 552.446 320.464 551.255 319.71 549.576C318.933 547.909 318.696 546.298 319.001 544.743C319.319 543.153 320.074 541.712 321.267 540.421C322.483 539.118 324.022 538.032 325.883 537.165C329.025 535.7 331.852 535.264 334.365 535.857C336.903 536.44 338.834 538.026 340.159 540.615L331.494 544.655C331.132 543.941 330.709 543.506 330.224 543.35C329.739 543.193 329.255 543.228 328.771 543.453C328.433 543.611 328.211 543.861 328.107 544.205C327.991 544.524 328.028 544.888 328.22 545.299C328.49 545.879 329.03 546.216 329.839 546.31C330.66 546.368 331.896 546.336 333.546 546.214C335.447 546.063 337.046 546.024 338.345 546.095C339.667 546.155 340.946 546.5 342.182 547.13C343.417 547.761 344.384 548.825 345.083 550.323C345.816 551.894 346.088 553.488 345.901 555.106C345.702 556.699 345.029 558.19 343.882 559.578C342.734 560.966 341.146 562.134 339.115 563.081Z" fill="#0E0D14"/>
<path d="M215.616 612.206L223.374 608.588L226.214 614.678L210.408 622.049L198.439 596.382L206.487 592.629L215.616 612.206Z" fill="#0E0D14"/>
<path d="M240.097 609.608C241.88 608.654 243.328 607.174 244.242 605.37C245.156 603.565 245.493 601.523 245.208 599.521C244.922 597.518 244.028 595.652 242.645 594.175C241.263 592.698 239.46 591.682 237.48 591.265C236.917 591.145 236.444 590.904 236.128 590.549L235.04 589.327L226.034 594.143L226.447 595.727C226.567 596.187 226.505 596.713 226.291 597.248C225.54 599.127 225.383 601.19 225.844 603.16C226.305 605.13 227.361 606.91 228.868 608.26C230.376 609.609 232.261 610.462 234.27 610.704C236.279 610.945 238.313 610.562 240.097 609.608ZM225.607 592.508L233.917 588.064L232.788 586.794C232.257 586.196 231.54 585.795 230.753 585.654C229.966 585.513 229.155 585.641 228.449 586.018L226.944 586.823C226.239 587.2 225.681 587.804 225.361 588.537C225.041 589.27 224.977 590.089 225.179 590.863L225.607 592.508Z" fill="#0E0D14"/>
<path d="M227.218 585.541L223.219 578" stroke="#0E0D14"/>
<path d="M268.133 237.238C273.151 236.189 277.673 236.748 281.696 238.917C285.757 240.982 288.793 244.171 290.804 248.483C293.87 255.058 294.052 261.169 291.35 266.818C288.686 272.364 283.289 277.032 275.16 280.823L235.82 299.167L200.812 224.093L239.091 206.242C246.726 202.682 253.51 201.542 259.442 202.82C265.374 204.099 269.824 207.92 272.79 214.282C274.834 218.665 275.398 222.92 274.483 227.048C273.605 231.072 271.489 234.468 268.133 237.238ZM237.999 242.382L247.119 238.13C249.239 237.141 250.597 235.991 251.191 234.681C251.856 233.339 251.776 231.784 250.952 230.016C250.095 228.178 248.938 227.082 247.482 226.729C246.064 226.271 244.295 226.537 242.174 227.526L233.055 231.778L237.999 242.382ZM261.268 264.322C263.389 263.333 264.763 262.219 265.39 260.979C266.055 259.637 265.959 258.046 265.102 256.208C263.421 252.603 260.495 251.773 256.324 253.718L245.614 258.712L250.559 269.316L261.268 264.322ZM351.157 231.572L326.132 243.241L327.712 256.318L303.005 267.839L295.461 179.957L322.606 167.299L384.972 229.617L360.159 241.187L351.157 231.572ZM337.173 216.533L320.646 198.808L323.601 222.862L337.173 216.533ZM462.32 193.549L438.78 204.526L396.258 178.396L413.861 216.146L390.32 227.123L355.312 152.048L378.853 141.071L421.671 167.836L403.772 129.451L427.312 118.474L462.32 193.549Z" fill="#0E0D14"/>
<path d="M4.68159 395.687C3.49826 393.149 2.95207 390.653 3.043 388.198C3.15811 385.731 3.91674 383.509 5.31889 381.531C6.70976 379.529 8.6982 377.925 11.2842 376.719C13.5077 375.683 15.6867 375.181 17.8212 375.216C19.9687 375.215 21.9412 375.722 23.7388 376.738C25.5605 377.742 27.126 379.174 28.4352 381.035L19.9521 384.991C19.171 384.326 18.3108 383.932 17.3717 383.811C16.4454 383.655 15.5231 383.79 14.6047 384.219C13.2512 384.85 12.4124 385.859 12.0882 387.246C11.7882 388.622 12.0382 390.167 12.8384 391.883C13.6385 393.599 14.662 394.784 15.9087 395.439C17.1796 396.082 18.4917 396.088 19.8451 395.457C20.7635 395.029 21.4661 394.422 21.9528 393.636C22.4525 392.814 22.6984 391.89 22.6907 390.864L31.1737 386.908C31.7579 389.107 31.8491 391.228 31.4473 393.269C31.0698 395.298 30.1961 397.148 28.8262 398.816C27.4693 400.449 25.6791 401.784 23.4556 402.821C20.8696 404.027 18.3684 404.531 15.952 404.334C13.5243 404.113 11.3287 403.253 9.36537 401.756C7.42618 400.248 5.86492 398.225 4.68159 395.687ZM51.3286 389.912C48.9118 391.039 46.4235 391.508 43.8637 391.319C41.328 391.118 39.0004 390.291 36.8808 388.837C34.7611 387.383 33.1153 385.4 31.9432 382.886C30.7712 380.373 30.3096 377.837 30.5584 375.279C30.8072 372.721 31.6754 370.418 33.163 368.371C34.6634 366.288 36.6221 364.683 39.0389 363.556C41.4557 362.429 43.932 361.966 46.4676 362.167C48.992 362.343 51.3019 363.164 53.3974 364.629C55.517 366.083 57.1628 368.066 58.3349 370.58C59.507 373.093 59.9686 375.629 59.7197 378.187C59.495 380.734 58.6325 383.049 57.132 385.131C55.6558 387.203 53.7213 388.796 51.3286 389.912ZM47.8294 382.408C49.4245 381.664 50.4204 380.582 50.8171 379.161C51.2026 377.716 50.9896 376.123 50.1781 374.383C49.3554 372.619 48.2724 371.432 46.929 370.823C45.5744 370.189 44.0995 370.244 42.5044 370.988C40.8851 371.743 39.8827 372.843 39.4973 374.288C39.1006 375.709 39.3135 377.302 40.1362 379.066C40.9477 380.806 42.0307 381.993 43.3854 382.626C44.7288 383.236 46.2101 383.163 47.8294 382.408ZM91.8885 370.69L83.8405 374.442L69.3031 365.509L75.3212 378.415L67.2732 382.168L55.3046 356.501L63.3527 352.748L77.9915 361.899L71.872 348.776L79.92 345.023L91.8885 370.69ZM88.7983 356.463C87.615 353.925 87.0688 351.429 87.1597 348.973C87.2748 346.507 88.0334 344.285 89.4356 342.307C90.8265 340.305 92.8149 338.701 95.4009 337.495C97.6244 336.458 99.8034 335.957 101.938 335.992C104.085 335.991 106.058 336.498 107.855 337.513C109.677 338.517 111.243 339.95 112.552 341.811L104.069 345.767C103.288 345.101 102.428 344.708 101.488 344.587C100.562 344.43 99.6397 344.566 98.7213 344.994C97.3679 345.626 96.5291 346.635 96.2049 348.022C95.9048 349.397 96.1549 350.943 96.9551 352.659C97.7552 354.375 98.7786 355.56 100.025 356.215C101.296 356.858 102.608 356.864 103.962 356.233C104.88 355.804 105.583 355.197 106.07 354.411C106.569 353.59 106.815 352.666 106.807 351.64L115.29 347.684C115.875 349.883 115.966 352.003 115.564 354.044C115.186 356.074 114.313 357.923 112.943 359.592C111.586 361.225 109.796 362.56 107.572 363.597C104.986 364.803 102.485 365.307 100.069 365.11C97.641 364.888 95.4454 364.029 93.4821 362.532C91.5429 361.023 89.9816 359 88.7983 356.463Z" fill="#0E0D14"/>
<path d="M147.252 336.133C147.053 335.888 146.775 335.722 146.465 335.663C146.156 335.605 145.835 335.657 145.561 335.812L121.783 347.927C121.598 347.986 121.429 348.084 121.286 348.215C121.144 348.346 121.031 348.506 120.957 348.684C120.882 348.863 120.847 349.056 120.855 349.249C120.862 349.442 120.911 349.632 120.999 349.804C121.087 349.977 121.211 350.128 121.363 350.247C121.515 350.367 121.692 350.452 121.88 350.497C122.068 350.541 122.264 350.545 122.454 350.506C122.643 350.468 122.822 350.388 122.978 350.274L146.757 338.159C146.926 338.077 147.076 337.962 147.197 337.818C147.318 337.675 147.408 337.508 147.461 337.328C147.513 337.148 147.527 336.959 147.501 336.773C147.475 336.587 147.411 336.408 147.311 336.249C147.293 336.21 147.273 336.171 147.252 336.133ZM138.349 321.753C138.15 321.508 137.871 321.342 137.562 321.283C137.252 321.224 136.932 321.277 136.658 321.432L115.382 332.272C115.198 332.33 115.029 332.429 114.886 332.559C114.743 332.69 114.631 332.85 114.557 333.029C114.482 333.207 114.447 333.4 114.455 333.593C114.462 333.787 114.511 333.976 114.599 334.149C114.687 334.321 114.811 334.472 114.963 334.592C115.115 334.711 115.292 334.796 115.48 334.841C115.668 334.886 115.864 334.889 116.053 334.85C116.243 334.812 116.422 334.733 116.578 334.618L137.853 323.778C138.023 323.697 138.173 323.581 138.294 323.438C138.415 323.295 138.505 323.128 138.557 322.948C138.61 322.767 138.624 322.578 138.598 322.392C138.572 322.206 138.507 322.028 138.408 321.869C138.39 321.829 138.37 321.79 138.349 321.753ZM140.333 334.929C140.134 334.684 139.856 334.518 139.546 334.459C139.237 334.401 138.916 334.453 138.642 334.608L124.876 341.622C124.691 341.68 124.521 341.778 124.378 341.909C124.234 342.04 124.121 342.2 124.046 342.379C123.972 342.558 123.936 342.75 123.944 342.944C123.951 343.138 124 343.328 124.088 343.5C124.176 343.673 124.301 343.825 124.453 343.944C124.606 344.064 124.782 344.149 124.971 344.193C125.16 344.238 125.356 344.241 125.546 344.202C125.736 344.163 125.915 344.083 126.071 343.967L139.837 336.953C140.006 336.872 140.156 336.757 140.277 336.614C140.398 336.471 140.488 336.304 140.54 336.124C140.593 335.944 140.607 335.755 140.581 335.57C140.556 335.384 140.492 335.206 140.393 335.047C140.375 335.006 140.355 334.968 140.333 334.929ZM131.43 320.549C131.231 320.304 130.952 320.138 130.643 320.079C130.334 320.02 130.013 320.073 129.739 320.228L118.475 325.967C118.291 326.025 118.121 326.123 117.977 326.253C117.834 326.384 117.721 326.544 117.646 326.723C117.571 326.902 117.536 327.095 117.543 327.289C117.551 327.482 117.6 327.672 117.688 327.845C117.776 328.018 117.901 328.169 118.053 328.289C118.206 328.408 118.382 328.493 118.571 328.538C118.76 328.582 118.956 328.585 119.146 328.546C119.335 328.507 119.515 328.427 119.67 328.312L130.934 322.573C131.103 322.492 131.253 322.376 131.374 322.233C131.495 322.09 131.585 321.924 131.637 321.744C131.69 321.564 131.704 321.375 131.678 321.189C131.653 321.004 131.589 320.825 131.49 320.666C131.472 320.626 131.452 320.587 131.43 320.549ZM134.004 328.695C133.806 328.451 133.527 328.284 133.217 328.226C132.908 328.167 132.588 328.22 132.313 328.374L123.553 332.838C123.368 332.896 123.198 332.994 123.055 333.125C122.912 333.255 122.799 333.416 122.724 333.595C122.649 333.773 122.614 333.966 122.621 334.16C122.628 334.354 122.677 334.543 122.765 334.716C122.853 334.889 122.978 335.04 123.13 335.16C123.283 335.28 123.46 335.365 123.648 335.409C123.837 335.454 124.033 335.456 124.223 335.417C124.413 335.378 124.592 335.298 124.748 335.183L133.508 330.72C133.677 330.639 133.827 330.523 133.948 330.38C134.069 330.237 134.159 330.07 134.212 329.89C134.264 329.71 134.278 329.522 134.253 329.336C134.227 329.15 134.163 328.972 134.064 328.813C134.046 328.772 134.026 328.734 134.004 328.695ZM141.656 343.713C141.457 343.469 141.178 343.302 140.869 343.244C140.56 343.185 140.239 343.238 139.965 343.392L131.204 347.856C131.02 347.915 130.851 348.013 130.708 348.144C130.566 348.274 130.453 348.435 130.379 348.613C130.304 348.792 130.269 348.984 130.277 349.178C130.284 349.371 130.333 349.56 130.421 349.733C130.509 349.905 130.633 350.056 130.785 350.176C130.937 350.296 131.114 350.381 131.302 350.425C131.49 350.47 131.686 350.473 131.875 350.435C132.065 350.396 132.244 350.317 132.4 350.202L141.16 345.739C141.33 345.658 141.48 345.542 141.601 345.399C141.722 345.256 141.812 345.088 141.865 344.908C141.917 344.728 141.931 344.539 141.905 344.353C141.879 344.167 141.814 343.989 141.715 343.83C141.697 343.79 141.677 343.751 141.656 343.713ZM125.762 318.707C125.564 318.463 125.285 318.296 124.976 318.238C124.666 318.179 124.346 318.232 124.072 318.386L120.317 320.299C120.133 320.358 119.963 320.456 119.821 320.587C119.678 320.718 119.566 320.878 119.491 321.056C119.417 321.235 119.382 321.428 119.389 321.621C119.397 321.814 119.446 322.004 119.534 322.176C119.621 322.349 119.746 322.5 119.898 322.619C120.05 322.739 120.226 322.824 120.415 322.869C120.603 322.913 120.798 322.917 120.988 322.878C121.178 322.84 121.357 322.76 121.513 322.646L125.267 320.733C125.436 320.652 125.586 320.536 125.708 320.392C125.829 320.249 125.919 320.082 125.971 319.902C126.023 319.722 126.037 319.533 126.011 319.347C125.986 319.161 125.921 318.983 125.822 318.823C125.804 318.783 125.784 318.744 125.762 318.706L125.762 318.707ZM133.414 333.725C133.215 333.481 132.937 333.314 132.627 333.256C132.318 333.197 131.998 333.249 131.723 333.404L127.969 335.317C127.784 335.375 127.614 335.473 127.471 335.604C127.328 335.735 127.215 335.895 127.14 336.074C127.065 336.252 127.03 336.445 127.037 336.639C127.044 336.833 127.093 337.023 127.181 337.195C127.269 337.368 127.394 337.52 127.546 337.639C127.699 337.759 127.875 337.844 128.064 337.888C128.253 337.933 128.449 337.936 128.639 337.897C128.829 337.858 129.008 337.778 129.164 337.662L132.918 335.75C133.087 335.668 133.237 335.553 133.358 335.41C133.479 335.267 133.569 335.1 133.622 334.92C133.674 334.74 133.688 334.551 133.663 334.366C133.637 334.18 133.573 334.002 133.474 333.843C133.456 333.802 133.436 333.764 133.414 333.725ZM141.066 348.743C140.867 348.499 140.588 348.332 140.279 348.274C139.969 348.215 139.649 348.267 139.375 348.422L135.62 350.335C135.436 350.394 135.267 350.492 135.124 350.623C134.981 350.754 134.869 350.914 134.794 351.092C134.72 351.271 134.685 351.464 134.692 351.657C134.7 351.85 134.749 352.04 134.837 352.212C134.925 352.384 135.049 352.536 135.201 352.655C135.353 352.775 135.53 352.86 135.718 352.905C135.906 352.949 136.102 352.952 136.291 352.914C136.481 352.875 136.66 352.796 136.816 352.682L140.57 350.769C140.74 350.688 140.89 350.572 141.011 350.428C141.132 350.285 141.222 350.118 141.274 349.938C141.327 349.758 141.341 349.569 141.315 349.383C141.289 349.197 141.224 349.019 141.125 348.859C141.107 348.82 141.087 348.781 141.066 348.743Z" fill="#0E0D14"/>
<path d="M168.314 333.556L159.198 326.596L159.162 326.613L163.456 335.821L155.408 339.574L143.439 313.907L155.403 308.329C157.481 307.359 159.432 306.906 161.256 306.967C163.068 307.005 164.635 307.495 165.958 308.438C167.293 309.345 168.332 310.597 169.076 312.192C169.876 313.908 170.103 315.656 169.756 317.436C169.433 319.205 168.513 320.796 166.995 322.21L177.159 329.431L168.314 333.556ZM156.66 321.248L159.85 319.76C160.624 319.399 161.125 318.96 161.354 318.441C161.571 317.898 161.506 317.252 161.156 316.503C160.841 315.826 160.387 315.39 159.796 315.195C159.229 314.989 158.571 315.06 157.822 315.41L154.632 316.897L156.66 321.248ZM187.882 293.183L190.857 299.564L184.042 302.742L193.035 322.028L184.987 325.781L175.994 306.495L169.251 309.639L166.275 303.259L187.882 293.183ZM212.193 313.403C209.124 314.835 206.254 315.305 203.583 314.814C200.925 314.288 198.863 312.675 197.398 309.975L205.954 305.985C206.762 307.403 207.758 307.836 208.943 307.284C209.378 307.081 209.695 306.815 209.895 306.487C210.108 306.123 210.113 305.723 209.91 305.288C209.628 304.684 209.076 304.353 208.255 304.294C207.422 304.212 206.204 304.25 204.601 304.409C202.687 304.596 201.057 304.664 199.71 304.616C198.387 304.556 197.091 304.174 195.822 303.471C194.553 302.769 193.542 301.578 192.788 299.899C192.01 298.231 191.774 296.62 192.079 295.066C192.397 293.476 193.152 292.035 194.345 290.743C195.561 289.44 197.1 288.355 198.961 287.487C202.103 286.022 204.93 285.587 207.443 286.18C209.98 286.762 211.912 288.348 213.237 290.937L204.572 294.978C204.21 294.264 203.786 293.829 203.302 293.672C202.817 293.516 202.333 293.55 201.849 293.776C201.511 293.934 201.289 294.184 201.185 294.527C201.068 294.846 201.106 295.211 201.298 295.622C201.568 296.202 202.108 296.539 202.917 296.632C203.738 296.691 204.974 296.659 206.623 296.537C208.524 296.386 210.124 296.346 211.423 296.418C212.745 296.478 214.024 296.823 215.26 297.453C216.495 298.083 217.462 299.148 218.161 300.646C218.894 302.217 219.166 303.811 218.979 305.428C218.78 307.022 218.107 308.512 216.96 309.901C215.812 311.289 214.223 312.457 212.193 313.403Z" fill="#0E0D14"/>
<path d="M5.60956 764.6L6.7126 766.965L12.6942 764.176L14.8115 768.717L8.82992 771.506L10.0978 774.225L16.8951 771.055L19.1392 775.868L6.30586 781.852L-2.67055 762.602L10.1628 756.618L12.4069 761.43L5.60956 764.6ZM39.8754 766.198L33.8394 769.013L22.9364 762.313L27.45 771.992L21.4139 774.807L12.4375 755.557L18.4735 752.742L29.4526 759.605L24.863 749.763L30.899 746.948L39.8754 766.198ZM48.7432 738.627L50.9747 743.413L45.8631 745.796L52.6081 760.261L46.5721 763.075L39.8271 748.611L34.7699 750.969L32.5384 746.184L48.7432 738.627ZM58.6604 739.862L59.7635 742.227L65.7451 739.438L67.8624 743.979L61.8808 746.768L63.1486 749.487L69.9459 746.317L72.19 751.13L59.3567 757.114L50.3803 737.864L63.2136 731.88L65.4577 736.692L58.6604 739.862ZM84.1442 745.555L77.3077 740.335L77.2805 740.348L80.5008 747.254L74.4648 750.069L65.4884 730.819L74.4608 726.635C76.0197 725.908 77.483 725.568 78.8507 725.614C80.21 725.642 81.3855 726.01 82.3772 726.717C83.3787 727.398 84.1583 728.336 84.7162 729.532C85.3163 730.819 85.4863 732.13 85.2261 733.465C84.9841 734.792 84.2938 735.985 83.1553 737.046L90.7783 742.462L84.1442 745.555ZM75.404 736.324L77.7967 735.208C78.3767 734.938 78.7526 734.608 78.9243 734.219C79.0875 733.812 79.0381 733.328 78.7761 732.766C78.5394 732.258 78.1994 731.931 77.756 731.785C77.3308 731.63 76.8372 731.684 76.2753 731.946L73.8826 733.061L75.404 736.324ZM98.8203 715.276L101.052 720.061L95.9401 722.445L102.685 736.909L96.6491 739.724L89.9041 725.259L84.8469 727.618L82.6155 722.832L98.8203 715.276ZM120.421 725.097L114.004 728.089L114.409 731.442L108.074 734.396L106.14 711.863L113.1 708.617L129.092 724.596L122.729 727.563L120.421 725.097ZM116.836 721.241L112.598 716.696L113.355 722.864L116.836 721.241Z" fill="#0E0D14"/>
<path d="M134.082 715.661L137.627 713.903C138.003 713.716 138.29 713.39 138.425 712.995C138.561 712.6 138.533 712.17 138.349 711.798L138.001 711.098L135.875 712.153C135.687 712.246 135.47 712.262 135.272 712.196C135.074 712.131 134.91 711.99 134.818 711.804C134.726 711.618 134.712 711.403 134.78 711.205C134.848 711.008 134.991 710.845 135.179 710.751L137.306 709.696L136.263 707.594L134.137 708.65C133.949 708.743 133.732 708.758 133.533 708.693C133.335 708.628 133.172 708.486 133.08 708.301C132.988 708.115 132.974 707.9 133.042 707.702C133.11 707.505 133.253 707.342 133.441 707.248L135.568 706.193L134.525 704.091L132.398 705.146C132.21 705.24 131.993 705.255 131.795 705.19C131.597 705.124 131.434 704.983 131.342 704.797C131.25 704.612 131.236 704.396 131.304 704.199C131.371 704.002 131.515 703.838 131.703 703.745L133.83 702.69L133.482 701.989C133.297 701.618 132.971 701.335 132.575 701.204C132.179 701.074 131.745 701.105 131.369 701.291L125.698 704.105C125.322 704.292 125.035 704.618 124.899 705.013C124.764 705.408 124.791 705.838 124.976 706.21L125.323 706.911L127.45 705.855C127.638 705.762 127.855 705.746 128.053 705.812C128.251 705.877 128.414 706.019 128.506 706.204C128.599 706.39 128.612 706.605 128.545 706.803C128.477 707 128.333 707.163 128.145 707.257L126.019 708.312L127.062 710.414L129.188 709.359C129.376 709.265 129.593 709.25 129.791 709.315C129.989 709.381 130.152 709.522 130.245 709.707C130.337 709.893 130.351 710.109 130.283 710.306C130.215 710.503 130.071 710.667 129.883 710.76L127.757 711.815L128.8 713.917L130.926 712.862C131.114 712.768 131.331 712.753 131.529 712.818C131.728 712.884 131.891 713.025 131.983 713.211C132.075 713.396 132.089 713.612 132.021 713.809C131.953 714.006 131.81 714.17 131.622 714.263L129.495 715.318L129.843 716.019C130.027 716.39 130.353 716.673 130.75 716.804C131.146 716.935 131.58 716.903 131.956 716.717L134.082 715.661ZM136.195 716.359L137.586 719.162L141.839 717.052C142.027 716.958 142.244 716.943 142.442 717.008C142.64 717.073 142.803 717.215 142.895 717.4C142.988 717.586 143.001 717.802 142.934 717.999C142.866 718.196 142.722 718.36 142.534 718.453L132.61 723.377C132.422 723.47 132.206 723.486 132.007 723.42C131.809 723.355 131.646 723.214 131.554 723.028C131.462 722.842 131.448 722.627 131.516 722.43C131.583 722.232 131.727 722.069 131.915 721.976L136.168 719.865L134.778 717.063L132.651 718.118C131.899 718.491 131.031 718.554 130.239 718.292C129.446 718.03 128.794 717.466 128.425 716.722L123.558 706.913C123.189 706.17 123.134 705.309 123.405 704.52C123.676 703.73 124.251 703.077 125.003 702.704L130.674 699.89C131.426 699.517 132.293 699.454 133.086 699.716C133.878 699.978 134.531 700.543 134.9 701.286L139.767 711.095C140.135 711.838 140.19 712.699 139.919 713.488C139.649 714.278 139.074 714.931 138.322 715.304L136.195 716.359Z" fill="#0E0D14"/>
<path d="M165.767 707.183L159.731 709.998L148.828 703.298L153.342 712.977L147.306 715.792L138.329 696.542L144.365 693.727L155.345 700.59L150.755 690.748L156.791 687.933L165.767 707.183ZM182.656 675.872L191.632 695.122L185.624 697.924L181.148 688.326L182.66 699.306L177.494 701.715L170.055 693.499L174.53 703.097L168.494 705.911L159.518 686.661L166.913 683.213L176.543 692.79L175.288 679.308L182.656 675.872ZM193.66 676.6L194.763 678.965L200.744 676.176L202.862 680.717L196.88 683.506L198.148 686.225L204.945 683.055L207.189 687.868L194.356 693.852L185.38 674.602L198.213 668.618L200.457 673.43L193.66 676.6ZM227.926 678.198L221.89 681.013L210.987 674.313L215.5 683.992L209.464 686.807L200.488 667.557L206.524 664.742L217.503 671.605L212.913 661.763L218.949 658.948L227.926 678.198ZM236.793 650.627L239.025 655.413L233.913 657.796L240.658 672.261L234.622 675.076L227.877 660.611L222.82 662.969L220.589 658.184L236.793 650.627Z" fill="#0E0D14"/>
<path d="M289.206 624.699C291.608 624.197 293.772 624.465 295.698 625.503C297.642 626.491 299.095 628.018 300.057 630.082C301.525 633.228 301.612 636.154 300.319 638.857C299.044 641.512 296.461 643.746 292.569 645.56L273.74 654.341L256.984 618.407L275.306 609.864C278.96 608.16 282.207 607.614 285.046 608.226C287.886 608.838 290.015 610.667 291.435 613.712C292.414 615.81 292.684 617.846 292.245 619.822C291.825 621.748 290.812 623.374 289.206 624.699ZM274.783 627.161L279.148 625.126C280.163 624.653 280.813 624.103 281.097 623.476C281.415 622.833 281.377 622.089 280.983 621.243C280.573 620.363 280.019 619.839 279.322 619.669C278.643 619.45 277.796 619.577 276.781 620.051L272.417 622.086L274.783 627.161ZM285.921 637.662C286.936 637.189 287.593 636.656 287.893 636.063C288.212 635.42 288.166 634.659 287.755 633.779C286.951 632.054 285.55 631.656 283.554 632.587L278.428 634.977L280.795 640.053L285.921 637.662ZM328.944 621.987L316.966 627.572L317.722 633.831L305.897 639.346L302.286 597.283L315.279 591.224L345.129 621.051L333.253 626.589L328.944 621.987ZM322.251 614.789L314.341 606.306L315.755 617.819L322.251 614.789ZM382.15 603.788L370.883 609.042L350.531 596.536L358.956 614.604L347.689 619.858L330.933 583.924L342.2 578.67L362.695 591.481L354.127 573.109L365.395 567.855L382.15 603.788Z" fill="#0E0D14"/>
<path d="M395.684 555.784L372.646 566.753C371.737 567.185 371.351 568.273 371.784 569.182L385.887 598.803C386.319 599.712 387.407 600.098 388.316 599.665L411.354 588.696C412.263 588.263 412.649 587.176 412.216 586.267L398.113 556.646C397.681 555.737 396.593 555.351 395.684 555.784Z" stroke="#0E0D14" stroke-width="4" stroke-linecap="round" stroke-linejoin="round"/>
<path d="M390.432 574.434C392.705 573.353 393.67 570.634 392.588 568.362C391.506 566.089 388.787 565.124 386.515 566.206C384.243 567.288 383.278 570.007 384.36 572.279C385.441 574.551 388.16 575.516 390.432 574.434Z" stroke="#0E0D14" stroke-width="4"/>
<path d="M379.071 571.768C379.979 571.335 380.365 570.248 379.933 569.339C379.5 568.43 378.412 568.044 377.504 568.477C376.595 568.909 376.209 569.997 376.641 570.906C377.074 571.815 378.162 572.201 379.071 571.768Z" fill="#0E0D14"/>
<path d="M390.04 594.807C390.949 594.374 391.335 593.287 390.902 592.378C390.469 591.469 389.382 591.083 388.473 591.516C387.564 591.949 387.178 593.036 387.611 593.945C388.043 594.854 389.131 595.24 390.04 594.807Z" fill="#0E0D14"/>
<path d="M395.527 563.933C396.435 563.5 396.821 562.413 396.389 561.504C395.956 560.595 394.868 560.209 393.96 560.642C393.051 561.075 392.665 562.162 393.097 563.071C393.53 563.98 394.618 564.366 395.527 563.933Z" fill="#0E0D14"/>
<path d="M397.485 589.244C400.211 587.946 401.369 584.684 400.071 581.957C398.773 579.23 395.51 578.073 392.784 579.371C390.057 580.669 388.899 583.931 390.197 586.658C391.495 589.385 394.758 590.543 397.485 589.244Z" stroke="#0E0D14" stroke-width="4"/>
</svg>
