<svg width="393" height="852" viewBox="0 0 393 852" fill="none" xmlns="http://www.w3.org/2000/svg">
<g clip-path="url(#clip0_330_198)">
<rect width="393" height="852" fill="#06050B"/>
<path d="M193.682 859.515C192.498 856.977 191.952 854.48 192.043 852.025C192.158 849.559 192.917 847.337 194.319 845.359C195.71 843.357 197.698 841.753 200.284 840.547C202.508 839.51 204.687 839.009 206.821 839.043C208.969 839.042 210.941 839.55 212.739 840.565C214.561 841.569 216.126 843.002 217.435 844.863L208.952 848.819C208.171 848.153 207.311 847.76 206.372 847.639C205.445 847.482 204.523 847.618 203.605 848.046C202.251 848.677 201.412 849.687 201.088 851.073C200.788 852.449 201.038 853.995 201.838 855.711C202.639 857.427 203.662 858.612 204.909 859.266C206.18 859.91 207.492 859.916 208.845 859.285C209.764 858.856 210.466 858.249 210.953 857.463C211.452 856.642 211.698 855.718 211.691 854.692L220.174 850.736C220.758 852.935 220.849 855.055 220.447 857.096C220.07 859.126 219.196 860.975 217.826 862.644C216.469 864.277 214.679 865.612 212.456 866.649C209.87 867.855 207.368 868.359 204.952 868.162C202.524 867.94 200.329 867.081 198.365 865.584C196.426 864.075 194.865 862.052 193.682 859.515ZM240.329 853.74C237.912 854.867 235.424 855.335 232.864 855.146C230.328 854.946 228 854.119 225.881 852.665C223.761 851.211 222.115 849.227 220.943 846.714C219.771 844.2 219.31 841.665 219.558 839.106C219.807 836.548 220.675 834.246 222.163 832.198C223.663 830.116 225.622 828.511 228.039 827.384C230.456 826.257 232.932 825.794 235.468 825.994C237.992 826.171 240.302 826.991 242.397 828.456C244.517 829.91 246.163 831.894 247.335 834.407C248.507 836.921 248.969 839.457 248.72 842.015C248.495 844.562 247.632 846.876 246.132 848.959C244.656 851.03 242.721 852.624 240.329 853.74ZM236.829 846.235C238.424 845.492 239.42 844.409 239.817 842.988C240.203 841.543 239.99 839.951 239.178 838.211C238.355 836.447 237.272 835.26 235.929 834.65C234.574 834.017 233.099 834.072 231.504 834.816C229.885 835.571 228.883 836.671 228.497 838.116C228.101 839.537 228.314 841.129 229.136 842.893C229.948 844.634 231.031 845.82 232.385 846.454C233.729 847.063 235.21 846.99 236.829 846.235ZM280.889 834.517L272.841 838.27L258.303 829.337L264.321 842.243L256.273 845.996L244.305 820.329L252.353 816.576L266.991 825.727L260.872 812.603L268.92 808.851L280.889 834.517ZM277.798 820.29C276.615 817.753 276.069 815.256 276.16 812.801C276.275 810.335 277.033 808.113 278.436 806.135C279.826 804.133 281.815 802.529 284.401 801.323C286.624 800.286 288.803 799.785 290.938 799.819C293.085 799.818 295.058 800.325 296.855 801.341C298.677 802.345 300.243 803.778 301.552 805.639L293.069 809.595C292.288 808.929 291.428 808.536 290.488 808.415C289.562 808.258 288.64 808.394 287.721 808.822C286.368 809.453 285.529 810.462 285.205 811.849C284.905 813.225 285.155 814.771 285.955 816.487C286.755 818.203 287.779 819.388 289.025 820.042C290.296 820.685 291.608 820.691 292.962 820.06C293.88 819.632 294.583 819.025 295.07 818.239C295.569 817.417 295.815 816.494 295.807 815.467L304.29 811.512C304.875 813.711 304.966 815.831 304.564 817.872C304.186 819.902 303.313 821.751 301.943 823.419C300.586 825.053 298.796 826.388 296.572 827.424C293.986 828.63 291.485 829.135 289.069 828.937C286.641 828.716 284.445 827.857 282.482 826.359C280.543 824.851 278.982 822.828 277.798 820.29Z" fill="#0E0D14"/>
<path d="M336.252 799.96C336.053 799.716 335.775 799.55 335.465 799.491C335.156 799.432 334.835 799.485 334.561 799.64L310.783 811.755C310.598 811.814 310.429 811.912 310.286 812.043C310.144 812.173 310.031 812.334 309.957 812.512C309.882 812.691 309.847 812.883 309.855 813.077C309.862 813.27 309.911 813.459 309.999 813.632C310.087 813.804 310.211 813.955 310.363 814.075C310.515 814.195 310.692 814.28 310.88 814.324C311.068 814.369 311.264 814.372 311.454 814.334C311.643 814.295 311.822 814.216 311.978 814.101L335.757 801.986C335.926 801.905 336.076 801.789 336.197 801.646C336.318 801.503 336.408 801.336 336.461 801.156C336.513 800.975 336.527 800.786 336.501 800.6C336.475 800.414 336.411 800.236 336.311 800.077C336.293 800.037 336.273 799.998 336.252 799.96ZM327.349 785.58C327.15 785.336 326.871 785.169 326.562 785.111C326.252 785.052 325.932 785.105 325.658 785.259L304.382 796.099C304.198 796.158 304.029 796.256 303.886 796.387C303.743 796.518 303.631 796.678 303.557 796.857C303.482 797.035 303.447 797.228 303.455 797.421C303.462 797.614 303.511 797.804 303.599 797.976C303.687 798.149 303.811 798.3 303.963 798.419C304.115 798.539 304.292 798.624 304.48 798.669C304.668 798.713 304.864 798.717 305.053 798.678C305.243 798.64 305.422 798.56 305.578 798.446L326.853 787.606C327.023 787.525 327.173 787.409 327.294 787.266C327.415 787.123 327.505 786.955 327.557 786.775C327.61 786.595 327.624 786.406 327.598 786.22C327.572 786.034 327.507 785.856 327.408 785.697C327.39 785.657 327.37 785.618 327.349 785.58ZM329.333 798.757C329.134 798.512 328.856 798.346 328.546 798.287C328.237 798.228 327.916 798.281 327.642 798.436L313.876 805.45C313.691 805.508 313.521 805.606 313.378 805.737C313.234 805.867 313.121 806.028 313.046 806.206C312.972 806.385 312.936 806.578 312.944 806.772C312.951 806.966 313 807.155 313.088 807.328C313.176 807.501 313.301 807.652 313.453 807.772C313.606 807.892 313.782 807.977 313.971 808.021C314.16 808.066 314.356 808.068 314.546 808.029C314.736 807.99 314.915 807.91 315.071 807.795L328.837 800.781C329.006 800.7 329.156 800.584 329.277 800.441C329.398 800.298 329.488 800.132 329.54 799.952C329.593 799.772 329.607 799.583 329.581 799.397C329.556 799.212 329.492 799.033 329.393 798.874C329.375 798.834 329.355 798.795 329.333 798.757ZM320.43 784.376C320.231 784.132 319.952 783.965 319.643 783.907C319.334 783.848 319.013 783.901 318.739 784.055L307.475 789.794C307.291 789.853 307.121 789.95 306.977 790.081C306.834 790.212 306.721 790.372 306.646 790.551C306.571 790.73 306.536 790.923 306.543 791.116C306.551 791.31 306.6 791.5 306.688 791.672C306.776 791.845 306.901 791.997 307.053 792.116C307.206 792.236 307.382 792.321 307.571 792.365C307.76 792.41 307.956 792.413 308.146 792.374C308.335 792.335 308.515 792.255 308.67 792.139L319.934 786.401C320.103 786.32 320.253 786.204 320.374 786.061C320.495 785.918 320.585 785.751 320.637 785.571C320.69 785.391 320.704 785.203 320.678 785.017C320.653 784.831 320.589 784.653 320.49 784.494C320.472 784.453 320.452 784.415 320.43 784.376ZM323.004 792.523C322.806 792.278 322.527 792.112 322.217 792.053C321.908 791.995 321.588 792.047 321.313 792.202L312.553 796.666C312.368 796.724 312.198 796.822 312.055 796.952C311.912 797.083 311.799 797.243 311.724 797.422C311.649 797.601 311.614 797.794 311.621 797.988C311.628 798.181 311.677 798.371 311.765 798.544C311.853 798.717 311.978 798.868 312.13 798.988C312.283 799.107 312.46 799.192 312.648 799.237C312.837 799.281 313.033 799.284 313.223 799.245C313.413 799.206 313.592 799.126 313.748 799.011L322.508 794.547C322.677 794.466 322.827 794.351 322.948 794.208C323.069 794.065 323.159 793.898 323.212 793.718C323.264 793.538 323.278 793.349 323.253 793.164C323.227 792.978 323.163 792.8 323.064 792.64C323.046 792.6 323.026 792.561 323.004 792.523ZM330.656 807.541C330.457 807.296 330.178 807.13 329.869 807.071C329.56 807.013 329.239 807.065 328.965 807.22L320.204 811.684C320.02 811.742 319.851 811.841 319.708 811.971C319.566 812.102 319.453 812.262 319.379 812.441C319.304 812.619 319.269 812.812 319.277 813.005C319.284 813.199 319.333 813.388 319.421 813.56C319.509 813.733 319.633 813.884 319.785 814.004C319.937 814.123 320.114 814.208 320.302 814.253C320.49 814.298 320.686 814.301 320.875 814.262C321.065 814.224 321.244 814.145 321.4 814.03L330.16 809.567C330.33 809.485 330.48 809.369 330.601 809.226C330.722 809.083 330.812 808.916 330.865 808.736C330.917 808.556 330.931 808.366 330.905 808.181C330.879 807.995 330.814 807.816 330.715 807.657C330.697 807.618 330.677 807.579 330.656 807.541ZM314.762 782.535C314.564 782.29 314.285 782.124 313.976 782.065C313.666 782.006 313.346 782.059 313.072 782.214L309.317 784.127C309.133 784.186 308.963 784.284 308.821 784.415C308.678 784.545 308.566 784.706 308.491 784.884C308.417 785.063 308.382 785.255 308.389 785.449C308.397 785.642 308.446 785.831 308.534 786.004C308.621 786.176 308.746 786.327 308.898 786.447C309.05 786.567 309.226 786.652 309.415 786.696C309.603 786.741 309.798 786.744 309.988 786.706C310.178 786.667 310.357 786.588 310.513 786.473L314.267 784.56C314.436 784.479 314.586 784.363 314.708 784.22C314.829 784.077 314.919 783.91 314.971 783.73C315.023 783.549 315.037 783.36 315.011 783.174C314.986 782.989 314.921 782.81 314.822 782.651C314.804 782.611 314.784 782.572 314.762 782.533L314.762 782.535ZM322.414 797.553C322.215 797.308 321.937 797.142 321.627 797.083C321.318 797.024 320.998 797.077 320.723 797.232L316.969 799.145C316.784 799.203 316.614 799.301 316.471 799.432C316.328 799.562 316.215 799.723 316.14 799.901C316.065 800.08 316.03 800.273 316.037 800.467C316.044 800.661 316.093 800.85 316.181 801.023C316.269 801.196 316.394 801.347 316.546 801.467C316.699 801.587 316.875 801.672 317.064 801.716C317.253 801.761 317.449 801.763 317.639 801.724C317.829 801.685 318.008 801.605 318.164 801.49L321.918 799.577C322.087 799.496 322.237 799.38 322.358 799.237C322.479 799.094 322.569 798.928 322.622 798.748C322.674 798.568 322.688 798.379 322.663 798.193C322.637 798.008 322.573 797.829 322.474 797.67C322.456 797.63 322.436 797.591 322.414 797.553ZM330.066 812.571C329.867 812.326 329.588 812.16 329.279 812.101C328.969 812.042 328.649 812.095 328.375 812.25L324.62 814.163C324.436 814.222 324.267 814.32 324.124 814.451C323.981 814.581 323.869 814.741 323.794 814.92C323.72 815.099 323.685 815.291 323.692 815.485C323.7 815.678 323.749 815.867 323.837 816.04C323.925 816.212 324.049 816.363 324.201 816.483C324.353 816.603 324.53 816.688 324.718 816.732C324.906 816.777 325.102 816.78 325.291 816.742C325.481 816.703 325.66 816.624 325.816 816.509L329.57 814.596C329.74 814.515 329.89 814.399 330.011 814.256C330.132 814.113 330.222 813.946 330.274 813.766C330.327 813.585 330.341 813.396 330.315 813.21C330.289 813.025 330.224 812.846 330.125 812.687C330.107 812.647 330.087 812.608 330.066 812.571Z" fill="#0E0D14"/>
<path d="M357.314 797.383L348.198 790.424L348.162 790.441L352.456 799.649L344.408 803.401L332.439 777.735L344.403 772.156C346.481 771.187 348.432 770.733 350.256 770.795C352.068 770.833 353.635 771.323 354.958 772.266C356.293 773.173 357.332 774.424 358.076 776.019C358.876 777.735 359.103 779.483 358.756 781.263C358.433 783.032 357.513 784.624 355.995 786.038L366.159 793.259L357.314 797.383ZM345.66 785.075L348.85 783.588C349.624 783.227 350.125 782.787 350.354 782.269C350.571 781.726 350.506 781.08 350.156 780.331C349.841 779.654 349.387 779.218 348.796 779.023C348.229 778.816 347.571 778.888 346.822 779.237L343.632 780.725L345.66 785.075ZM376.882 757.011L379.857 763.391L373.042 766.569L382.035 785.856L373.987 789.609L364.994 770.322L358.251 773.467L355.275 767.086L376.882 757.011ZM401.193 777.231C398.124 778.662 395.254 779.133 392.583 778.642C389.925 778.116 387.863 776.503 386.398 773.802L394.954 769.813C395.762 771.231 396.758 771.664 397.943 771.111C398.378 770.909 398.695 770.643 398.895 770.314C399.108 769.95 399.113 769.551 398.91 769.116C398.628 768.511 398.076 768.18 397.255 768.122C396.422 768.04 395.204 768.078 393.601 768.237C391.687 768.423 390.057 768.492 388.71 768.443C387.387 768.383 386.091 768.002 384.822 767.299C383.553 766.596 382.542 765.406 381.788 763.727C381.01 762.059 380.774 760.448 381.079 758.893C381.397 757.304 382.152 755.863 383.345 754.571C384.561 753.268 386.1 752.183 387.961 751.315C391.103 749.85 393.93 749.414 396.443 750.008C398.98 750.59 400.912 752.176 402.237 754.765L393.572 758.805C393.21 758.092 392.786 757.656 392.302 757.5C391.817 757.344 391.333 757.378 390.849 757.604C390.511 757.761 390.289 758.012 390.185 758.355C390.068 758.674 390.106 759.039 390.298 759.45C390.568 760.03 391.108 760.366 391.917 760.46C392.738 760.518 393.974 760.487 395.623 760.365C397.524 760.214 399.124 760.174 400.423 760.245C401.745 760.305 403.024 760.65 404.26 761.281C405.495 761.911 406.462 762.975 407.161 764.474C407.894 766.045 408.166 767.639 407.979 769.256C407.78 770.849 407.107 772.34 405.96 773.728C404.812 775.117 403.223 776.284 401.193 777.231Z" fill="#0E0D14"/>
<path d="M54.4794 865.195L55.9501 868.349L63.9256 864.63L66.7487 870.685L58.7732 874.404L60.4637 878.029L69.5268 873.803L72.5189 880.219L55.4078 888.198L43.4393 862.532L60.5504 854.553L63.5425 860.969L54.4794 865.195ZM100.167 867.327L92.1192 871.08L77.5819 862.146L83.5999 875.052L75.5519 878.805L63.5834 853.138L71.6314 849.385L86.2702 858.536L80.1507 845.413L88.1987 841.66L100.167 867.327ZM111.991 830.566L114.966 836.946L108.151 840.124L117.144 859.41L109.096 863.163L100.103 843.877L93.3598 847.021L90.3846 840.641L111.991 830.566ZM125.214 832.211L126.685 835.365L134.66 831.646L137.483 837.701L129.508 841.42L131.198 845.045L140.261 840.819L143.253 847.235L126.142 855.214L114.174 829.548L131.285 821.569L134.277 827.985L125.214 832.211ZM159.192 839.803L150.077 832.843L150.041 832.86L154.334 842.068L146.286 845.821L134.318 820.154L146.281 814.576C148.36 813.607 150.311 813.153 152.134 813.215C153.947 813.252 155.514 813.742 156.836 814.685C158.172 815.593 159.211 816.844 159.955 818.439C160.755 820.155 160.982 821.903 160.635 823.683C160.312 825.452 159.392 827.043 157.874 828.457L168.038 835.678L159.192 839.803ZM147.539 827.495L150.729 826.007C151.502 825.646 152.003 825.207 152.232 824.688C152.45 824.145 152.384 823.499 152.035 822.75C151.719 822.073 151.266 821.637 150.675 821.442C150.108 821.236 149.45 821.307 148.7 821.657L145.51 823.144L147.539 827.495ZM178.76 799.43L181.736 805.811L174.92 808.989L183.913 828.275L175.865 832.028L166.872 812.742L160.129 815.886L157.154 809.506L178.76 799.43ZM207.561 812.525L199.006 816.515L199.546 820.986L191.099 824.924L188.52 794.879L197.8 790.552L219.122 811.857L210.639 815.813L207.561 812.525ZM202.781 807.384L197.13 801.324L198.14 809.548L202.781 807.384Z" fill="#0E0D14"/>
<path d="M230.033 794.035L236.885 790.635C237.612 790.274 238.167 789.643 238.429 788.88C238.691 788.117 238.638 787.285 238.281 786.566L237.609 785.212L233.498 787.252C233.135 787.432 232.716 787.462 232.333 787.336C231.95 787.209 231.634 786.936 231.456 786.577C231.278 786.218 231.251 785.802 231.382 785.42C231.513 785.039 231.791 784.723 232.154 784.543L236.265 782.503L234.249 778.44L230.138 780.48C229.775 780.66 229.355 780.69 228.972 780.564C228.589 780.437 228.274 780.164 228.096 779.805C227.917 779.446 227.891 779.03 228.022 778.648C228.153 778.267 228.431 777.951 228.794 777.771L232.905 775.731L230.889 771.668L226.778 773.707C226.414 773.888 225.995 773.918 225.612 773.791C225.229 773.665 224.914 773.392 224.735 773.033C224.557 772.674 224.531 772.258 224.662 771.876C224.793 771.494 225.07 771.179 225.434 770.998L229.545 768.959L228.873 767.604C228.516 766.886 227.885 766.34 227.119 766.087C226.353 765.834 225.515 765.895 224.788 766.255L213.825 771.695C213.098 772.055 212.543 772.687 212.281 773.45C212.019 774.213 212.072 775.045 212.429 775.763L213.101 777.118L217.212 775.078C217.575 774.898 217.995 774.868 218.378 774.994C218.761 775.121 219.076 775.393 219.254 775.753C219.432 776.112 219.459 776.528 219.328 776.909C219.197 777.291 218.919 777.607 218.556 777.787L214.445 779.827L216.461 783.89L220.572 781.85C220.936 781.67 221.355 781.64 221.738 781.766C222.121 781.893 222.436 782.166 222.614 782.525C222.793 782.884 222.819 783.3 222.688 783.682C222.557 784.063 222.28 784.379 221.916 784.559L217.805 786.599L219.821 790.662L223.932 788.622C224.296 788.442 224.715 788.412 225.098 788.538C225.481 788.665 225.797 788.938 225.975 789.297C226.153 789.656 226.18 790.072 226.049 790.454C225.918 790.835 225.64 791.151 225.277 791.331L221.166 793.371L221.838 794.726C222.194 795.444 222.825 795.99 223.591 796.243C224.357 796.496 225.196 796.435 225.922 796.075L230.033 794.035ZM234.118 795.384L236.806 800.802L245.028 796.722C245.392 796.542 245.811 796.511 246.194 796.638C246.577 796.764 246.892 797.037 247.071 797.396C247.249 797.756 247.275 798.172 247.144 798.553C247.013 798.935 246.736 799.251 246.372 799.431L227.188 808.95C226.824 809.13 226.405 809.16 226.022 809.034C225.639 808.907 225.324 808.635 225.146 808.275C224.967 807.916 224.941 807.5 225.072 807.119C225.203 806.737 225.48 806.421 225.844 806.241L234.066 802.161L231.377 796.744L227.267 798.783C225.813 799.505 224.135 799.626 222.603 799.12C221.071 798.614 219.81 797.522 219.097 796.085L209.688 777.123C208.975 775.686 208.869 774.022 209.393 772.496C209.917 770.97 211.028 769.707 212.481 768.986L223.444 763.546C224.897 762.825 226.575 762.704 228.107 763.21C229.639 763.716 230.9 764.808 231.613 766.244L241.022 785.207C241.735 786.643 241.841 788.308 241.317 789.834C240.794 791.36 239.683 792.623 238.229 793.344L234.118 795.384Z" fill="#0E0D14"/>
<path d="M281.023 783.072L272.975 786.825L258.438 777.892L264.456 790.798L256.408 794.55L244.439 768.884L252.487 765.131L267.126 774.282L261.007 761.158L269.055 757.405L281.023 783.072ZM303.541 741.324L315.51 766.991L307.498 770.727L301.531 757.93L303.547 772.569L296.659 775.781L286.74 764.827L292.707 777.624L284.659 781.377L272.691 755.71L282.551 751.112L295.391 763.882L293.717 745.905L303.541 741.324ZM318.213 742.294L319.684 745.448L327.659 741.729L330.482 747.783L322.507 751.503L324.197 755.128L333.26 750.902L336.252 757.318L319.141 765.297L307.173 739.631L324.284 731.652L327.276 738.068L318.213 742.294ZM363.901 744.426L355.853 748.178L341.315 739.245L347.333 752.151L339.285 755.904L327.317 730.237L335.365 726.484L350.004 735.635L343.884 722.512L351.932 718.759L363.901 744.426ZM375.724 707.664L378.7 714.045L371.884 717.223L380.878 736.509L372.83 740.262L363.836 720.976L357.093 724.12L354.118 717.74L375.724 707.664Z" fill="#0E0D14"/>
<path d="M-63.911 179.45L-61.3373 184.969L-47.3801 178.461L-42.4397 189.056L-56.3969 195.564L-53.4385 201.908L-37.5781 194.513L-32.3419 205.742L-62.2863 219.705L-83.2313 174.788L-53.2869 160.825L-48.0506 172.054L-63.911 179.45ZM16.0427 183.18L1.95865 189.747L-23.4818 174.114L-12.9501 196.699L-27.0341 203.267L-47.9791 158.35L-33.8951 151.783L-8.27716 167.796L-18.9863 144.83L-4.90228 138.263L16.0427 183.18ZM36.7342 118.848L41.9409 130.013L30.0138 135.575L45.7522 169.326L31.6681 175.893L15.9298 142.142L4.1297 147.645L-1.07696 136.479L36.7342 118.848ZM59.8743 121.728L62.4481 127.247L76.4052 120.739L81.3456 131.334L67.3885 137.842L70.3468 144.186L86.2072 136.79L91.4434 148.02L61.499 161.983L40.5541 117.066L70.4985 103.103L75.7347 114.332L59.8743 121.728ZM119.336 135.013L103.385 122.833L103.321 122.863L110.835 138.977L96.7512 145.545L75.8063 100.628L96.742 90.8655C100.379 89.1693 103.794 88.3753 106.985 88.4834C110.157 88.5492 112.899 89.407 115.214 91.057C117.55 92.6449 119.369 94.8346 120.671 97.626C122.071 100.629 122.468 103.688 121.861 106.803C121.296 109.898 119.686 112.683 117.029 115.158L134.816 127.795L119.336 135.013ZM98.9428 113.474L104.526 110.87C105.879 110.239 106.756 109.47 107.157 108.562C107.538 107.612 107.422 106.482 106.811 105.17C106.259 103.986 105.465 103.223 104.431 102.882C103.438 102.521 102.287 102.646 100.976 103.257L95.3928 105.861L98.9428 113.474ZM153.581 64.3612L158.787 75.5269L146.86 81.0885L162.599 114.839L148.515 121.407L132.776 87.656L120.976 93.1585L115.769 81.9928L153.581 64.3612ZM203.983 87.2775L189.01 94.2591L189.955 102.083L175.173 108.976L170.66 56.397L186.901 48.8237L224.214 86.1078L209.368 93.0303L203.983 87.2775ZM195.616 78.2802L185.728 67.6756L187.496 82.0669L195.616 78.2802Z" fill="#0E0D14"/>
<path d="M233.491 65.4629L241.669 61.4052C242.536 60.9748 243.199 60.2213 243.512 59.3106C243.825 58.3999 243.761 57.4065 243.336 56.549L242.534 54.9324L237.627 57.367C237.193 57.5823 236.693 57.6184 236.236 57.4674C235.778 57.3164 235.402 56.9907 235.189 56.562C234.977 56.1332 234.945 55.6366 235.101 55.1812C235.257 54.7258 235.589 54.3491 236.023 54.1339L240.929 51.6993L238.523 46.8496L233.616 49.2841C233.183 49.4994 232.682 49.5355 232.225 49.3845C231.768 49.2335 231.391 48.9078 231.179 48.4791C230.966 48.0503 230.934 47.5537 231.09 47.0983C231.247 46.6429 231.578 46.2662 232.012 46.051L236.919 43.6164L234.512 38.7667L229.606 41.2012C229.172 41.4165 228.671 41.4526 228.214 41.3016C227.757 41.1506 227.381 40.8249 227.168 40.3962C226.955 39.9675 226.924 39.4708 227.08 39.0154C227.236 38.5601 227.568 38.1833 228.001 37.9681L232.908 35.5335L232.106 33.9169C231.68 33.0594 230.928 32.4081 230.013 32.1061C229.099 31.8042 228.098 31.8764 227.231 32.3068L214.146 38.7991C213.279 39.2295 212.616 39.983 212.303 40.8937C211.991 41.8044 212.054 42.7978 212.48 43.6553L213.282 45.2718L218.188 42.8373C218.622 42.622 219.123 42.5859 219.58 42.7369C220.037 42.8879 220.413 43.2136 220.626 43.6423C220.839 44.0711 220.87 44.5677 220.714 45.0231C220.558 45.4785 220.226 45.8552 219.793 46.0704L214.886 48.505L217.292 53.3547L222.199 50.9202C222.633 50.7049 223.133 50.6688 223.59 50.8198C224.047 50.9708 224.424 51.2965 224.637 51.7252C224.849 52.1539 224.881 52.6506 224.725 53.106C224.568 53.5613 224.237 53.9381 223.803 54.1533L218.897 56.5879L221.303 61.4376L226.21 59.003C226.643 58.7878 227.144 58.7517 227.601 58.9027C228.058 59.0537 228.434 59.3794 228.647 59.8081C228.86 60.2368 228.892 60.7335 228.735 61.1889C228.579 61.6442 228.248 62.021 227.814 62.2362L222.907 64.6708L223.709 66.2874C224.135 67.1449 224.888 67.7962 225.802 68.0982C226.716 68.4001 227.717 68.3279 228.585 67.8975L233.491 65.4629ZM238.367 67.073L241.575 73.5393L251.388 68.6701C251.822 68.4549 252.322 68.4188 252.78 68.5698C253.237 68.7207 253.613 69.0464 253.826 69.4752C254.039 69.9039 254.07 70.4006 253.914 70.856C253.758 71.3113 253.426 71.6881 252.992 71.9033L230.095 83.2647C229.661 83.4799 229.161 83.516 228.704 83.365C228.247 83.2141 227.87 82.8884 227.657 82.4596C227.445 82.0309 227.413 81.5342 227.569 81.0788C227.726 80.6235 228.057 80.2468 228.491 80.0315L238.304 75.1624L235.095 68.696L230.189 71.1306C228.454 71.9915 226.452 72.1359 224.623 71.532C222.795 70.9281 221.289 69.6254 220.438 67.9104L209.209 45.2783C208.358 43.5634 208.231 41.5766 208.856 39.7552C209.481 37.9338 210.807 36.4268 212.542 35.5659L225.626 29.0737C227.361 28.2127 229.363 28.0684 231.192 28.6723C233.021 29.2762 234.526 30.5789 235.377 32.2939L246.607 54.926C247.458 56.6409 247.584 58.6277 246.959 60.4491C246.334 62.2705 245.008 63.7775 243.273 64.6384L238.367 67.073Z" fill="#0E0D14"/>
<path d="M304.79 46.2551L290.706 52.8226L265.266 37.1895L275.798 59.7747L261.714 66.3422L240.769 21.4256L254.853 14.8581L280.471 30.8718L269.762 7.90601L283.846 1.33852L304.79 46.2551ZM344.197 -26.804L365.142 18.1127L351.122 24.6506L340.679 2.25569L344.207 27.8751L332.153 33.496L314.795 14.3257L325.238 36.7205L311.153 43.288L290.209 -1.62859L307.465 -9.67524L329.934 12.6724L327.005 -18.7869L344.197 -26.804ZM369.873 -25.1057L372.446 -19.5863L386.403 -26.0946L391.344 -15.4999L377.387 -8.99155L380.345 -2.6474L396.205 -10.0432L401.442 1.18593L371.497 15.1492L350.552 -29.7674L380.497 -43.7307L385.733 -32.5015L369.873 -25.1057ZM449.826 -21.3762L435.742 -14.8087L410.302 -30.4418L420.834 -7.85661L406.749 -1.28912L385.805 -46.2057L399.889 -52.7732L425.506 -36.7595L414.797 -59.7253L428.881 -66.2928L449.826 -21.3762ZM470.518 -85.7082L475.724 -74.5425L463.797 -68.9808L479.536 -35.2299L465.452 -28.6624L449.713 -62.4133L437.913 -56.9109L432.707 -68.0766L470.518 -85.7082Z" fill="#0E0D14"/>
<path d="M5.08898 413.45L7.66273 418.969L21.6199 412.461L26.5603 423.056L12.6031 429.564L15.5615 435.908L31.4219 428.513L36.6581 439.742L6.71368 453.705L-14.2313 408.788L15.7131 394.825L20.9494 406.054L5.08898 413.45ZM85.0427 417.18L70.9587 423.747L45.5182 408.114L56.0499 430.699L41.9659 437.267L21.0209 392.35L35.1049 385.783L60.7228 401.796L50.0137 378.83L64.0977 372.263L85.0427 417.18ZM105.734 352.848L110.941 364.013L99.0138 369.575L114.752 403.326L100.668 409.893L84.9298 376.142L73.1297 381.645L67.923 370.479L105.734 352.848ZM128.874 355.728L131.448 361.247L145.405 354.739L150.346 365.334L136.388 371.842L139.347 378.186L155.207 370.79L160.443 382.02L130.499 395.983L109.554 351.066L139.498 337.103L144.735 348.332L128.874 355.728ZM188.336 369.013L172.385 356.833L172.321 356.863L179.835 372.977L165.751 379.545L144.806 334.628L165.742 324.865C169.379 323.169 172.794 322.375 175.985 322.483C179.157 322.549 181.899 323.407 184.214 325.057C186.55 326.645 188.369 328.835 189.671 331.626C191.071 334.629 191.468 337.688 190.861 340.803C190.296 343.898 188.686 346.683 186.029 349.158L203.816 361.795L188.336 369.013ZM167.943 347.474L173.526 344.87C174.879 344.239 175.756 343.47 176.157 342.562C176.538 341.612 176.422 340.482 175.811 339.17C175.259 337.986 174.465 337.223 173.431 336.882C172.438 336.521 171.287 336.646 169.976 337.257L164.393 339.861L167.943 347.474ZM222.581 298.361L227.787 309.527L215.86 315.089L231.599 348.839L217.515 355.407L201.776 321.656L189.976 327.158L184.769 315.993L222.581 298.361ZM272.983 321.277L258.01 328.259L258.955 336.083L244.173 342.976L239.66 290.397L255.901 282.824L293.214 320.108L278.368 327.03L272.983 321.277ZM264.616 312.28L254.728 301.676L256.496 316.067L264.616 312.28Z" fill="#0E0D14"/>
<path d="M302.491 299.463L310.669 295.405C311.536 294.975 312.199 294.221 312.512 293.311C312.825 292.4 312.761 291.407 312.336 290.549L311.534 288.932L306.627 291.367C306.193 291.582 305.693 291.618 305.236 291.467C304.778 291.316 304.402 290.991 304.189 290.562C303.977 290.133 303.945 289.637 304.101 289.181C304.257 288.726 304.589 288.349 305.023 288.134L309.929 285.699L307.523 280.85L302.616 283.284C302.183 283.499 301.682 283.535 301.225 283.384C300.768 283.234 300.391 282.908 300.179 282.479C299.966 282.05 299.934 281.554 300.09 281.098C300.247 280.643 300.578 280.266 301.012 280.051L305.919 277.616L303.512 272.767L298.606 275.201C298.172 275.416 297.671 275.453 297.214 275.302C296.757 275.151 296.381 274.825 296.168 274.396C295.955 273.967 295.924 273.471 296.08 273.015C296.236 272.56 296.568 272.183 297.001 271.968L301.908 269.534L301.106 267.917C300.68 267.059 299.928 266.408 299.013 266.106C298.099 265.804 297.098 265.876 296.231 266.307L283.146 272.799C282.279 273.23 281.616 273.983 281.303 274.894C280.991 275.804 281.054 276.798 281.48 277.655L282.282 279.272L287.188 276.837C287.622 276.622 288.123 276.586 288.58 276.737C289.037 276.888 289.413 277.214 289.626 277.642C289.839 278.071 289.87 278.568 289.714 279.023C289.558 279.478 289.226 279.855 288.793 280.07L283.886 282.505L286.292 287.355L291.199 284.92C291.633 284.705 292.133 284.669 292.59 284.82C293.047 284.971 293.424 285.296 293.637 285.725C293.849 286.154 293.881 286.651 293.725 287.106C293.568 287.561 293.237 287.938 292.803 288.153L287.897 290.588L290.303 295.438L295.21 293.003C295.643 292.788 296.144 292.752 296.601 292.903C297.058 293.054 297.434 293.379 297.647 293.808C297.86 294.237 297.892 294.734 297.735 295.189C297.579 295.644 297.248 296.021 296.814 296.236L291.907 298.671L292.709 300.287C293.135 301.145 293.888 301.796 294.802 302.098C295.716 302.4 296.717 302.328 297.585 301.897L302.491 299.463ZM307.367 301.073L310.575 307.539L320.388 302.67C320.822 302.455 321.322 302.419 321.78 302.57C322.237 302.721 322.613 303.046 322.826 303.475C323.039 303.904 323.07 304.401 322.914 304.856C322.758 305.311 322.426 305.688 321.992 305.903L299.095 317.265C298.661 317.48 298.161 317.516 297.704 317.365C297.247 317.214 296.87 316.888 296.657 316.46C296.445 316.031 296.413 315.534 296.569 315.079C296.726 314.623 297.057 314.247 297.491 314.032L307.304 309.162L304.095 302.696L299.189 305.131C297.454 305.992 295.452 306.136 293.623 305.532C291.795 304.928 290.289 303.625 289.438 301.91L278.209 279.278C277.358 277.563 277.231 275.577 277.856 273.755C278.481 271.934 279.807 270.427 281.542 269.566L294.626 263.074C296.361 262.213 298.363 262.068 300.192 262.672C302.021 263.276 303.526 264.579 304.377 266.294L315.607 288.926C316.458 290.641 316.584 292.628 315.959 294.449C315.334 296.271 314.008 297.777 312.273 298.638L307.367 301.073Z" fill="#0E0D14"/>
<path d="M373.79 280.255L359.706 286.823L334.266 271.19L344.798 293.775L330.714 300.342L309.769 255.426L323.853 248.858L349.471 264.872L338.762 241.906L352.846 235.339L373.79 280.255ZM413.197 207.196L434.142 252.113L420.122 258.651L409.679 236.256L413.207 261.875L401.153 267.496L383.795 248.326L394.238 270.721L380.153 277.288L359.209 232.371L376.465 224.325L398.934 246.672L396.005 215.213L413.197 207.196ZM438.873 208.894L441.446 214.414L455.403 207.905L460.344 218.5L446.387 225.008L449.345 231.353L465.205 223.957L470.442 235.186L440.497 249.149L419.552 204.233L449.497 190.269L454.733 201.498L438.873 208.894ZM518.826 212.624L504.742 219.191L479.302 203.558L489.834 226.143L475.749 232.711L454.805 187.794L468.889 181.227L494.506 197.241L483.797 174.275L497.881 167.707L518.826 212.624ZM539.518 148.292L544.724 159.458L532.797 165.019L548.536 198.77L534.452 205.338L518.713 171.587L506.913 177.089L501.707 165.923L539.518 148.292Z" fill="#0E0D14"/>
<path d="M52.0462 64.4335C55.0489 63.8057 57.7539 64.1406 60.1611 65.4381C62.5909 66.6737 64.4074 68.5814 65.6104 71.1614C67.4446 75.0947 67.5535 78.7513 65.937 82.1311C64.3432 85.4489 61.1143 88.2418 56.2505 90.5098L32.7137 101.485L11.7687 56.5686L34.6711 45.8891C39.2389 43.7591 43.2974 43.0766 46.8466 43.8417C50.3958 44.6067 53.0579 46.8925 54.8329 50.699C56.0557 53.3212 56.3932 55.8671 55.8456 58.3366C55.3205 60.7441 54.054 62.7764 52.0462 64.4335ZM34.0177 67.511L39.4737 64.9668C40.7425 64.3752 41.5547 63.6875 41.9101 62.9039C42.3079 62.1005 42.2602 61.1702 41.7672 60.1128C41.2544 59.0131 40.5625 58.3575 39.6914 58.1458C38.8429 57.8721 37.7842 58.031 36.5154 58.6227L31.0594 61.1669L34.0177 67.511ZM47.9395 80.6373C49.2083 80.0456 50.0303 79.3791 50.4055 78.6377C50.8032 77.8344 50.7457 76.8829 50.2329 75.7832C49.2271 73.6262 47.4765 73.1295 44.9811 74.2931L38.5736 77.281L41.5319 83.6252L47.9395 80.6373ZM101.719 61.0432L86.7468 68.0249L87.6917 75.8486L72.9098 82.7415L68.3962 30.1628L84.6373 22.5895L121.95 59.8736L107.105 66.7961L101.719 61.0432ZM93.3527 52.046L83.4646 41.4414L85.2322 55.8327L93.3527 52.046ZM168.227 38.2944L154.143 44.8619L128.702 29.2288L139.234 51.814L125.15 58.3815L104.205 13.4649L118.289 6.89738L143.907 22.9112L133.198 -0.0546855L147.282 -6.62217L168.227 38.2944Z" fill="#0E0D14"/>
<path d="M186.351 -24.3965L156.646 -10.2534C155.474 -9.69546 154.976 -8.29321 155.534 -7.12138L173.718 31.0707C174.276 32.2425 175.679 32.7402 176.85 32.1822L206.555 18.0392C207.727 17.4812 208.225 16.079 207.667 14.9071L189.483 -23.2849C188.925 -24.4567 187.523 -24.9544 186.351 -24.3965Z" stroke="#0E0D14" stroke-width="4" stroke-linecap="round" stroke-linejoin="round"/>
<path d="M179.58 -0.349749C182.509 -1.74457 183.754 -5.25018 182.359 -8.17975C180.964 -11.1093 177.458 -12.3535 174.529 -10.9587C171.599 -9.56383 170.355 -6.05822 171.75 -3.12865C173.145 -0.199083 176.65 1.04507 179.58 -0.349749Z" stroke="#0E0D14" stroke-width="4"/>
<path d="M179.073 25.9179C180.245 25.36 180.743 23.9577 180.185 22.7859C179.627 21.6141 178.225 21.1164 177.053 21.6743C175.881 22.2323 175.384 23.6345 175.941 24.8064C176.499 25.9782 177.902 26.4758 179.073 25.9179Z" fill="#0E0D14"/>
<path d="M200.291 15.8154C201.463 15.2574 201.96 13.8552 201.402 12.6834C200.844 11.5115 199.442 11.0139 198.27 11.5718C197.099 12.1297 196.601 13.532 197.159 14.7038C197.717 15.8756 199.119 16.3733 200.291 15.8154Z" fill="#0E0D14"/>
<path d="M188.672 18.7454C192.188 17.0717 193.681 12.8649 192.007 9.34944C190.333 5.83395 186.126 4.34096 182.611 6.01475C179.095 7.68854 177.602 11.8953 179.276 15.4108C180.95 18.9262 185.157 20.4192 188.672 18.7454Z" stroke="#0E0D14" stroke-width="4"/>
<path d="M176.484 157.068C173.851 151.421 172.636 145.867 172.838 140.404C173.094 134.917 174.782 129.972 177.902 125.571C180.996 121.117 185.421 117.548 191.175 114.865C196.122 112.558 200.97 111.443 205.72 111.52C210.498 111.517 214.886 112.646 218.886 114.905C222.939 117.14 226.423 120.327 229.335 124.468L210.461 133.27C208.723 131.789 206.809 130.914 204.719 130.644C202.658 130.296 200.606 130.598 198.563 131.551C195.551 132.955 193.685 135.2 192.964 138.286C192.296 141.347 192.852 144.787 194.633 148.605C196.413 152.423 198.69 155.06 201.464 156.516C204.292 157.947 207.211 157.96 210.223 156.556C212.266 155.603 213.829 154.252 214.912 152.503C216.024 150.676 216.571 148.62 216.554 146.337L235.429 137.535C236.729 142.429 236.931 147.146 236.038 151.687C235.197 156.203 233.253 160.318 230.206 164.03C227.186 167.664 223.203 170.634 218.256 172.941C212.502 175.624 206.937 176.746 201.56 176.307C196.159 175.815 191.274 173.903 186.905 170.572C182.591 167.215 179.117 162.714 176.484 157.068ZM280.273 144.218C274.896 146.726 269.36 147.769 263.664 147.348C258.022 146.902 252.843 145.062 248.127 141.827C243.411 138.592 239.749 134.179 237.141 128.586C234.533 122.994 233.506 117.352 234.06 111.66C234.613 105.968 236.545 100.844 239.855 96.2894C243.193 91.6557 247.551 88.0851 252.929 85.5775C258.306 83.07 263.816 82.0393 269.458 82.4854C275.074 82.8778 280.214 84.7038 284.876 87.9635C289.593 91.198 293.255 95.6116 295.862 101.204C298.47 106.797 299.497 112.439 298.944 118.131C298.444 123.798 296.525 128.948 293.186 133.582C289.901 138.19 285.597 141.736 280.273 144.218ZM272.488 127.521C276.037 125.866 278.253 123.458 279.135 120.297C279.993 117.082 279.519 113.539 277.714 109.667C275.883 105.742 273.473 103.101 270.484 101.745C267.47 100.335 264.189 100.458 260.639 102.113C257.037 103.793 254.806 106.241 253.949 109.456C253.066 112.617 253.54 116.16 255.37 120.086C257.176 123.958 259.586 126.598 262.6 128.008C265.589 129.364 268.885 129.202 272.488 127.521ZM370.519 101.449L352.612 109.799L320.267 89.9224L333.657 118.638L315.75 126.988L289.12 69.8797L307.027 61.5296L339.598 81.89L325.982 52.6905L343.889 44.3404L370.519 101.449ZM363.643 69.7937C361.011 64.1474 359.795 58.5929 359.998 53.1303C360.254 47.6425 361.942 42.6983 365.061 38.2975C368.156 33.8429 372.58 30.2741 378.334 27.591C383.281 25.2841 388.13 24.169 392.879 24.2457C397.657 24.2435 402.046 25.3721 406.046 27.6315C410.099 29.8658 413.582 33.0534 416.495 37.1943L397.62 45.9958C395.882 44.5149 393.968 43.6397 391.879 43.3702C389.818 43.0219 387.766 43.3242 385.722 44.2771C382.711 45.6813 380.845 47.9264 380.123 51.0124C379.456 54.0733 380.012 57.5128 381.792 61.3308C383.573 65.1487 385.85 67.7858 388.624 69.2419C391.451 70.6729 394.371 70.6863 397.382 69.2821C399.426 68.3292 400.989 66.9784 402.072 65.2295C403.184 63.4017 403.731 61.3462 403.714 59.0629L422.588 50.2614C423.888 55.1546 424.091 59.8718 423.197 64.4131C422.357 68.9292 420.413 73.0436 417.365 76.7562C414.346 80.39 410.363 83.3603 405.416 85.6672C399.662 88.3503 394.097 89.4724 388.72 89.0335C383.318 88.5408 378.433 86.6289 374.065 83.2976C369.75 79.9413 366.276 75.44 363.643 69.7937Z" fill="#0E0D14"/>
<path d="M444.032 36.3549C443.729 35.9819 443.303 35.7282 442.831 35.6386C442.359 35.5491 441.87 35.6294 441.452 35.8655L405.169 54.3515C404.888 54.4412 404.629 54.591 404.412 54.7905C404.194 54.9901 404.023 55.2345 403.909 55.507C403.795 55.7794 403.742 56.0733 403.753 56.3684C403.765 56.6634 403.84 56.9524 403.974 57.2155C404.108 57.4785 404.297 57.7093 404.53 57.8917C404.762 58.0742 405.031 58.204 405.318 58.2722C405.605 58.3403 405.904 58.3452 406.193 58.2865C406.482 58.2277 406.755 58.1068 406.993 57.932L443.276 39.446C443.534 39.3221 443.763 39.1452 443.948 38.9268C444.133 38.7084 444.27 38.4534 444.35 38.1784C444.43 37.9035 444.451 37.6148 444.412 37.3312C444.373 37.0476 444.274 36.7754 444.122 36.5325C444.095 36.472 444.065 36.4127 444.032 36.3549ZM430.447 14.4125C430.144 14.0395 429.719 13.7858 429.246 13.6962C428.774 13.6067 428.285 13.687 427.867 13.9231L395.403 30.4632C395.122 30.5529 394.864 30.7027 394.646 30.9022C394.429 31.1018 394.257 31.3462 394.143 31.6187C394.03 31.8911 393.976 32.185 393.988 32.4801C393.999 32.7751 394.074 33.0641 394.208 33.3272C394.342 33.5902 394.532 33.821 394.764 34.0034C394.996 34.1859 395.265 34.3157 395.552 34.3839C395.839 34.4521 396.138 34.4569 396.427 34.3982C396.717 34.3394 396.99 34.2185 397.228 34.0437L429.691 17.5036C429.949 17.3797 430.178 17.2028 430.363 16.9844C430.549 16.766 430.685 16.511 430.765 16.236C430.845 15.9611 430.866 15.6724 430.827 15.3888C430.788 15.1051 430.689 14.833 430.537 14.5901C430.51 14.5295 430.48 14.4703 430.447 14.4125ZM433.475 34.5179C433.171 34.1449 432.746 33.8912 432.274 33.8016C431.802 33.712 431.313 33.7924 430.894 34.0284L409.889 44.7308C409.607 44.8198 409.347 44.9692 409.129 45.1686C408.91 45.368 408.738 45.6125 408.624 45.8853C408.509 46.1581 408.456 46.4525 408.467 46.7481C408.478 47.0437 408.553 47.3333 408.687 47.5968C408.821 47.8604 409.012 48.0915 409.244 48.2741C409.477 48.4567 409.746 48.5865 410.034 48.6543C410.322 48.7221 410.622 48.7264 410.911 48.6669C411.201 48.6073 411.474 48.4853 411.712 48.3095L432.718 37.6071C432.976 37.4833 433.204 37.3066 433.389 37.0886C433.574 36.8705 433.711 36.616 433.791 36.3415C433.871 36.067 433.892 35.7787 433.854 35.4955C433.815 35.2122 433.717 34.9403 433.566 34.6974C433.538 34.6355 433.508 34.5768 433.475 34.5179ZM419.89 12.5755C419.587 12.2025 419.161 11.9487 418.689 11.8592C418.217 11.7696 417.728 11.85 417.31 12.086L400.123 20.8425C399.841 20.9315 399.582 21.0809 399.363 21.2803C399.145 21.4797 398.972 21.7242 398.858 21.997C398.744 22.2698 398.69 22.5642 398.701 22.8598C398.712 23.1554 398.787 23.445 398.921 23.7085C399.056 23.9721 399.246 24.2032 399.478 24.3858C399.711 24.5685 399.981 24.6982 400.269 24.766C400.557 24.8338 400.856 24.8381 401.146 24.7786C401.435 24.719 401.708 24.597 401.946 24.4212L419.133 15.6647C419.391 15.5409 419.619 15.3642 419.804 15.1462C419.989 14.9281 420.126 14.6736 420.206 14.3991C420.286 14.1246 420.308 13.8363 420.269 13.5531C420.23 13.2698 420.132 12.9978 419.981 12.755C419.953 12.6931 419.923 12.6344 419.89 12.5755ZM423.818 25.0061C423.515 24.6331 423.089 24.3794 422.617 24.2898C422.145 24.2002 421.656 24.2806 421.238 24.5167L407.87 31.3273C407.588 31.4163 407.329 31.5656 407.11 31.765C406.892 31.9644 406.72 32.209 406.605 32.4817C406.491 32.7545 406.437 33.0489 406.448 33.3445C406.459 33.6401 406.534 33.9297 406.669 34.1933C406.803 34.4568 406.993 34.6879 407.226 34.8706C407.458 35.0532 407.728 35.1829 408.016 35.2507C408.304 35.3186 408.603 35.3229 408.893 35.2633C409.183 35.2037 409.456 35.0818 409.694 34.9059L423.061 28.0953C423.319 27.9715 423.547 27.7949 423.732 27.5768C423.917 27.3588 424.054 27.1042 424.134 26.8297C424.214 26.5552 424.236 26.267 424.197 25.9837C424.158 25.7004 424.06 25.4285 423.909 25.1856C423.881 25.1237 423.851 25.0651 423.818 25.0061ZM435.493 47.9214C435.19 47.5484 434.765 47.2947 434.292 47.2051C433.82 47.1156 433.332 47.1959 432.913 47.432L419.546 54.2426C419.264 54.3324 419.006 54.4822 418.788 54.6817C418.571 54.8812 418.399 55.1257 418.285 55.3981C418.172 55.6706 418.119 55.9645 418.13 56.2595C418.141 56.5545 418.216 56.8436 418.35 57.1066C418.484 57.3697 418.674 57.6004 418.906 57.7829C419.138 57.9654 419.407 58.0952 419.694 58.1634C419.982 58.2315 420.28 58.2364 420.57 58.1776C420.859 58.1189 421.132 57.9979 421.37 57.8232L434.737 51.0125C434.995 50.8887 435.224 50.7117 435.41 50.4933C435.595 50.2749 435.732 50.0199 435.811 49.7449C435.891 49.47 435.912 49.1813 435.873 48.8977C435.834 48.6141 435.735 48.3419 435.584 48.099C435.556 48.0385 435.526 47.9792 435.493 47.9214ZM411.242 9.76546C410.939 9.39248 410.514 9.13874 410.041 9.04917C409.569 8.9596 409.08 9.03996 408.662 9.27604L402.933 12.1949C402.652 12.2846 402.393 12.4344 402.176 12.6339C401.958 12.8335 401.787 13.0779 401.673 13.3504C401.559 13.6228 401.506 13.9168 401.517 14.2118C401.528 14.5068 401.604 14.7958 401.738 15.0589C401.872 15.3219 402.061 15.5527 402.293 15.7352C402.525 15.9176 402.794 16.0474 403.082 16.1156C403.369 16.1838 403.668 16.1886 403.957 16.1299C404.246 16.0711 404.519 15.9502 404.757 15.7754L410.486 12.8566C410.744 12.7327 410.973 12.5558 411.158 12.3373C411.344 12.1189 411.481 11.8639 411.56 11.5889C411.64 11.314 411.661 11.0253 411.622 10.7417C411.583 10.4581 411.484 10.186 411.332 9.94306C411.305 9.88182 411.274 9.82192 411.241 9.76355L411.242 9.76546ZM422.917 32.6808C422.614 32.3078 422.189 32.0541 421.717 31.9645C421.244 31.875 420.756 31.9553 420.337 32.1914L414.608 35.1102C414.326 35.1992 414.067 35.3486 413.848 35.548C413.63 35.7473 413.458 35.9919 413.343 36.2647C413.229 36.5375 413.175 36.8319 413.186 37.1275C413.197 37.423 413.272 37.7127 413.407 37.9762C413.541 38.2398 413.731 38.4709 413.964 38.6535C414.196 38.8361 414.466 38.9659 414.754 39.0337C415.042 39.1015 415.341 39.1058 415.631 39.0462C415.921 38.9867 416.194 38.8647 416.432 38.6888L422.16 35.77C422.418 35.6462 422.647 35.4696 422.832 35.2515C423.017 35.0335 423.154 34.7789 423.234 34.5044C423.314 34.2299 423.335 33.9417 423.296 33.6584C423.258 33.3751 423.16 33.1032 423.009 32.8603C422.981 32.7984 422.951 32.7398 422.917 32.6808ZM434.593 55.5962C434.29 55.2232 433.864 54.9694 433.392 54.8799C432.92 54.7903 432.431 54.8707 432.013 55.1067L426.284 58.0256C426.002 58.1153 425.744 58.2651 425.526 58.4647C425.309 58.6642 425.137 58.9086 425.024 59.1811C424.91 59.4535 424.857 59.7475 424.868 60.0425C424.879 60.3375 424.954 60.6265 425.088 60.8896C425.222 61.1526 425.412 61.3834 425.644 61.5659C425.876 61.7483 426.145 61.8781 426.432 61.9463C426.72 62.0145 427.018 62.0193 427.308 61.9606C427.597 61.9019 427.87 61.7809 428.108 61.6061L433.837 58.6873C434.095 58.5634 434.324 58.3865 434.509 58.168C434.694 57.9496 434.831 57.6946 434.911 57.4196C434.991 57.1447 435.012 56.856 434.973 56.5724C434.933 56.2888 434.835 56.0167 434.683 55.7738C434.656 55.7132 434.626 55.6539 434.593 55.5962Z" fill="#0E0D14"/>
<path d="M-7.33704 609.586C-9.73328 604.447 -10.8393 599.392 -10.6552 594.421C-10.4221 589.426 -8.88586 584.926 -6.04652 580.921C-3.22999 576.867 0.796594 573.619 6.03324 571.177C10.5358 569.078 14.9483 568.063 19.2708 568.132C23.6194 568.13 27.6137 569.158 31.2538 571.214C34.9428 573.247 38.1128 576.148 40.7639 579.917L23.5858 587.927C22.004 586.58 20.2622 585.783 18.3603 585.538C16.4846 585.221 14.6169 585.496 12.7572 586.363C10.0165 587.641 8.31789 589.685 7.66135 592.493C7.05375 595.279 7.56011 598.409 9.18042 601.884C10.8007 605.359 12.8732 607.759 15.3978 609.084C17.9713 610.386 20.6284 610.399 23.3691 609.121C25.2289 608.253 26.6516 607.024 27.6372 605.432C28.649 603.769 29.1471 601.898 29.1314 599.82L46.3095 591.81C47.4924 596.263 47.6771 600.556 46.8636 604.689C46.099 608.799 44.3298 612.544 41.5558 615.923C38.808 619.23 35.1829 621.933 30.6803 624.033C25.4437 626.475 20.3787 627.496 15.4855 627.097C10.5694 626.648 6.12342 624.908 2.14762 621.876C-1.77924 618.822 -4.94079 614.725 -7.33704 609.586ZM87.1232 597.892C82.2292 600.174 77.1903 601.124 72.0067 600.74C66.872 600.334 62.1586 598.659 57.8663 595.716C53.574 592.772 50.2412 588.755 47.8678 583.665C45.4943 578.575 44.5596 573.44 45.0635 568.26C45.5674 563.08 47.3255 558.417 50.3378 554.271C53.3762 550.054 57.3424 546.804 62.2365 544.522C67.1306 542.24 72.1449 541.302 77.2796 541.708C82.3915 542.065 87.0691 543.727 91.3124 546.694C95.6047 549.637 98.9375 553.654 101.311 558.744C103.684 563.834 104.619 568.969 104.115 574.149C103.66 579.307 101.914 583.994 98.8751 588.211C95.8856 592.406 91.9684 595.633 87.1232 597.892ZM80.0372 582.696C83.2673 581.19 85.284 578.998 86.0874 576.121C86.8679 573.195 86.4366 569.97 84.7935 566.446C83.1275 562.874 80.9343 560.47 78.214 559.236C75.4708 557.954 72.4842 558.065 69.2541 559.571C65.9751 561.1 63.9453 563.328 63.1647 566.254C62.3614 569.131 62.7927 572.356 64.4586 575.929C66.1018 579.452 68.2949 581.856 71.0381 583.139C73.7585 584.372 76.7582 584.225 80.0372 582.696ZM169.257 558.967L152.96 566.566L123.522 548.477L135.708 574.611L119.411 582.21L95.1746 530.235L111.472 522.636L141.115 541.166L128.723 514.591L145.021 506.992L169.257 558.967ZM162.999 530.157C160.603 525.018 159.497 519.963 159.681 514.992C159.914 509.997 161.45 505.497 164.29 501.492C167.106 497.438 171.133 494.19 176.37 491.748C180.872 489.648 185.285 488.634 189.607 488.703C193.956 488.701 197.95 489.728 201.59 491.785C205.279 493.818 208.449 496.719 211.1 500.488L193.922 508.498C192.34 507.151 190.598 506.354 188.697 506.109C186.821 505.792 184.953 506.067 183.093 506.934C180.353 508.212 178.654 510.255 177.998 513.064C177.39 515.85 177.896 518.98 179.517 522.455C181.137 525.93 183.209 528.33 185.734 529.655C188.308 530.957 190.965 530.97 193.705 529.692C195.565 528.824 196.988 527.595 197.974 526.003C198.985 524.34 199.483 522.469 199.468 520.391L216.646 512.381C217.829 516.834 218.013 521.127 217.2 525.26C216.435 529.37 214.666 533.115 211.892 536.494C209.144 539.801 205.519 542.504 201.017 544.604C195.78 547.046 190.715 548.067 185.822 547.668C180.906 547.219 176.46 545.479 172.484 542.447C168.557 539.393 165.396 535.296 162.999 530.157Z" fill="#0E0D14"/>
<path d="M263.032 494.355C262.729 493.982 262.303 493.728 261.831 493.639C261.359 493.549 260.87 493.629 260.452 493.866L224.169 512.351C223.888 512.441 223.629 512.591 223.412 512.791C223.194 512.99 223.023 513.235 222.909 513.507C222.795 513.779 222.742 514.073 222.753 514.368C222.765 514.663 222.84 514.952 222.974 515.215C223.108 515.479 223.297 515.709 223.53 515.892C223.762 516.074 224.031 516.204 224.318 516.272C224.605 516.34 224.904 516.345 225.193 516.286C225.482 516.228 225.755 516.107 225.993 515.932L262.276 497.446C262.534 497.322 262.763 497.145 262.948 496.927C263.133 496.708 263.27 496.453 263.35 496.178C263.43 495.903 263.451 495.615 263.412 495.331C263.373 495.048 263.274 494.775 263.122 494.533C263.095 494.472 263.065 494.413 263.032 494.355ZM249.447 472.413C249.144 472.04 248.719 471.786 248.246 471.696C247.774 471.607 247.285 471.687 246.867 471.923L214.403 488.463C214.122 488.553 213.864 488.703 213.646 488.902C213.429 489.102 213.257 489.346 213.143 489.619C213.03 489.891 212.976 490.185 212.988 490.48C212.999 490.775 213.074 491.064 213.208 491.327C213.342 491.59 213.532 491.821 213.764 492.003C213.996 492.186 214.265 492.316 214.552 492.384C214.839 492.452 215.138 492.457 215.427 492.398C215.717 492.339 215.99 492.218 216.228 492.044L248.691 475.504C248.949 475.38 249.178 475.203 249.363 474.984C249.549 474.766 249.685 474.511 249.765 474.236C249.845 473.961 249.866 473.672 249.827 473.389C249.788 473.105 249.689 472.833 249.537 472.59C249.51 472.53 249.48 472.47 249.447 472.413ZM252.475 492.518C252.171 492.145 251.746 491.891 251.274 491.802C250.802 491.712 250.313 491.792 249.894 492.028L228.889 502.731C228.607 502.82 228.347 502.969 228.129 503.169C227.91 503.368 227.738 503.613 227.624 503.885C227.509 504.158 227.456 504.453 227.467 504.748C227.478 505.044 227.553 505.333 227.687 505.597C227.821 505.86 228.012 506.091 228.244 506.274C228.477 506.457 228.746 506.586 229.034 506.654C229.322 506.722 229.622 506.726 229.911 506.667C230.201 506.607 230.474 506.485 230.712 506.309L251.718 495.607C251.976 495.483 252.204 495.307 252.389 495.089C252.574 494.871 252.711 494.616 252.791 494.341C252.871 494.067 252.892 493.779 252.854 493.495C252.815 493.212 252.717 492.94 252.566 492.697C252.538 492.635 252.508 492.577 252.475 492.518ZM238.89 470.575C238.587 470.202 238.161 469.949 237.689 469.859C237.217 469.77 236.728 469.85 236.31 470.086L219.123 478.843C218.841 478.932 218.582 479.081 218.363 479.28C218.145 479.48 217.972 479.724 217.858 479.997C217.744 480.27 217.69 480.564 217.701 480.86C217.712 481.155 217.787 481.445 217.921 481.709C218.056 481.972 218.246 482.203 218.478 482.386C218.711 482.568 218.981 482.698 219.269 482.766C219.557 482.834 219.856 482.838 220.146 482.779C220.435 482.719 220.708 482.597 220.946 482.421L238.133 473.665C238.391 473.541 238.619 473.364 238.804 473.146C238.989 472.928 239.126 472.674 239.206 472.399C239.286 472.125 239.308 471.836 239.269 471.553C239.23 471.27 239.132 470.998 238.981 470.755C238.953 470.693 238.923 470.634 238.89 470.575ZM242.818 483.006C242.515 482.633 242.089 482.379 241.617 482.29C241.145 482.2 240.656 482.281 240.238 482.517L226.87 489.327C226.588 489.416 226.329 489.566 226.11 489.765C225.892 489.964 225.72 490.209 225.605 490.482C225.491 490.755 225.437 491.049 225.448 491.345C225.459 491.64 225.534 491.93 225.669 492.193C225.803 492.457 225.993 492.688 226.226 492.871C226.458 493.053 226.728 493.183 227.016 493.251C227.304 493.319 227.603 493.323 227.893 493.263C228.183 493.204 228.456 493.082 228.694 492.906L242.061 486.095C242.319 485.972 242.547 485.795 242.732 485.577C242.917 485.359 243.054 485.104 243.134 484.83C243.214 484.555 243.236 484.267 243.197 483.984C243.158 483.7 243.06 483.428 242.909 483.186C242.881 483.124 242.851 483.065 242.818 483.006ZM254.493 505.921C254.19 505.548 253.765 505.295 253.292 505.205C252.82 505.116 252.332 505.196 251.913 505.432L238.546 512.243C238.264 512.332 238.006 512.482 237.788 512.682C237.571 512.881 237.399 513.126 237.285 513.398C237.172 513.671 237.119 513.965 237.13 514.26C237.141 514.555 237.216 514.844 237.35 515.107C237.484 515.37 237.674 515.6 237.906 515.783C238.138 515.965 238.407 516.095 238.694 516.163C238.982 516.232 239.28 516.236 239.57 516.178C239.859 516.119 240.132 515.998 240.37 515.823L253.737 509.013C253.995 508.889 254.224 508.712 254.41 508.493C254.595 508.275 254.732 508.02 254.811 507.745C254.891 507.47 254.912 507.181 254.873 506.898C254.834 506.614 254.735 506.342 254.584 506.099C254.556 506.038 254.526 505.979 254.493 505.921ZM230.242 467.765C229.939 467.392 229.514 467.139 229.041 467.049C228.569 466.96 228.08 467.04 227.662 467.276L221.933 470.195C221.652 470.285 221.393 470.434 221.176 470.634C220.958 470.833 220.787 471.078 220.673 471.35C220.559 471.623 220.506 471.917 220.517 472.212C220.528 472.507 220.604 472.796 220.738 473.059C220.872 473.322 221.061 473.553 221.293 473.735C221.525 473.918 221.794 474.047 222.082 474.116C222.369 474.184 222.668 474.189 222.957 474.13C223.246 474.071 223.519 473.95 223.757 473.775L229.486 470.857C229.744 470.733 229.973 470.556 230.158 470.337C230.344 470.119 230.481 469.864 230.56 469.589C230.64 469.314 230.661 469.025 230.622 468.742C230.583 468.458 230.484 468.186 230.332 467.943C230.305 467.882 230.274 467.822 230.241 467.764L230.242 467.765ZM241.917 490.681C241.614 490.308 241.189 490.054 240.717 489.965C240.244 489.875 239.756 489.955 239.337 490.191L233.608 493.11C233.326 493.199 233.067 493.349 232.848 493.548C232.63 493.747 232.458 493.992 232.343 494.265C232.229 494.537 232.175 494.832 232.186 495.127C232.197 495.423 232.272 495.713 232.407 495.976C232.541 496.24 232.731 496.471 232.964 496.654C233.196 496.836 233.466 496.966 233.754 497.034C234.042 497.102 234.341 497.106 234.631 497.046C234.921 496.987 235.194 496.865 235.432 496.689L241.16 493.77C241.418 493.646 241.647 493.47 241.832 493.252C242.017 493.033 242.154 492.779 242.234 492.504C242.314 492.23 242.335 491.942 242.296 491.658C242.258 491.375 242.16 491.103 242.009 490.86C241.981 490.798 241.951 490.74 241.917 490.681ZM253.593 513.596C253.29 513.223 252.864 512.969 252.392 512.88C251.92 512.79 251.431 512.871 251.013 513.107L245.284 516.026C245.002 516.115 244.744 516.265 244.526 516.465C244.309 516.664 244.137 516.909 244.024 517.181C243.91 517.454 243.857 517.747 243.868 518.042C243.879 518.337 243.954 518.627 244.088 518.89C244.222 519.153 244.412 519.383 244.644 519.566C244.876 519.748 245.145 519.878 245.432 519.946C245.72 520.014 246.018 520.019 246.308 519.961C246.597 519.902 246.87 519.781 247.108 519.606L252.837 516.687C253.095 516.563 253.324 516.386 253.509 516.168C253.694 515.95 253.831 515.695 253.911 515.42C253.991 515.145 254.012 514.856 253.973 514.572C253.933 514.289 253.835 514.017 253.683 513.774C253.656 513.713 253.626 513.654 253.593 513.596Z" fill="#0E0D14"/>
<path d="M304.703 495.097L286.244 481.003L286.171 481.037L294.865 499.684L278.568 507.283L254.332 455.308L278.558 444.012C282.766 442.049 286.717 441.13 290.41 441.255C294.08 441.331 297.254 442.324 299.932 444.233C302.636 446.071 304.741 448.605 306.247 451.835C307.867 455.309 308.326 458.849 307.624 462.454C306.97 466.035 305.107 469.258 302.033 472.121L322.615 486.744L304.703 495.097ZM281.104 470.173L287.564 467.16C289.13 466.43 290.145 465.54 290.609 464.489C291.05 463.39 290.916 462.082 290.209 460.565C289.57 459.194 288.652 458.312 287.455 457.916C286.306 457.499 284.974 457.643 283.456 458.351L276.996 461.363L281.104 470.173ZM344.328 413.342L350.353 426.263L336.552 432.698L354.763 471.753L338.466 479.353L320.254 440.298L306.6 446.665L300.575 433.745L344.328 413.342ZM393.559 454.288C387.343 457.186 381.531 458.139 376.123 457.145C370.74 456.08 366.566 452.814 363.599 447.345L380.924 439.266C382.561 442.138 384.578 443.014 386.976 441.896C387.857 441.485 388.5 440.947 388.905 440.282C389.335 439.544 389.345 438.735 388.935 437.855C388.364 436.631 387.247 435.96 385.583 435.842C383.897 435.675 381.43 435.753 378.184 436.075C374.309 436.452 371.007 436.592 368.28 436.493C365.602 436.371 362.977 435.599 360.407 434.176C357.837 432.753 355.789 430.342 354.263 426.942C352.689 423.565 352.21 420.303 352.827 417.155C353.471 413.935 355 411.017 357.415 408.402C359.879 405.763 362.995 403.565 366.763 401.808C373.126 398.841 378.851 397.959 383.94 399.161C389.078 400.34 392.988 403.551 395.672 408.795L378.126 416.976C377.393 415.531 376.535 414.65 375.553 414.333C374.571 414.016 373.591 414.086 372.612 414.542C371.927 414.862 371.478 415.369 371.266 416.064C371.031 416.71 371.107 417.449 371.495 418.281C372.043 419.455 373.136 420.137 374.773 420.327C376.437 420.445 378.939 420.381 382.28 420.134C386.129 419.828 389.369 419.747 391.998 419.892C394.677 420.013 397.267 420.712 399.768 421.988C402.27 423.265 404.228 425.42 405.643 428.454C407.127 431.635 407.679 434.864 407.299 438.139C406.897 441.365 405.534 444.384 403.211 447.195C400.887 450.007 397.67 452.371 393.559 454.288Z" fill="#0E0D14"/>
<path d="M-11.4744 261.548L-26.4622 268.496L-25.5043 276.307L-40.3016 283.167L-44.899 230.672L-28.6411 223.135L8.78977 260.409L-6.07101 267.298L-11.4744 261.548ZM-19.8681 252.554L-29.7885 241.953L-27.997 256.322L-19.8681 252.554ZM4.72823 207.666L16.5888 232.952C17.5599 235.023 18.7773 236.464 20.2411 237.277C21.7274 238.029 23.4867 237.933 25.5189 236.991C27.5512 236.049 28.7768 234.761 29.1957 233.126C29.5948 231.45 29.3088 229.576 28.3377 227.506L16.4771 202.219L30.5123 195.713L42.3729 220.999C44.3745 225.267 45.1995 229.333 44.8482 233.2C44.477 237.024 43.1027 240.413 40.7254 243.367C38.3482 246.32 35.2543 248.681 31.4438 250.447C27.6334 252.213 23.8896 253.023 20.2125 252.876C16.5777 252.709 13.2312 251.509 10.173 249.275C7.11477 247.04 4.57499 243.768 2.55363 239.459L-9.30696 214.172L4.72823 207.666ZM55.3279 184.209C60.0275 182.03 64.5802 181.077 68.9861 181.349C73.4343 181.601 77.4037 182.976 80.8943 185.473C84.3849 187.97 87.1409 191.373 89.1622 195.682C91.1638 199.949 92.0145 204.236 91.7145 208.541C91.4144 212.847 89.9519 216.817 87.3269 220.451C84.7244 224.024 81.0734 226.899 76.3738 229.078L57.639 237.763L36.5932 192.894L55.3279 184.209ZM69.2179 217.119C72.3933 215.647 74.5062 213.613 75.5566 211.017C76.607 208.421 76.3791 205.518 74.873 202.307C73.3669 199.096 71.2761 197.056 68.6007 196.187C65.9253 195.318 63 195.62 59.8246 197.092L56.4587 198.653L65.852 218.679L69.2179 217.119ZM97.8885 164.478L118.934 209.348L104.836 215.884L83.7898 171.014L97.8885 164.478Z" fill="#0E0D14"/>
<path d="M137.912 166.598C136.127 166.598 134.416 167.303 133.154 168.557C131.893 169.812 131.184 171.513 131.184 173.287C131.184 175.061 131.893 176.762 133.154 178.016C134.416 179.271 136.127 179.975 137.912 179.975C139.696 179.975 141.407 179.271 142.669 178.016C143.931 176.762 144.64 175.061 144.64 173.287C144.64 171.513 143.931 169.812 142.669 168.557C141.407 167.303 139.696 166.598 137.912 166.598ZM137.912 176.631C137.019 176.631 136.164 176.279 135.533 175.652C134.902 175.024 134.548 174.174 134.548 173.287C134.548 172.4 134.902 171.549 135.533 170.922C136.164 170.295 137.019 169.942 137.912 169.942C138.804 169.942 139.659 170.295 140.29 170.922C140.921 171.549 141.276 172.4 141.276 173.287C141.276 174.174 140.921 175.024 140.29 175.652C139.659 176.279 138.804 176.631 137.912 176.631Z" fill="#0E0D14"/>
<path d="M164.823 173.287C164.823 180.382 161.988 187.187 156.941 192.205C151.894 197.222 145.049 200.041 137.912 200.041C130.774 200.041 123.929 197.222 118.882 192.205C113.835 187.187 111 180.382 111 173.287C111 166.191 113.835 159.386 118.882 154.368C123.929 149.351 130.774 146.532 137.912 146.532C145.049 146.532 151.894 149.351 156.941 154.368C161.988 159.386 164.823 166.191 164.823 173.287ZM124.456 173.287C124.456 176.835 125.873 180.237 128.397 182.746C130.92 185.254 134.343 186.664 137.912 186.664C141.48 186.664 144.903 185.254 147.426 182.746C149.95 180.237 151.367 176.835 151.367 173.287C151.367 169.739 149.95 166.336 147.426 163.828C144.903 161.319 141.48 159.909 137.912 159.909C134.343 159.909 130.92 161.319 128.397 163.828C125.873 166.336 124.456 169.739 124.456 173.287Z" fill="#0E0D14"/>
<path d="M20.5256 693.548L5.53776 700.496L6.49565 708.307L-8.30163 715.167L-12.899 662.672L3.35894 655.135L40.7898 692.409L25.929 699.298L20.5256 693.548ZM12.1319 684.554L2.21147 673.953L4.00296 688.322L12.1319 684.554ZM36.7282 639.666L48.5888 664.952C49.5599 667.023 50.7773 668.464 52.2411 669.277C53.7274 670.029 55.4867 669.933 57.5189 668.991C59.5512 668.049 60.7768 666.761 61.1957 665.126C61.5948 663.45 61.3088 661.576 60.3377 659.506L48.4771 634.219L62.5123 627.713L74.3729 652.999C76.3745 657.267 77.1995 661.333 76.8482 665.2C76.477 669.024 75.1027 672.413 72.7254 675.367C70.3482 678.32 67.2543 680.681 63.4438 682.447C59.6334 684.213 55.8896 685.023 52.2125 684.876C48.5777 684.709 45.2312 683.509 42.173 681.275C39.1148 679.04 36.575 675.768 34.5536 671.459L22.693 646.172L36.7282 639.666ZM87.3279 616.209C92.0275 614.03 96.5802 613.077 100.986 613.349C105.434 613.601 109.404 614.976 112.894 617.473C116.385 619.97 119.141 623.373 121.162 627.682C123.164 631.949 124.015 636.236 123.714 640.541C123.414 644.847 121.952 648.817 119.327 652.451C116.724 656.024 113.073 658.899 108.374 661.078L89.639 669.763L68.5932 624.894L87.3279 616.209ZM101.218 649.119C104.393 647.647 106.506 645.613 107.557 643.017C108.607 640.421 108.379 637.518 106.873 634.307C105.367 631.096 103.276 629.056 100.601 628.187C97.9253 627.318 95 627.62 91.8246 629.092L88.4587 630.653L97.852 650.679L101.218 649.119ZM129.888 596.478L150.934 641.348L136.836 647.884L115.79 603.014L129.888 596.478Z" fill="#0E0D14"/>
<path d="M169.912 598.598C168.127 598.598 166.416 599.303 165.154 600.557C163.893 601.812 163.184 603.513 163.184 605.287C163.184 607.061 163.893 608.762 165.154 610.016C166.416 611.271 168.127 611.975 169.912 611.975C171.696 611.975 173.407 611.271 174.669 610.016C175.931 608.762 176.64 607.061 176.64 605.287C176.64 603.513 175.931 601.812 174.669 600.557C173.407 599.303 171.696 598.598 169.912 598.598ZM169.912 608.631C169.019 608.631 168.164 608.279 167.533 607.652C166.902 607.024 166.548 606.174 166.548 605.287C166.548 604.4 166.902 603.549 167.533 602.922C168.164 602.295 169.019 601.942 169.912 601.942C170.804 601.942 171.659 602.295 172.29 602.922C172.921 603.549 173.276 604.4 173.276 605.287C173.276 606.174 172.921 607.024 172.29 607.652C171.659 608.279 170.804 608.631 169.912 608.631Z" fill="#0E0D14"/>
<path d="M196.823 605.287C196.823 612.382 193.988 619.187 188.941 624.205C183.894 629.222 177.049 632.041 169.912 632.041C162.774 632.041 155.929 629.222 150.882 624.205C145.835 619.187 143 612.382 143 605.287C143 598.191 145.835 591.386 150.882 586.368C155.929 581.351 162.774 578.532 169.912 578.532C177.049 578.532 183.894 581.351 188.941 586.368C193.988 591.386 196.823 598.191 196.823 605.287ZM156.456 605.287C156.456 608.835 157.873 612.237 160.397 614.746C162.92 617.254 166.343 618.664 169.912 618.664C173.48 618.664 176.903 617.254 179.426 614.746C181.95 612.237 183.367 608.835 183.367 605.287C183.367 601.739 181.95 598.336 179.426 595.828C176.903 593.319 173.48 591.909 169.912 591.909C166.343 591.909 162.92 593.319 160.397 595.828C157.873 598.336 156.456 601.739 156.456 605.287Z" fill="#0E0D14"/>
<path d="M11.6537 490.309L15.8105 499.122L38.0959 488.61L46.075 505.527L23.7895 516.038L28.5674 526.168L53.8918 514.223L62.3486 532.153L14.5362 554.705L-19.2912 482.986L28.5213 460.434L36.9781 478.364L11.6537 490.309ZM109.221 422.371L118.94 505.461L89.8675 519.173L31.9314 458.826L55.8376 447.55L93.8953 489.906L85.3152 433.647L109.221 422.371ZM145.2 427.319L149.357 436.132L171.642 425.621L179.622 442.537L157.336 453.049L162.114 463.179L187.438 451.234L195.895 469.163L148.083 491.715L114.255 419.996L162.068 397.445L170.525 415.374L145.2 427.319ZM273.151 432.724L250.663 443.331L209.849 418.497L226.858 454.559L204.37 465.166L170.543 393.447L193.031 382.841L234.132 408.282L216.836 371.613L239.324 361.006L273.151 432.724Z" fill="#0E0D14"/>
<path d="M309.233 338.685L301.308 321.691C302.1 318.916 303.724 316.451 305.959 314.627C308.194 312.802 310.935 311.706 313.812 311.485C316.689 311.265 319.564 311.931 322.051 313.393C324.539 314.856 326.519 317.045 327.725 319.666C328.956 322.274 329.363 325.196 328.889 328.041C328.415 330.886 327.084 333.519 325.073 335.587C323.062 337.655 320.468 339.06 317.638 339.613C314.807 340.167 311.875 339.843 309.233 338.685ZM254.16 346.215L295.869 326.724L301.875 339.558L260.153 359.082L254.193 346.227L254.16 346.215ZM246.086 353.946L255.666 349.435L258.68 355.875L249.066 360.374L246.052 353.934L246.086 353.946Z" fill="#0E0D14"/>
<path d="M298.726 425.488L267.997 357.711L279.319 353.07L310.534 419.087L298.726 425.488Z" fill="#0E0D14"/>
<path d="M398.012 375.021C388.859 379.432 380.267 380.952 372.237 379.582C364.243 378.105 357.998 373.344 353.5 365.299L379.013 353.006C381.491 357.229 384.496 358.489 388.028 356.788C389.325 356.163 390.267 355.354 390.854 354.36C391.479 353.26 391.478 352.062 390.853 350.764C389.985 348.963 388.318 347.99 385.851 347.847C383.349 347.631 379.697 347.792 374.895 348.33C369.161 348.962 364.273 349.23 360.231 349.135C356.261 349.006 352.359 347.911 348.525 345.851C344.691 343.791 341.612 340.257 339.288 335.25C336.892 330.277 336.121 325.453 336.977 320.778C337.87 315.997 340.081 311.646 343.609 307.726C347.209 303.771 351.784 300.457 357.333 297.783C366.702 293.269 375.167 291.854 382.728 293.539C390.361 295.189 396.214 299.873 400.288 307.59L374.45 320.039C373.337 317.911 372.049 316.622 370.589 316.172C369.129 315.721 367.678 315.843 366.236 316.537C365.227 317.023 364.572 317.783 364.271 318.816C363.935 319.778 364.062 320.871 364.652 322.096C365.486 323.826 367.117 324.816 369.546 325.066C372.013 325.209 375.719 325.067 380.663 324.638C386.359 324.113 391.157 323.933 395.054 324.098C399.024 324.227 402.874 325.214 406.604 327.058C410.334 328.901 413.276 332.057 415.429 336.526C417.686 341.21 418.564 345.982 418.064 350.841C417.528 355.628 415.566 360.125 412.177 364.334C408.788 368.542 404.066 372.104 398.012 375.021Z" fill="#0E0D14"/>
<path d="M26.5363 784.506L30.1546 792.418L50.1616 783.268L57.1072 798.455L37.1001 807.605L41.2591 816.699L63.9944 806.301L71.3558 822.398L28.4317 842.028L-1.01409 777.642L41.9101 758.012L49.2715 774.108L26.5363 784.506ZM114.36 724.878L122.161 799.163L96.0612 811.099L44.9715 756.612L66.4336 746.796L99.9653 785.012L92.8974 734.694L114.36 724.878ZM146.429 729.675L150.048 737.587L170.055 728.437L177 743.624L156.993 752.774L161.152 761.868L183.887 751.471L191.249 767.567L148.325 787.198L118.879 722.811L161.803 703.181L169.164 719.278L146.429 729.675ZM260.606 735.848L240.417 745.081L204.24 722.48L219.046 754.855L198.857 764.088L169.412 699.701L189.6 690.468L226.027 713.615L210.972 680.695L231.16 671.462L260.606 735.848Z" fill="#0E0D14"/>
<path d="M290.741 653.553L284.053 638.758C284.767 636.364 286.198 634.246 288.152 632.689C290.106 631.132 292.49 630.211 294.983 630.05C297.476 629.888 299.959 630.494 302.098 631.786C304.236 633.077 305.928 634.993 306.946 637.275C307.986 639.545 308.307 642.08 307.868 644.538C307.429 646.997 306.249 649.262 304.487 651.032C302.725 652.802 300.465 653.992 298.008 654.443C295.552 654.893 293.016 654.583 290.741 653.553ZM242.98 659.511L279.292 643.06L284.361 654.234L248.038 670.713L243.008 659.522L242.98 659.511ZM235.91 666.122L244.251 662.314L246.795 667.92L238.425 671.718L235.881 666.111L235.91 666.122Z" fill="#0E0D14"/>
<path d="M280.757 728.603L254.843 669.605L264.693 665.702L291.046 723.181L280.757 728.603Z" fill="#0E0D14"/>
<path d="M362.007 685.584C354.337 689.168 347.162 690.351 340.484 689.13C333.838 687.821 328.68 683.793 325.011 677.045L346.392 667.052C348.415 670.595 350.907 671.675 353.866 670.292C354.954 669.784 355.747 669.119 356.245 668.297C356.777 667.386 356.788 666.388 356.28 665.3C355.574 663.791 354.194 662.964 352.14 662.82C350.058 662.616 347.013 662.714 343.006 663.115C338.222 663.585 334.146 663.761 330.779 663.642C327.472 663.495 324.232 662.544 321.057 660.79C317.882 659.036 315.351 656.061 313.464 651.866C311.516 647.698 310.922 643.671 311.681 639.784C312.472 635.809 314.357 632.205 317.335 628.973C320.374 625.713 324.219 622.996 328.869 620.823C336.721 617.153 343.788 616.058 350.072 617.536C356.416 618.986 361.247 622.947 364.566 629.417L342.914 639.536C342.007 637.753 340.947 636.666 339.734 636.276C338.522 635.886 337.312 635.973 336.104 636.538C335.258 636.933 334.705 637.56 334.443 638.418C334.154 639.215 334.249 640.128 334.729 641.154C335.406 642.604 336.756 643.445 338.778 643.677C340.832 643.821 343.921 643.739 348.045 643.43C352.797 643.049 356.797 642.946 360.043 643.121C363.349 643.268 366.548 644.128 369.638 645.701C372.728 647.274 375.148 649.933 376.898 653.677C378.733 657.603 379.418 661.588 378.953 665.632C378.46 669.615 376.781 673.343 373.915 676.817C371.049 680.29 367.08 683.212 362.007 685.584Z" fill="#0E0D14"/>
<path d="M88.656 260C87.8985 259.504 87.0358 259.259 86.0678 259.265C85.0843 259.238 84.0276 259.488 82.8978 260.015C80.771 261.007 79.4514 262.472 78.9392 264.41C78.4114 266.315 78.7054 268.464 79.8211 270.856C81.1073 273.614 82.716 275.373 84.6474 276.131C86.5787 276.889 88.8903 276.64 91.582 275.385C94.1408 274.192 95.7208 272.201 96.3219 269.412L87.499 273.527L83.8497 265.701L101.844 257.31L107.005 268.376C106.7 271.714 105.644 274.957 103.835 278.107C102.011 281.223 99.0389 283.742 94.9183 285.663C91.2628 287.368 87.724 288.108 84.3017 287.883C80.8971 287.609 77.8284 286.451 75.0956 284.408C72.396 282.349 70.2326 279.575 68.6055 276.086C66.9785 272.597 66.244 269.157 66.4023 265.765C66.5938 262.358 67.6868 259.28 69.6812 256.529C71.6601 253.745 74.4607 251.509 78.0829 249.82C82.702 247.666 86.9763 247.028 90.9056 247.906C94.8682 248.769 98.0064 250.988 100.32 254.561L88.656 260ZM131.53 225.322L147.986 260.614L136.92 265.774L130.505 252.016L119.987 256.921L126.403 270.678L115.337 275.839L98.8799 240.547L109.946 235.387L115.873 248.098L126.391 243.193L120.464 230.482L131.53 225.322ZM164.223 210.077L168.314 218.85L158.943 223.22L171.309 249.738L160.243 254.898L147.877 228.38L138.606 232.703L134.515 223.93L164.223 210.077ZM197.652 237.879C193.431 239.847 189.485 240.494 185.813 239.819C182.158 239.096 179.323 236.878 177.308 233.165L189.072 227.679C190.184 229.629 191.554 230.224 193.182 229.465C193.78 229.186 194.217 228.821 194.491 228.369C194.784 227.868 194.791 227.319 194.512 226.721C194.124 225.89 193.366 225.434 192.236 225.354C191.091 225.241 189.416 225.294 187.212 225.512C184.581 225.769 182.339 225.863 180.487 225.796C178.668 225.714 176.887 225.189 175.141 224.223C173.396 223.257 172.006 221.619 170.97 219.311C169.9 217.018 169.575 214.803 169.995 212.665C170.432 210.479 171.47 208.498 173.11 206.722C174.783 204.93 176.899 203.438 179.457 202.245C183.777 200.23 187.665 199.631 191.12 200.447C194.609 201.248 197.264 203.428 199.086 206.989L187.173 212.544C186.675 211.563 186.092 210.964 185.426 210.749C184.759 210.534 184.093 210.582 183.429 210.892C182.963 211.108 182.659 211.453 182.515 211.925C182.355 212.363 182.407 212.865 182.67 213.43C183.042 214.227 183.784 214.691 184.896 214.819C186.026 214.899 187.725 214.856 189.993 214.688C192.607 214.481 194.807 214.426 196.592 214.524C198.411 214.606 200.169 215.081 201.868 215.947C203.567 216.814 204.897 218.278 205.857 220.338C206.865 222.498 207.239 224.69 206.982 226.914C206.709 229.104 205.783 231.154 204.205 233.063C202.628 234.972 200.443 236.577 197.652 237.879Z" fill="#0E0D14"/>
<path d="M28.4331 302.432L39.1003 297.458L43.0053 305.832L21.2721 315.967L4.81531 280.675L15.8813 275.515L28.4331 302.432Z" fill="#0E0D14"/>
<path d="M60.9094 298.627C63.1847 297.41 65.0306 295.522 66.1969 293.221C67.3631 290.919 67.7933 288.314 67.4289 285.76C67.0646 283.205 65.9234 280.825 64.1601 278.941C62.3969 277.057 60.0969 275.761 57.5721 275.229C56.8533 275.076 56.2503 274.769 55.8477 274.316L54.4594 272.757L42.9716 278.901L43.4984 280.92C43.6521 281.507 43.5724 282.179 43.3004 282.862C42.3414 285.257 42.1423 287.89 42.7304 290.402C43.3184 292.915 44.665 295.186 46.5875 296.907C48.51 298.628 50.9154 299.716 53.4774 300.024C56.0394 300.332 58.634 299.844 60.9094 298.627ZM42.4278 276.815L53.0271 271.146L51.5872 269.526C50.9098 268.764 49.9955 268.252 48.9916 268.072C47.9878 267.893 46.9527 268.056 46.0531 268.537L44.1331 269.563C43.2335 270.045 42.5221 270.815 42.1136 271.75C41.7051 272.685 41.6232 273.73 41.8813 274.717L42.4278 276.815Z" fill="#0E0D14"/>
<path d="M44.4827 267.929L39.3808 258.31" stroke="#0E0D14"/>
<path d="M265.846 546.996C265.295 546.635 264.668 546.457 263.964 546.462C263.248 546.442 262.48 546.624 261.658 547.007C260.111 547.729 259.152 548.794 258.779 550.203C258.395 551.589 258.609 553.151 259.421 554.892C260.356 556.898 261.526 558.176 262.931 558.728C264.335 559.279 266.016 559.098 267.974 558.185C269.835 557.318 270.984 555.87 271.421 553.842L265.004 556.834L262.35 551.142L275.437 545.039L279.19 553.087C278.969 555.515 278.201 557.874 276.885 560.165C275.559 562.431 273.397 564.263 270.4 565.66C267.742 566.9 265.168 567.438 262.679 567.275C260.203 567.076 257.971 566.233 255.984 564.747C254.02 563.25 252.447 561.233 251.264 558.695C250.08 556.158 249.546 553.655 249.661 551.189C249.801 548.711 250.596 546.472 252.046 544.472C253.485 542.447 255.522 540.821 258.156 539.592C261.516 538.026 264.624 537.562 267.482 538.201C270.364 538.828 272.646 540.442 274.329 543.041L265.846 546.996ZM297.027 521.776L308.995 547.442L300.947 551.195L296.282 541.19L288.632 544.757L293.298 554.762L285.25 558.515L273.281 532.848L281.329 529.096L285.64 538.34L293.289 534.773L288.979 525.529L297.027 521.776ZM320.804 510.688L323.779 517.069L316.964 520.247L325.957 539.533L317.909 543.286L308.916 524L302.173 527.144L299.198 520.764L320.804 510.688ZM345.116 530.908C342.046 532.34 339.176 532.81 336.505 532.319C333.847 531.793 331.786 530.18 330.32 527.48L338.876 523.49C339.684 524.908 340.681 525.341 341.865 524.789C342.3 524.586 342.617 524.32 342.817 523.992C343.03 523.628 343.035 523.228 342.832 522.793C342.55 522.189 341.999 521.858 341.177 521.799C340.344 521.717 339.126 521.755 337.523 521.914C335.609 522.101 333.979 522.169 332.632 522.121C331.31 522.061 330.014 521.679 328.744 520.977C327.475 520.274 326.464 519.083 325.71 517.404C324.933 515.736 324.696 514.125 325.001 512.571C325.319 510.981 326.074 509.54 327.267 508.248C328.483 506.945 330.022 505.86 331.883 504.992C335.025 503.527 337.853 503.092 340.366 503.685C342.903 504.267 344.834 505.853 346.159 508.442L337.495 512.483C337.132 511.769 336.709 511.334 336.224 511.177C335.739 511.021 335.255 511.056 334.772 511.281C334.433 511.439 334.212 511.689 334.107 512.032C333.991 512.351 334.028 512.716 334.22 513.127C334.49 513.707 335.03 514.044 335.839 514.138C336.66 514.196 337.896 514.164 339.546 514.042C341.447 513.891 343.046 513.851 344.345 513.923C345.667 513.983 346.946 514.328 348.182 514.958C349.417 515.588 350.384 516.653 351.083 518.151C351.816 519.722 352.088 521.316 351.901 522.933C351.702 524.527 351.029 526.017 349.882 527.406C348.734 528.794 347.146 529.962 345.116 530.908Z" fill="#0E0D14"/>
<path d="M221.616 580.033L229.374 576.416L232.214 582.506L216.408 589.877L204.439 564.21L212.487 560.457L221.616 580.033Z" fill="#0E0D14"/>
<path d="M246.097 577.436C247.88 576.482 249.328 575.002 250.242 573.198C251.156 571.393 251.493 569.351 251.208 567.348C250.922 565.346 250.028 563.479 248.645 562.002C247.263 560.526 245.46 559.51 243.48 559.092C242.917 558.972 242.444 558.732 242.128 558.376L241.04 557.154L232.034 561.971L232.447 563.554C232.567 564.014 232.505 564.541 232.291 565.076C231.54 566.954 231.383 569.018 231.844 570.988C232.305 572.958 233.361 574.738 234.868 576.087C236.376 577.437 238.261 578.29 240.27 578.531C242.279 578.772 244.313 578.39 246.097 577.436ZM231.607 560.335L239.917 555.891L238.788 554.621C238.257 554.024 237.54 553.622 236.753 553.481C235.966 553.341 235.155 553.469 234.449 553.845L232.944 554.651C232.239 555.028 231.681 555.632 231.361 556.365C231.041 557.098 230.977 557.917 231.179 558.691L231.607 560.335Z" fill="#0E0D14"/>
<path d="M233.218 553.369L229.219 545.828" stroke="#0E0D14"/>
<path d="M274.133 205.066C279.151 204.016 283.673 204.576 287.696 206.745C291.757 208.81 294.793 211.999 296.804 216.311C299.87 222.885 300.052 228.997 297.35 234.646C294.686 240.191 289.289 244.86 281.16 248.651L241.82 266.995L206.812 191.92L245.091 174.07C252.726 170.51 259.51 169.369 265.442 170.648C271.374 171.927 275.824 175.747 278.79 182.109C280.834 186.492 281.398 190.748 280.483 194.875C279.605 198.899 277.489 202.296 274.133 205.066ZM243.999 210.21L253.119 205.957C255.239 204.968 256.597 203.819 257.191 202.509C257.856 201.166 257.776 199.611 256.952 197.844C256.095 196.006 254.938 194.91 253.482 194.556C252.064 194.099 250.295 194.364 248.174 195.353L239.055 199.606L243.999 210.21ZM267.268 232.149C269.389 231.16 270.763 230.046 271.39 228.807C272.055 227.464 271.959 225.874 271.102 224.036C269.421 220.431 266.495 219.6 262.324 221.545L251.614 226.539L256.559 237.143L267.268 232.149ZM357.157 199.399L332.132 211.069L333.712 224.145L309.005 235.666L301.461 147.785L328.606 135.126L390.972 197.444L366.159 209.015L357.157 199.399ZM343.173 184.361L326.646 166.636L329.601 190.69L343.173 184.361ZM468.32 161.376L444.78 172.353L402.258 146.224L419.861 183.973L396.32 194.95L361.312 119.875L384.853 108.898L427.671 135.664L409.772 97.2784L433.312 86.3013L468.32 161.376Z" fill="#0E0D14"/>
<path d="M10.6816 363.515C9.49826 360.977 8.95207 358.48 9.043 356.025C9.15811 353.559 9.91674 351.337 11.3189 349.359C12.7098 347.357 14.6982 345.753 17.2842 344.547C19.5077 343.51 21.6867 343.009 23.8212 343.043C25.9687 343.042 27.9412 343.55 29.7388 344.565C31.5605 345.569 33.126 347.002 34.4352 348.863L25.9521 352.819C25.171 352.153 24.3108 351.76 23.3717 351.639C22.4454 351.482 21.5231 351.618 20.6047 352.046C19.2512 352.677 18.4124 353.687 18.0882 355.073C17.7882 356.449 18.0382 357.995 18.8384 359.711C19.6385 361.427 20.662 362.612 21.9087 363.266C23.1796 363.91 24.4917 363.916 25.8451 363.285C26.7635 362.856 27.4661 362.249 27.9528 361.463C28.4525 360.642 28.6984 359.718 28.6907 358.692L37.1737 354.736C37.7579 356.935 37.8491 359.055 37.4473 361.096C37.0698 363.126 36.1961 364.975 34.8262 366.644C33.4693 368.277 31.6791 369.612 29.4556 370.649C26.8696 371.855 24.3684 372.359 21.952 372.162C19.5243 371.94 17.3287 371.081 15.3654 369.584C13.4262 368.075 11.8649 366.052 10.6816 363.515ZM57.3286 357.74C54.9118 358.867 52.4235 359.335 49.8637 359.146C47.328 358.946 45.0004 358.119 42.8808 356.665C40.7611 355.211 39.1153 353.227 37.9432 350.714C36.7712 348.2 36.3096 345.665 36.5584 343.106C36.8072 340.548 37.6754 338.246 39.163 336.198C40.6634 334.116 42.6221 332.511 45.0389 331.384C47.4557 330.257 49.932 329.794 52.4676 329.994C54.992 330.171 57.3019 330.991 59.3974 332.456C61.517 333.91 63.1628 335.894 64.3349 338.407C65.507 340.921 65.9686 343.457 65.7197 346.015C65.495 348.562 64.6325 350.876 63.132 352.959C61.6558 355.03 59.7213 356.624 57.3286 357.74ZM53.8294 350.235C55.4245 349.492 56.4204 348.409 56.8171 346.988C57.2026 345.543 56.9896 343.951 56.1781 342.211C55.3554 340.447 54.2724 339.26 52.929 338.65C51.5744 338.017 50.0995 338.072 48.5044 338.816C46.8851 339.571 45.8827 340.671 45.4973 342.116C45.1006 343.537 45.3135 345.129 46.1362 346.893C46.9477 348.634 48.0307 349.82 49.3854 350.454C50.7288 351.063 52.2101 350.99 53.8294 350.235ZM97.8885 338.517L89.8405 342.27L75.3031 333.337L81.3212 346.243L73.2732 349.996L61.3046 324.329L69.3527 320.576L83.9915 329.727L77.872 316.603L85.92 312.851L97.8885 338.517ZM94.7983 324.29C93.615 321.753 93.0688 319.256 93.1597 316.801C93.2748 314.335 94.0334 312.113 95.4356 310.135C96.8265 308.133 98.8149 306.529 101.401 305.323C103.624 304.286 105.803 303.785 107.938 303.819C110.085 303.818 112.058 304.325 113.855 305.341C115.677 306.345 117.243 307.778 118.552 309.639L110.069 313.595C109.288 312.929 108.428 312.536 107.488 312.415C106.562 312.258 105.64 312.394 104.721 312.822C103.368 313.453 102.529 314.462 102.205 315.849C101.905 317.225 102.155 318.771 102.955 320.487C103.755 322.203 104.779 323.388 106.025 324.042C107.296 324.685 108.608 324.691 109.962 324.06C110.88 323.632 111.583 323.025 112.07 322.239C112.569 321.417 112.815 320.494 112.807 319.467L121.29 315.512C121.875 317.711 121.966 319.831 121.564 321.872C121.186 323.902 120.313 325.751 118.943 327.419C117.586 329.053 115.796 330.388 113.572 331.424C110.986 332.63 108.485 333.135 106.069 332.937C103.641 332.716 101.445 331.857 99.4821 330.359C97.5429 328.851 95.9816 326.828 94.7983 324.29Z" fill="#0E0D14"/>
<path d="M153.252 303.96C153.053 303.716 152.775 303.55 152.465 303.491C152.156 303.432 151.835 303.485 151.561 303.64L127.783 315.755C127.598 315.814 127.429 315.912 127.286 316.043C127.144 316.173 127.031 316.334 126.957 316.512C126.882 316.691 126.847 316.883 126.855 317.077C126.862 317.27 126.911 317.459 126.999 317.632C127.087 317.804 127.211 317.955 127.363 318.075C127.515 318.195 127.692 318.28 127.88 318.324C128.068 318.369 128.264 318.372 128.454 318.334C128.643 318.295 128.822 318.216 128.978 318.101L152.757 305.986C152.926 305.905 153.076 305.789 153.197 305.646C153.318 305.503 153.408 305.336 153.461 305.156C153.513 304.975 153.527 304.786 153.501 304.6C153.475 304.414 153.411 304.236 153.311 304.077C153.293 304.037 153.273 303.998 153.252 303.96ZM144.349 289.58C144.15 289.336 143.871 289.169 143.562 289.111C143.252 289.052 142.932 289.105 142.658 289.259L121.382 300.099C121.198 300.158 121.029 300.256 120.886 300.387C120.743 300.518 120.631 300.678 120.557 300.857C120.482 301.035 120.447 301.228 120.455 301.421C120.462 301.614 120.511 301.804 120.599 301.976C120.687 302.149 120.811 302.3 120.963 302.419C121.115 302.539 121.292 302.624 121.48 302.669C121.668 302.713 121.864 302.717 122.053 302.678C122.243 302.64 122.422 302.56 122.578 302.446L143.853 291.606C144.023 291.525 144.173 291.409 144.294 291.266C144.415 291.123 144.505 290.955 144.557 290.775C144.61 290.595 144.624 290.406 144.598 290.22C144.572 290.034 144.507 289.856 144.408 289.697C144.39 289.657 144.37 289.618 144.349 289.58ZM146.333 302.757C146.134 302.512 145.856 302.346 145.546 302.287C145.237 302.228 144.916 302.281 144.642 302.436L130.876 309.45C130.691 309.508 130.521 309.606 130.378 309.737C130.234 309.867 130.121 310.028 130.046 310.206C129.972 310.385 129.936 310.578 129.944 310.772C129.951 310.966 130 311.155 130.088 311.328C130.176 311.501 130.301 311.652 130.453 311.772C130.606 311.892 130.782 311.977 130.971 312.021C131.16 312.066 131.356 312.068 131.546 312.029C131.736 311.99 131.915 311.91 132.071 311.795L145.837 304.781C146.006 304.7 146.156 304.584 146.277 304.441C146.398 304.298 146.488 304.132 146.54 303.952C146.593 303.772 146.607 303.583 146.581 303.397C146.556 303.212 146.492 303.033 146.393 302.874C146.375 302.834 146.355 302.795 146.333 302.757ZM137.43 288.376C137.231 288.132 136.952 287.965 136.643 287.907C136.334 287.848 136.013 287.901 135.739 288.055L124.475 293.794C124.291 293.853 124.121 293.95 123.977 294.081C123.834 294.212 123.721 294.372 123.646 294.551C123.571 294.73 123.536 294.923 123.543 295.116C123.551 295.31 123.6 295.5 123.688 295.672C123.776 295.845 123.901 295.997 124.053 296.116C124.206 296.236 124.382 296.321 124.571 296.365C124.76 296.41 124.956 296.413 125.146 296.374C125.335 296.335 125.515 296.255 125.67 296.139L136.934 290.401C137.103 290.32 137.253 290.204 137.374 290.061C137.495 289.918 137.585 289.751 137.637 289.571C137.69 289.391 137.704 289.203 137.678 289.017C137.653 288.831 137.589 288.653 137.49 288.494C137.472 288.453 137.452 288.415 137.43 288.376ZM140.004 296.523C139.806 296.278 139.527 296.112 139.217 296.053C138.908 295.995 138.588 296.047 138.313 296.202L129.553 300.666C129.368 300.724 129.198 300.822 129.055 300.952C128.912 301.083 128.799 301.243 128.724 301.422C128.649 301.601 128.614 301.794 128.621 301.988C128.628 302.181 128.677 302.371 128.765 302.544C128.853 302.717 128.978 302.868 129.13 302.988C129.283 303.107 129.46 303.192 129.648 303.237C129.837 303.281 130.033 303.284 130.223 303.245C130.413 303.206 130.592 303.126 130.748 303.011L139.508 298.547C139.677 298.466 139.827 298.351 139.948 298.208C140.069 298.065 140.159 297.898 140.212 297.718C140.264 297.538 140.278 297.349 140.253 297.164C140.227 296.978 140.163 296.8 140.064 296.64C140.046 296.6 140.026 296.561 140.004 296.523ZM147.656 311.541C147.457 311.296 147.178 311.13 146.869 311.071C146.56 311.013 146.239 311.065 145.965 311.22L137.204 315.684C137.02 315.742 136.851 315.841 136.708 315.971C136.566 316.102 136.453 316.262 136.379 316.441C136.304 316.619 136.269 316.812 136.277 317.005C136.284 317.199 136.333 317.388 136.421 317.56C136.509 317.733 136.633 317.884 136.785 318.004C136.937 318.123 137.114 318.208 137.302 318.253C137.49 318.298 137.686 318.301 137.875 318.262C138.065 318.224 138.244 318.145 138.4 318.03L147.16 313.567C147.33 313.485 147.48 313.369 147.601 313.226C147.722 313.083 147.812 312.916 147.865 312.736C147.917 312.556 147.931 312.366 147.905 312.181C147.879 311.995 147.814 311.816 147.715 311.657C147.697 311.618 147.677 311.579 147.656 311.541ZM131.762 286.535C131.564 286.29 131.285 286.124 130.976 286.065C130.666 286.006 130.346 286.059 130.072 286.214L126.317 288.127C126.133 288.186 125.963 288.284 125.821 288.415C125.678 288.545 125.566 288.706 125.491 288.884C125.417 289.063 125.382 289.255 125.389 289.449C125.397 289.642 125.446 289.831 125.534 290.004C125.621 290.176 125.746 290.327 125.898 290.447C126.05 290.567 126.226 290.652 126.415 290.696C126.603 290.741 126.798 290.744 126.988 290.706C127.178 290.667 127.357 290.588 127.513 290.473L131.267 288.56C131.436 288.479 131.586 288.363 131.708 288.22C131.829 288.077 131.919 287.91 131.971 287.73C132.023 287.549 132.037 287.36 132.011 287.174C131.986 286.989 131.921 286.81 131.822 286.651C131.804 286.611 131.784 286.572 131.762 286.533L131.762 286.535ZM139.414 301.553C139.215 301.308 138.937 301.142 138.627 301.083C138.318 301.024 137.998 301.077 137.723 301.232L133.969 303.145C133.784 303.203 133.614 303.301 133.471 303.432C133.328 303.562 133.215 303.723 133.14 303.901C133.065 304.08 133.03 304.273 133.037 304.467C133.044 304.661 133.093 304.85 133.181 305.023C133.269 305.196 133.394 305.347 133.546 305.467C133.699 305.587 133.875 305.672 134.064 305.716C134.253 305.761 134.449 305.763 134.639 305.724C134.829 305.685 135.008 305.605 135.164 305.49L138.918 303.577C139.087 303.496 139.237 303.38 139.358 303.237C139.479 303.094 139.569 302.928 139.622 302.748C139.674 302.568 139.688 302.379 139.663 302.193C139.637 302.008 139.573 301.829 139.474 301.67C139.456 301.63 139.436 301.591 139.414 301.553ZM147.066 316.571C146.867 316.326 146.588 316.16 146.279 316.101C145.969 316.042 145.649 316.095 145.375 316.25L141.62 318.163C141.436 318.222 141.267 318.32 141.124 318.451C140.981 318.581 140.869 318.741 140.794 318.92C140.72 319.099 140.685 319.291 140.692 319.485C140.7 319.678 140.749 319.867 140.837 320.04C140.925 320.212 141.049 320.363 141.201 320.483C141.353 320.603 141.53 320.688 141.718 320.732C141.906 320.777 142.102 320.78 142.291 320.742C142.481 320.703 142.66 320.624 142.816 320.509L146.57 318.596C146.74 318.515 146.89 318.399 147.011 318.256C147.132 318.113 147.222 317.946 147.274 317.766C147.327 317.585 147.341 317.396 147.315 317.21C147.289 317.025 147.224 316.846 147.125 316.687C147.107 316.647 147.087 316.608 147.066 316.571Z" fill="#0E0D14"/>
<path d="M174.314 301.383L165.198 294.424L165.162 294.441L169.456 303.649L161.408 307.401L149.439 281.735L161.403 276.156C163.481 275.187 165.432 274.733 167.256 274.795C169.068 274.833 170.635 275.323 171.958 276.266C173.293 277.173 174.332 278.424 175.076 280.019C175.876 281.735 176.103 283.483 175.756 285.263C175.433 287.032 174.513 288.624 172.995 290.038L183.159 297.259L174.314 301.383ZM162.66 289.075L165.85 287.588C166.624 287.227 167.125 286.787 167.354 286.269C167.571 285.726 167.506 285.08 167.156 284.331C166.841 283.654 166.387 283.218 165.796 283.023C165.229 282.816 164.571 282.888 163.822 283.237L160.632 284.725L162.66 289.075ZM193.882 261.011L196.857 267.391L190.042 270.569L199.035 289.856L190.987 293.609L181.994 274.322L175.251 277.467L172.275 271.086L193.882 261.011ZM218.193 281.231C215.124 282.662 212.254 283.133 209.583 282.642C206.925 282.116 204.863 280.503 203.398 277.802L211.954 273.813C212.762 275.231 213.758 275.664 214.943 275.111C215.378 274.909 215.695 274.643 215.895 274.314C216.108 273.95 216.113 273.551 215.91 273.116C215.628 272.511 215.076 272.18 214.255 272.122C213.422 272.04 212.204 272.078 210.601 272.237C208.687 272.423 207.057 272.492 205.71 272.443C204.387 272.383 203.091 272.002 201.822 271.299C200.553 270.596 199.542 269.406 198.788 267.727C198.01 266.059 197.774 264.448 198.079 262.893C198.397 261.304 199.152 259.863 200.345 258.571C201.561 257.268 203.1 256.183 204.961 255.315C208.103 253.85 210.93 253.414 213.443 254.008C215.98 254.59 217.912 256.176 219.237 258.765L210.572 262.805C210.21 262.092 209.786 261.656 209.302 261.5C208.817 261.344 208.333 261.378 207.849 261.604C207.511 261.761 207.289 262.012 207.185 262.355C207.068 262.674 207.106 263.039 207.298 263.45C207.568 264.03 208.108 264.366 208.917 264.46C209.738 264.518 210.974 264.487 212.623 264.365C214.524 264.214 216.124 264.174 217.423 264.245C218.745 264.305 220.024 264.65 221.26 265.281C222.495 265.911 223.462 266.975 224.161 268.474C224.894 270.045 225.166 271.639 224.979 273.256C224.78 274.849 224.107 276.34 222.96 277.728C221.812 279.117 220.223 280.284 218.193 281.231Z" fill="#0E0D14"/>
<path d="M11.6096 732.427L12.7126 734.793L18.6942 732.004L20.8115 736.544L14.8299 739.333L16.0978 742.052L22.8951 738.883L25.1392 743.695L12.3059 749.68L3.32945 730.43L16.1628 724.445L18.4069 729.258L11.6096 732.427ZM45.8754 734.026L39.8394 736.84L28.9364 730.14L33.45 739.82L27.4139 742.634L18.4375 723.385L24.4735 720.57L35.4526 727.433L30.863 717.59L36.899 714.776L45.8754 734.026ZM54.7432 706.455L56.9747 711.24L51.8631 713.624L58.6081 728.088L52.5721 730.903L45.8271 716.438L40.7699 718.797L38.5384 714.011L54.7432 706.455ZM64.6604 707.689L65.7635 710.055L71.7451 707.266L73.8624 711.806L67.8808 714.595L69.1486 717.314L75.9459 714.145L78.19 718.957L65.3567 724.941L56.3803 705.692L69.2136 699.707L71.4577 704.52L64.6604 707.689ZM90.1442 713.383L83.3077 708.163L83.2805 708.176L86.5008 715.082L80.4648 717.896L71.4884 698.646L80.4608 694.463C82.0197 693.736 83.483 693.395 84.8507 693.442C86.21 693.47 87.3855 693.838 88.3772 694.545C89.3787 695.225 90.1583 696.164 90.7162 697.36C91.3163 698.647 91.4863 699.958 91.2261 701.293C90.9841 702.62 90.2938 703.813 89.1553 704.874L96.7783 710.289L90.1442 713.383ZM81.404 704.152L83.7967 703.036C84.3767 702.766 84.7526 702.436 84.9243 702.047C85.0875 701.64 85.0381 701.155 84.7761 700.593C84.5394 700.086 84.1994 699.759 83.756 699.612C83.3308 699.458 82.8372 699.511 82.2753 699.773L79.8826 700.889L81.404 704.152ZM104.82 683.104L107.052 687.889L101.94 690.272L108.685 704.737L102.649 707.552L95.9041 693.087L90.8469 695.445L88.6155 690.66L104.82 683.104ZM126.421 692.925L120.004 695.917L120.409 699.27L114.074 702.224L112.14 679.69L119.1 676.445L135.092 692.424L128.729 695.39L126.421 692.925ZM122.836 689.069L118.598 684.524L119.355 690.692L122.836 689.069Z" fill="#0E0D14"/>
<path d="M140.082 683.489L143.627 681.731C144.003 681.544 144.29 681.217 144.425 680.823C144.561 680.428 144.533 679.997 144.349 679.626L144.001 678.925L141.875 679.98C141.687 680.074 141.47 680.089 141.272 680.024C141.074 679.958 140.91 679.817 140.818 679.631C140.726 679.446 140.712 679.23 140.78 679.033C140.848 678.836 140.991 678.672 141.179 678.579L143.306 677.524L142.263 675.422L140.137 676.477C139.949 676.57 139.732 676.586 139.533 676.521C139.335 676.455 139.172 676.314 139.08 676.128C138.988 675.942 138.974 675.727 139.042 675.53C139.11 675.332 139.253 675.169 139.441 675.076L141.568 674.021L140.525 671.919L138.398 672.974C138.21 673.067 137.993 673.083 137.795 673.017C137.597 672.952 137.434 672.811 137.342 672.625C137.25 672.439 137.236 672.224 137.304 672.027C137.371 671.829 137.515 671.666 137.703 671.573L139.83 670.518L139.482 669.817C139.297 669.445 138.971 669.163 138.575 669.032C138.179 668.901 137.745 668.933 137.369 669.119L131.698 671.933C131.322 672.119 131.035 672.446 130.899 672.841C130.764 673.235 130.791 673.666 130.976 674.038L131.323 674.738L133.45 673.683C133.638 673.59 133.855 673.574 134.053 673.64C134.251 673.705 134.414 673.846 134.506 674.032C134.599 674.218 134.612 674.433 134.545 674.63C134.477 674.828 134.333 674.991 134.145 675.084L132.019 676.139L133.062 678.241L135.188 677.186C135.376 677.093 135.593 677.077 135.791 677.143C135.989 677.208 136.152 677.349 136.245 677.535C136.337 677.721 136.351 677.936 136.283 678.134C136.215 678.331 136.071 678.494 135.883 678.587L133.757 679.643L134.8 681.745L136.926 680.689C137.114 680.596 137.331 680.58 137.529 680.646C137.728 680.711 137.891 680.852 137.983 681.038C138.075 681.224 138.089 681.439 138.021 681.637C137.953 681.834 137.81 681.997 137.622 682.091L135.495 683.146L135.843 683.846C136.027 684.218 136.353 684.5 136.75 684.631C137.146 684.762 137.58 684.731 137.956 684.544L140.082 683.489ZM142.195 684.187L143.586 686.989L147.839 684.879C148.027 684.786 148.244 684.77 148.442 684.836C148.64 684.901 148.803 685.042 148.895 685.228C148.988 685.414 149.001 685.629 148.934 685.827C148.866 686.024 148.722 686.187 148.534 686.28L138.61 691.205C138.422 691.298 138.206 691.313 138.007 691.248C137.809 691.183 137.646 691.041 137.554 690.856C137.462 690.67 137.448 690.455 137.516 690.257C137.583 690.06 137.727 689.897 137.915 689.803L142.168 687.693L140.778 684.89L138.651 685.946C137.899 686.319 137.031 686.381 136.239 686.12C135.446 685.858 134.794 685.293 134.425 684.55L129.558 674.741C129.189 673.998 129.134 673.137 129.405 672.347C129.676 671.558 130.251 670.905 131.003 670.532L136.674 667.718C137.426 667.345 138.293 667.282 139.086 667.544C139.878 667.806 140.531 668.37 140.9 669.113L145.767 678.922C146.135 679.666 146.19 680.527 145.919 681.316C145.649 682.106 145.074 682.759 144.322 683.132L142.195 684.187Z" fill="#0E0D14"/>
<path d="M171.767 675.011L165.731 677.825L154.828 671.125L159.342 680.805L153.306 683.619L144.329 664.369L150.365 661.555L161.345 668.418L156.755 658.575L162.791 655.761L171.767 675.011ZM188.656 643.7L197.632 662.95L191.624 665.752L187.148 656.154L188.66 667.134L183.494 669.542L176.055 661.327L180.53 670.924L174.494 673.739L165.518 654.489L172.913 651.041L182.543 660.618L181.288 647.136L188.656 643.7ZM199.66 644.427L200.763 646.793L206.744 644.004L208.862 648.544L202.88 651.334L204.148 654.052L210.945 650.883L213.189 655.695L200.356 661.68L191.38 642.43L204.213 636.445L206.457 641.258L199.66 644.427ZM233.926 646.026L227.89 648.841L216.987 642.141L221.5 651.82L215.464 654.635L206.488 635.385L212.524 632.57L223.503 639.433L218.913 629.591L224.949 626.776L233.926 646.026ZM242.793 618.455L245.025 623.24L239.913 625.624L246.658 640.089L240.622 642.903L233.877 628.439L228.82 630.797L226.589 626.011L242.793 618.455Z" fill="#0E0D14"/>
<path d="M295.206 592.527C297.608 592.025 299.772 592.293 301.698 593.331C303.642 594.319 305.095 595.845 306.057 597.909C307.525 601.056 307.612 603.981 306.319 606.685C305.044 609.339 302.461 611.574 298.569 613.388L279.74 622.168L262.984 586.235L281.306 577.691C284.96 575.987 288.207 575.441 291.046 576.054C293.886 576.666 296.015 578.494 297.435 581.539C298.414 583.637 298.684 585.674 298.245 587.649C297.825 589.575 296.812 591.201 295.206 592.527ZM280.783 594.989L285.148 592.954C286.163 592.48 286.813 591.93 287.097 591.303C287.415 590.661 287.377 589.916 286.983 589.07C286.573 588.191 286.019 587.666 285.322 587.497C284.643 587.278 283.796 587.405 282.781 587.878L278.417 589.914L280.783 594.989ZM291.921 605.49C292.936 605.017 293.593 604.483 293.893 603.89C294.212 603.248 294.166 602.486 293.755 601.607C292.951 599.881 291.55 599.484 289.554 600.415L284.428 602.805L286.795 607.88L291.921 605.49ZM334.944 589.815L322.966 595.4L323.722 601.659L311.897 607.173L308.286 565.11L321.279 559.052L351.129 588.879L339.253 594.417L334.944 589.815ZM328.251 582.617L320.341 574.133L321.755 585.646L328.251 582.617ZM388.15 571.616L376.883 576.87L356.531 564.363L364.956 582.431L353.689 587.685L336.933 551.752L348.2 546.498L368.695 559.309L360.127 540.936L371.395 535.682L388.15 571.616Z" fill="#0E0D14"/>
<path d="M401.684 523.611L378.646 534.58C377.737 535.013 377.351 536.101 377.784 537.009L391.887 566.63C392.319 567.539 393.407 567.925 394.316 567.493L417.354 556.523C418.263 556.091 418.649 555.003 418.216 554.094L404.113 524.473C403.681 523.564 402.593 523.178 401.684 523.611Z" stroke="#0E0D14" stroke-width="4" stroke-linecap="round" stroke-linejoin="round"/>
<path d="M396.432 542.262C398.705 541.18 399.67 538.461 398.588 536.189C397.506 533.917 394.787 532.952 392.515 534.034C390.243 535.116 389.278 537.835 390.36 540.107C391.441 542.379 394.16 543.344 396.432 542.262Z" stroke="#0E0D14" stroke-width="4"/>
<path d="M385.07 539.596C385.979 539.163 386.365 538.075 385.933 537.166C385.5 536.258 384.412 535.872 383.503 536.304C382.595 536.737 382.209 537.825 382.641 538.734C383.074 539.642 384.162 540.028 385.07 539.596Z" fill="#0E0D14"/>
<path d="M396.04 562.635C396.949 562.202 397.335 561.114 396.902 560.206C396.469 559.297 395.382 558.911 394.473 559.343C393.564 559.776 393.178 560.864 393.611 561.773C394.043 562.681 395.131 563.067 396.04 562.635Z" fill="#0E0D14"/>
<path d="M403.484 557.072C406.211 555.774 407.369 552.511 406.071 549.785C404.773 547.058 401.51 545.9 398.783 547.198C396.057 548.496 394.899 551.759 396.197 554.486C397.495 557.212 400.758 558.37 403.484 557.072Z" stroke="#0E0D14" stroke-width="4"/>
</g>
<defs>
<clipPath id="clip0_330_198">
<rect width="393" height="852" fill="white"/>
</clipPath>
</defs>
</svg>
