<svg width="249" height="95" viewBox="0 0 249 95" fill="none" xmlns="http://www.w3.org/2000/svg">
<mask id="path-1-outside-1_250_184" maskUnits="userSpaceOnUse" x="5.02668" y="25.9038" width="243.059" height="46.3115" fill="black">
<rect fill="white" x="5.02668" y="25.9038" width="243.059" height="46.3115"/>
<path d="M6.82624 49.268C6.82094 45.138 7.64223 41.4593 9.29009 38.2319C10.9773 35.0044 13.3734 32.5036 16.4785 30.7296C19.5835 28.9163 23.2403 28.007 27.449 28.0016C31.0677 27.9969 34.2939 28.6811 37.1276 30.0542C40.0007 31.3878 42.3238 33.2925 44.097 35.7682C45.9095 38.2439 47.1128 41.1334 47.7071 44.4366L33.9011 44.4543C33.27 43.0785 32.364 42.0176 31.183 41.2718C30.0413 40.4866 28.7232 40.0949 27.2285 40.0969C25.0258 40.0997 23.2766 40.9279 21.9807 42.5816C20.7241 44.2352 20.0976 46.4583 20.1012 49.251C20.1048 52.0437 20.737 54.2652 21.9978 55.9156C23.2979 57.5659 25.0493 58.3897 27.2519 58.3868C28.7466 58.3849 30.0638 58.0096 31.2035 57.2608C32.3825 56.4726 33.2858 55.3898 33.9133 54.0123L47.7193 53.9946C47.1336 57.2994 45.9376 60.1919 44.1315 62.6722C42.3646 65.1525 40.0464 67.0828 37.1769 68.4631C34.3466 69.8041 31.1221 70.4769 27.5035 70.4815C23.2948 70.4869 19.6357 69.6066 16.5261 67.8406C13.4164 66.0353 11.0139 63.521 9.31838 60.2978C7.66225 57.0746 6.83153 53.398 6.82624 49.268ZM58.9465 70.6182C56.6652 70.6211 54.8354 70.0138 53.4572 68.7963C52.0789 67.5787 51.3886 66.0456 51.3863 64.1969C51.3838 62.3089 52.0702 60.7544 53.4453 59.5333C54.8203 58.2728 56.6485 57.6412 58.9299 57.6382C61.1719 57.6354 62.982 58.2624 64.3603 59.5193C65.7385 60.7368 66.4288 62.2896 66.4313 64.1776C66.4336 66.0263 65.7473 67.5612 64.3722 68.7823C62.9971 70.0034 61.1885 70.6153 58.9465 70.6182ZM91.6522 70.5173C87.7189 70.5223 84.0991 69.6026 80.7927 67.7582C77.5256 65.9137 74.9264 63.3604 72.9949 60.0982C71.0633 56.836 70.095 53.1596 70.0897 49.0689C70.0845 44.9783 71.0434 41.2994 72.9666 38.0322C74.8897 34.7651 77.4825 32.2248 80.7448 30.4112C84.0464 28.5583 87.6639 27.6294 91.5972 27.6243C95.5306 27.6193 99.1307 28.539 102.398 30.3835C105.665 32.1886 108.244 34.7223 110.137 37.9846C112.068 41.2468 113.036 44.9232 113.042 49.0138C113.047 53.1045 112.088 56.7834 110.165 60.0505C108.281 63.3176 105.688 65.8776 102.387 67.7305C99.1244 69.5834 95.5462 70.5123 91.6522 70.5173ZM91.6366 58.3043C94.2326 58.301 96.2375 57.4724 97.6514 55.8186C99.0652 54.1254 99.7703 51.8629 99.7667 49.0309C99.763 46.1595 99.0521 43.8988 97.634 42.2486C96.2158 40.5591 94.2087 39.716 91.6127 39.7193C88.9774 39.7227 86.9528 40.571 85.539 42.2641C84.1251 43.9179 83.42 46.1805 83.4237 49.0518C83.4273 51.8838 84.1382 54.1446 85.5564 55.8341C86.9745 57.4843 89.0012 58.3077 91.6366 58.3043ZM124.284 70.5344C122.003 70.5374 120.173 69.9301 118.795 68.7125C117.417 67.4949 116.726 65.9618 116.724 64.1131C116.722 62.2251 117.408 60.6706 118.783 59.4495C120.158 58.1891 121.986 57.5574 124.268 57.5545C126.51 57.5516 128.32 58.1786 129.698 59.4355C131.076 60.6531 131.767 62.2058 131.769 64.0938C131.771 65.9425 131.085 67.4774 129.71 68.6985C128.335 69.9196 126.526 70.5316 124.284 70.5344ZM153.986 28.2523C158.352 28.2467 162.168 29.1268 165.435 30.8927C168.742 32.6584 171.282 35.1135 173.056 38.2579C174.83 41.4023 175.719 44.9805 175.725 48.9925C175.73 52.9651 174.849 56.5456 173.083 59.7339C171.317 62.9221 168.784 65.4427 165.482 67.2956C162.22 69.1091 158.406 70.0187 154.04 70.0243L136.635 70.0466L136.581 28.2746L153.986 28.2523ZM152.845 58.3438C155.795 58.34 158.134 57.5307 159.862 55.9158C161.591 54.3009 162.453 51.9988 162.45 49.0095C162.446 46.0202 161.577 43.7203 159.845 42.1098C158.112 40.4994 155.771 39.6961 152.821 39.6998L149.694 39.7038L149.718 58.3478L152.845 58.3438ZM186.972 70.4541C184.69 70.457 182.861 69.8497 181.482 68.6321C180.104 67.4145 179.414 65.8814 179.412 64.0328C179.409 62.1448 180.095 60.5902 181.471 59.3691C182.846 58.1087 184.674 57.477 186.955 57.4741C189.197 57.4712 191.007 58.0982 192.386 59.3551C193.764 60.5727 194.454 62.1255 194.457 64.0135C194.459 65.8621 193.773 67.397 192.397 68.6181C191.022 69.8392 189.214 70.4512 186.972 70.4541ZM212.38 38.6205L212.386 43.7535L225.366 43.7368L225.379 53.5898L212.399 53.6065L212.407 59.5065L227.157 59.4875L227.17 69.9305L199.322 69.9662L199.268 28.1943L227.116 28.1586L227.13 38.6016L212.38 38.6205ZM238.597 70.3879C236.315 70.3908 234.486 69.7835 233.107 68.5659C231.729 67.3484 231.039 65.8152 231.037 63.9666C231.034 62.0786 231.72 60.524 233.096 59.3029C234.471 58.0425 236.299 57.4108 238.58 57.4079C240.822 57.405 242.632 58.032 244.011 59.2889C245.389 60.5065 246.079 62.0593 246.082 63.9473C246.084 65.7959 245.398 67.3308 244.022 68.5519C242.647 69.773 240.839 70.385 238.597 70.3879Z"/>
</mask>
<path d="M9.29009 38.2319L8.40384 37.7686L8.39946 37.7771L9.29009 38.2319ZM16.4785 30.7296L16.9746 31.598L16.9828 31.5932L16.4785 30.7296ZM37.1276 30.0542L36.6916 30.9541L36.6991 30.9577L36.7066 30.9612L37.1276 30.0542ZM44.097 35.7682L43.2839 36.3505L43.2901 36.359L44.097 35.7682ZM47.7071 44.4366L47.7084 45.4366L48.9028 45.4351L48.6913 44.2596L47.7071 44.4366ZM33.9011 44.4543L32.9922 44.8712L33.26 45.4551L33.9024 45.4543L33.9011 44.4543ZM31.183 41.2718L30.6163 42.0957L30.6325 42.1068L30.649 42.1173L31.183 41.2718ZM21.9807 42.5816L21.1936 41.9648L21.189 41.9706L21.1845 41.9766L21.9807 42.5816ZM21.9978 55.9156L21.2031 56.5226L21.2076 56.5286L21.2123 56.5344L21.9978 55.9156ZM31.2035 57.2608L31.7526 58.0966L31.7593 58.0921L31.2035 57.2608ZM33.9133 54.0123L33.9121 53.0123L33.2697 53.0131L33.0033 53.5977L33.9133 54.0123ZM47.7193 53.9946L48.704 54.1691L48.9124 52.9931L47.7181 52.9946L47.7193 53.9946ZM44.1315 62.6722L43.323 62.0835L43.317 62.092L44.1315 62.6722ZM37.1769 68.4631L37.605 69.3669L37.6104 69.3643L37.1769 68.4631ZM16.5261 67.8406L16.024 68.7055L16.0322 68.7102L16.5261 67.8406ZM9.31838 60.2978L8.42888 60.7549L8.43336 60.7634L9.31838 60.2978ZM7.82624 49.2667C7.82112 45.273 8.61444 41.7542 10.1807 38.6866L8.39946 37.7771C6.67001 41.1644 5.82077 45.0031 5.82624 49.2693L7.82624 49.2667ZM10.1763 38.6951C11.7766 35.6339 14.0388 33.2752 16.9745 31.5979L15.9824 29.8614C12.708 31.7321 10.178 34.3748 8.40388 37.7686L10.1763 38.6951ZM16.9828 31.5932C19.9108 29.8832 23.388 29.0068 27.4503 29.0016L27.4477 27.0016C23.0927 27.0072 19.2561 27.9495 15.9742 29.8661L16.9828 31.5932ZM27.4503 29.0016C30.9401 28.9971 34.0131 29.6563 36.6916 30.9541L37.5637 29.1542C34.5746 27.7059 31.1952 26.9968 27.4477 27.0016L27.4503 29.0016ZM36.7066 30.9612C39.4297 32.2253 41.6154 34.0208 43.284 36.3505L44.91 35.1859C43.0322 32.5642 40.5717 30.5504 37.5487 29.1471L36.7066 30.9612ZM43.2901 36.359C45.0046 38.7008 46.153 41.4457 46.7229 44.6137L48.6913 44.2596C48.0727 40.821 46.8143 37.787 44.9038 35.1775L43.2901 36.359ZM47.7058 43.4366L33.8998 43.4543L33.9024 45.4543L47.7084 45.4366L47.7058 43.4366ZM34.81 44.0374C34.1052 42.5007 33.0756 41.2843 31.717 40.4263L30.649 42.1173C31.6524 42.7509 32.4348 43.6562 32.9922 44.8712L34.81 44.0374ZM31.7497 40.4479C30.4276 39.5386 28.9079 39.0947 27.2272 39.0969L27.2298 41.0969C28.5384 41.0952 29.6551 41.4346 30.6163 42.0957L31.7497 40.4479ZM27.2272 39.0969C24.7349 39.1001 22.6891 40.0563 21.1936 41.9648L22.7678 43.1984C23.864 41.7995 25.3167 41.0993 27.2298 41.0969L27.2272 39.0969ZM21.1845 41.9766C19.7564 43.856 19.0975 46.3155 19.1012 49.2523L21.1012 49.2497C21.0978 46.6012 21.6919 44.6144 22.7769 43.1866L21.1845 41.9766ZM19.1012 49.2523C19.105 52.1891 19.7702 54.6469 21.2031 56.5226L22.7924 55.3085C21.7038 53.8835 21.1046 51.8983 21.1012 49.2497L19.1012 49.2523ZM21.2123 56.5344C22.7127 58.439 24.7609 59.39 27.2532 59.3868L27.2507 57.3868C25.3376 57.3893 23.8831 56.6928 22.7833 55.2968L21.2123 56.5344ZM27.2532 59.3868C28.9231 59.3847 30.4346 58.9624 31.7526 58.0965L30.6544 56.425C29.693 57.0567 28.5701 57.3852 27.2507 57.3868L27.2532 59.3868ZM31.7593 58.0921C33.1033 57.1936 34.1241 55.9616 34.8234 54.4269L33.0033 53.5977C32.4474 54.8179 31.6617 55.7516 30.6477 56.4294L31.7593 58.0921ZM33.9146 55.0123L47.7206 54.9946L47.7181 52.9946L33.9121 53.0123L33.9146 55.0123ZM46.7347 53.8201C46.1729 56.9894 45.0316 59.7373 43.3231 62.0836L44.9398 63.2609C46.8436 60.6465 48.0942 57.6093 48.704 54.1691L46.7347 53.8201ZM43.317 62.092C41.6526 64.4285 39.4681 66.2513 36.7434 67.562L37.6104 69.3643C40.6248 67.9143 43.0767 65.8765 44.9459 63.2524L43.317 62.092ZM36.7487 67.5594C34.0711 68.8281 30.9961 69.4771 27.5022 69.4815L27.5047 71.4815C31.2482 71.4767 34.6221 70.7801 37.605 69.3668L36.7487 67.5594ZM27.5022 69.4815C23.4362 69.4867 19.9538 68.6373 17.0199 66.9711L16.0322 68.7102C19.3175 70.5759 23.1534 71.4871 27.5047 71.4815L27.5022 69.4815ZM17.0281 66.9758C14.0833 65.2661 11.8125 62.8913 10.2034 59.8323L8.43336 60.7634C10.2152 64.1507 12.7495 66.8044 16.024 68.7054L17.0281 66.9758ZM10.2078 59.8408C8.6337 56.7772 7.83136 53.2605 7.82624 49.2667L5.82624 49.2693C5.83171 53.5355 6.69079 57.3721 8.42892 60.7549L10.2078 59.8408ZM53.4572 68.7963L52.7951 69.5457L53.4572 68.7963ZM53.4453 59.5333L54.1093 60.281L54.1152 60.2758L54.121 60.2704L53.4453 59.5333ZM64.3603 59.5193L63.6865 60.2582L63.6923 60.2635L63.6982 60.2687L64.3603 59.5193ZM64.3722 68.7823L63.7082 68.0345L64.3722 68.7823ZM58.9452 69.6182C56.8471 69.6209 55.2733 69.0663 54.1192 68.0468L52.7951 69.5457C54.3975 70.9614 56.4833 71.6214 58.9478 71.6182L58.9452 69.6182ZM54.1192 68.0468C52.9568 67.0199 52.3883 65.7598 52.3863 64.1956L50.3863 64.1982C50.389 66.3314 51.201 68.1375 52.7951 69.5457L54.1192 68.0468ZM52.3863 64.1956C52.3842 62.5852 52.9547 61.3063 54.1093 60.281L52.7813 58.7855C51.1857 60.2024 50.3835 62.0326 50.3863 64.1982L52.3863 64.1956ZM54.121 60.2704C55.273 59.2145 56.8411 58.6409 58.9312 58.6382L58.9286 56.6382C56.456 56.6414 54.3677 57.3312 52.7696 58.7961L54.121 60.2704ZM58.9312 58.6382C60.9766 58.6356 62.5286 59.2023 63.6865 60.2582L65.0341 58.7804C63.4354 57.3225 61.3671 56.6351 58.9286 56.6382L58.9312 58.6382ZM63.6982 60.2687C64.8555 61.2911 65.4292 62.5685 65.4313 64.1789L67.4313 64.1763C67.4285 62.0108 66.6216 60.1826 65.0224 58.7698L63.6982 60.2687ZM65.4313 64.1789C65.4333 65.743 64.8679 67.0046 63.7082 68.0345L65.0362 69.53C66.6266 68.1177 67.434 66.3095 67.4313 64.1763L65.4313 64.1789ZM63.7082 68.0345C62.5537 69.0597 60.9989 69.6156 58.9452 69.6182L58.9478 71.6182C61.3781 71.6151 63.4405 70.947 65.0362 69.53L63.7082 68.0345ZM80.7927 67.7582L80.301 68.629L80.3055 68.6315L80.7927 67.7582ZM72.9949 60.0982L72.1344 60.6077L72.9949 60.0982ZM72.9666 38.0322L73.8283 38.5395L72.9666 38.0322ZM80.7448 30.4112L81.2307 31.2853L81.2342 31.2833L80.7448 30.4112ZM102.398 30.3835L101.906 31.2543L101.914 31.2587L102.398 30.3835ZM110.137 37.9846L109.271 38.4863L109.276 38.494L110.137 37.9846ZM110.165 60.0505L109.303 59.5432L109.299 59.551L110.165 60.0505ZM102.387 67.7305L101.897 66.8585L101.893 66.861L102.387 67.7305ZM97.6514 55.8186L98.4115 56.4684L98.419 56.4595L97.6514 55.8186ZM97.634 42.2486L96.868 42.8916L96.8756 42.9004L97.634 42.2486ZM85.539 42.2641L86.2991 42.914L86.3066 42.9051L85.539 42.2641ZM85.5564 55.8341L84.7904 56.4771L84.798 56.4859L85.5564 55.8341ZM91.6509 69.5173C87.8817 69.5221 84.431 68.6427 81.2798 66.8849L80.3055 68.6315C83.7671 70.5625 87.5561 71.5225 91.6535 71.5173L91.6509 69.5173ZM81.2843 66.8874C78.1714 65.1299 75.6986 62.7019 73.8553 59.5887L72.1344 60.6077C74.1541 64.0189 76.8799 66.6975 80.3011 68.629L81.2843 66.8874ZM73.8553 59.5887C72.0221 56.4925 71.0947 52.9941 71.0897 49.0676L69.0897 49.0702C69.0952 53.3251 70.1046 57.1795 72.1344 60.6077L73.8553 59.5887ZM71.0897 49.0676C71.0847 45.1412 72.0031 41.6404 73.8283 38.5395L72.1048 37.5249C70.0838 40.9583 69.0843 44.8153 69.0897 49.0702L71.0897 49.0676ZM73.8283 38.5395C75.6626 35.4234 78.1266 33.0108 81.2307 31.2853L80.2589 29.5372C76.8383 31.4387 74.1168 34.1068 72.1048 37.5249L73.8283 38.5395ZM81.2342 31.2833C84.3808 29.5174 87.8292 28.6292 91.5985 28.6243L91.596 26.6243C87.4986 26.6296 83.712 27.5993 80.2554 29.5392L81.2342 31.2833ZM91.5985 28.6243C95.3678 28.6195 98.7969 29.4989 101.906 31.2543L102.889 29.5127C99.4646 27.5791 95.6933 26.6191 91.596 26.6243L91.5985 28.6243ZM101.914 31.2587C105.021 32.9753 107.469 35.3791 109.272 38.4863L111.002 37.4828C109.019 34.0655 106.309 31.402 102.881 29.5082L101.914 31.2587ZM109.276 38.494C111.109 41.5902 112.037 45.0887 112.042 49.0151L114.042 49.0126C114.036 44.7577 113.027 40.9033 110.997 37.4751L109.276 38.494ZM112.042 49.0151C112.047 52.9416 111.128 56.4424 109.303 59.5433L111.027 60.5578C113.048 57.1244 114.047 53.2674 114.042 49.0126L112.042 49.0151ZM109.299 59.551C107.505 62.6617 105.043 65.0932 101.897 66.8585L102.876 68.6026C106.334 66.662 109.057 63.9736 111.031 60.5501L109.299 59.551ZM101.893 66.861C98.7865 68.6252 95.3791 69.5125 91.6509 69.5173L91.6535 71.5173C95.7134 71.5121 99.4622 70.5415 102.881 68.6001L101.893 66.861ZM91.6379 59.3043C94.4638 59.3007 96.771 58.3873 98.4115 56.4684L96.8913 55.1688C95.704 56.5575 94.0014 57.3013 91.6353 57.3043L91.6379 59.3043ZM98.419 56.4595C100.022 54.5401 100.771 52.0283 100.767 49.0296L98.7667 49.0321C98.7701 51.6974 98.1087 53.7107 96.8838 55.1776L98.419 56.4595ZM100.767 49.0296C100.763 45.9969 100.01 43.4792 98.3924 41.5968L96.8756 42.9004C98.0942 44.3184 98.7632 46.3222 98.7667 49.0321L100.767 49.0296ZM98.3999 41.6057C96.757 39.6485 94.4454 38.7157 91.6115 38.7193L91.614 40.7193C93.9721 40.7163 95.6746 41.4697 96.8681 42.8915L98.3999 41.6057ZM91.6115 38.7193C88.7438 38.723 86.4123 39.6581 84.7714 41.6231L86.3066 42.9051C87.4934 41.4838 89.2111 40.7224 91.614 40.7193L91.6115 38.7193ZM84.7789 41.6143C83.1661 43.5008 82.4198 46.0204 82.4237 49.0531L84.4237 49.0505C84.4202 46.3406 85.0841 44.3351 86.2991 42.9139L84.7789 41.6143ZM82.4237 49.0531C82.4275 52.0518 83.1828 54.5617 84.7905 56.477L86.3223 55.1912C85.0937 53.7274 84.4271 51.7158 84.4237 49.0505L82.4237 49.0531ZM84.798 56.4859C86.4463 58.404 88.7781 59.308 91.6379 59.3043L91.6353 57.3043C89.2244 57.3074 87.5027 56.5646 86.3148 55.1823L84.798 56.4859ZM118.795 68.7125L118.133 69.4619L118.795 68.7125ZM118.783 59.4495L119.447 60.1972L119.453 60.192L119.459 60.1867L118.783 59.4495ZM129.698 59.4355L129.024 60.1744L129.03 60.1797L129.036 60.1849L129.698 59.4355ZM129.71 68.6985L129.046 67.9508L129.71 68.6985ZM124.283 69.5345C122.185 69.5371 120.611 68.9825 119.457 67.963L118.133 69.4619C119.735 70.8776 121.821 71.5376 124.286 71.5344L124.283 69.5345ZM119.457 67.963C118.295 66.9361 117.726 65.676 117.724 64.1119L115.724 64.1144C115.727 66.2476 116.539 68.0537 118.133 69.4619L119.457 67.963ZM117.724 64.1119C117.722 62.5014 118.292 61.2225 119.447 60.1972L118.119 58.7018C116.524 60.1186 115.721 61.9489 115.724 64.1144L117.724 64.1119ZM119.459 60.1867C120.611 59.1307 122.179 58.5571 124.269 58.5545L124.266 56.5545C121.794 56.5576 119.706 57.2474 118.107 58.7123L119.459 60.1867ZM124.269 58.5545C126.314 58.5518 127.866 59.1185 129.024 60.1744L130.372 58.6966C128.773 57.2387 126.705 56.5513 124.266 56.5545L124.269 58.5545ZM129.036 60.1849C130.193 61.2073 130.767 62.4847 130.769 64.0951L132.769 64.0926C132.766 61.927 131.959 60.0988 130.36 58.6861L129.036 60.1849ZM130.769 64.0951C130.771 65.6593 130.206 66.9209 129.046 67.9508L130.374 69.4462C131.964 68.0339 132.772 66.2258 132.769 64.0926L130.769 64.0951ZM129.046 67.9508C127.892 68.976 126.337 69.5318 124.283 69.5345L124.286 71.5344C126.716 71.5313 128.778 70.8632 130.374 69.4462L129.046 67.9508ZM165.435 30.8927L164.96 31.7724L164.964 31.7747L165.435 30.8927ZM173.056 38.2579L173.927 37.7665L173.056 38.2579ZM173.083 59.7339L173.958 60.2184L173.083 59.7339ZM165.482 67.2956L165.968 68.1697L165.971 68.1677L165.482 67.2956ZM136.635 70.0466L135.635 70.0479L135.636 71.0479L136.636 71.0466L136.635 70.0466ZM136.581 28.2746L136.58 27.2746L135.58 27.2759L135.581 28.2759L136.581 28.2746ZM159.862 55.9158L160.545 56.6466L159.862 55.9158ZM159.845 42.1098L160.526 41.3773L159.845 42.1098ZM149.694 39.7038L149.692 38.7038L148.692 38.7051L148.694 39.7051L149.694 39.7038ZM149.718 58.3478L148.718 58.3491L148.719 59.3491L149.719 59.3478L149.718 58.3478ZM153.987 29.2523C158.216 29.2469 161.863 30.0986 164.96 31.7724L165.911 30.0129C162.474 28.1551 158.488 27.2466 153.985 27.2523L153.987 29.2523ZM164.964 31.7747C168.11 33.4545 170.508 35.777 172.185 38.7493L173.927 37.7665C172.056 34.45 169.374 31.8623 165.906 30.0106L164.964 31.7747ZM172.185 38.7493C173.865 41.728 174.72 45.134 174.725 48.9938L176.725 48.9912C176.719 44.827 175.794 41.0766 173.927 37.7665L172.185 38.7493ZM174.725 48.9938C174.729 52.8122 173.885 56.2229 172.209 59.2494L173.958 60.2184C175.814 56.8683 176.73 53.1181 176.725 48.9912L174.725 48.9938ZM172.209 59.2494C170.536 62.2687 168.139 64.6579 164.993 66.4236L165.971 68.1677C169.428 66.2276 172.099 63.5756 173.958 60.2184L172.209 59.2494ZM164.996 66.4216C161.905 68.1397 158.264 69.0189 154.038 69.0243L154.041 71.0243C158.547 71.0185 162.534 70.0786 165.968 68.1697L164.996 66.4216ZM154.038 69.0243L136.633 69.0466L136.636 71.0466L154.041 71.0243L154.038 69.0243ZM137.635 70.0453L137.581 28.2734L135.581 28.2759L135.635 70.0479L137.635 70.0453ZM136.582 29.2746L153.987 29.2523L153.985 27.2523L136.58 27.2746L136.582 29.2746ZM152.846 59.3438C155.983 59.3398 158.589 58.4741 160.545 56.6466L159.18 55.1851C157.679 56.5873 155.606 57.3403 152.843 57.3438L152.846 59.3438ZM160.545 56.6466C162.527 54.7949 163.454 52.1971 163.45 49.0082L161.45 49.0108C161.453 51.8005 160.655 53.8069 159.18 55.1851L160.545 56.6466ZM163.45 49.0082C163.446 45.8193 162.512 43.2239 160.526 41.3773L159.164 42.8423C160.643 44.2167 161.446 46.221 161.45 49.0108L163.45 49.0082ZM160.526 41.3773C158.565 39.5548 155.957 38.6958 152.819 38.6998L152.822 40.6998C155.584 40.6963 157.659 41.444 159.164 42.8423L160.526 41.3773ZM152.819 38.6998L149.692 38.7038L149.695 40.7038L152.822 40.6998L152.819 38.6998ZM148.694 39.7051L148.718 58.3491L150.718 58.3465L150.694 39.7026L148.694 39.7051ZM149.719 59.3478L152.846 59.3438L152.843 57.3438L149.716 57.3478L149.719 59.3478ZM181.482 68.6321L180.82 69.3815L181.482 68.6321ZM181.471 59.3691L182.135 60.1169L182.14 60.1116L182.146 60.1063L181.471 59.3691ZM192.386 59.3551L191.712 60.094L191.718 60.0993L191.724 60.1046L192.386 59.3551ZM192.397 68.6181L191.733 67.8704L192.397 68.6181ZM186.971 69.4541C184.872 69.4568 183.299 68.9022 182.145 67.8827L180.82 69.3815C182.423 70.7972 184.509 71.4572 186.973 71.4541L186.971 69.4541ZM182.145 67.8827C180.982 66.8558 180.414 65.5956 180.412 64.0315L178.412 64.034C178.414 66.1672 179.226 67.9733 180.82 69.3815L182.145 67.8827ZM180.412 64.0315C180.409 62.421 180.98 61.1422 182.135 60.1169L180.807 58.6214C179.211 60.0383 178.409 61.8685 178.412 64.034L180.412 64.0315ZM182.146 60.1063C183.298 59.0503 184.866 58.4768 186.956 58.4741L186.954 56.4741C184.481 56.4773 182.393 57.167 180.795 58.632L182.146 60.1063ZM186.956 58.4741C189.002 58.4715 190.554 59.0381 191.712 60.094L193.059 58.6162C191.461 57.1583 189.392 56.471 186.954 56.4741L186.956 58.4741ZM191.724 60.1046C192.881 61.1269 193.454 62.4043 193.457 64.0148L195.457 64.0122C195.454 61.8466 194.647 60.0185 193.048 58.6057L191.724 60.1046ZM193.457 64.0148C193.459 65.5789 192.893 66.8405 191.733 67.8704L193.061 69.3659C194.652 67.9535 195.459 66.1454 195.457 64.0122L193.457 64.0148ZM191.733 67.8704C190.579 68.8956 189.024 69.4514 186.971 69.4541L186.973 71.4541C189.403 71.451 191.466 70.7828 193.061 69.3659L191.733 67.8704ZM212.38 38.6205L212.379 37.6205L211.379 37.6218L211.38 38.6218L212.38 38.6205ZM212.386 43.7535L211.386 43.7547L211.388 44.7547L212.388 44.7535L212.386 43.7535ZM225.366 43.7368L226.366 43.7355L226.365 42.7355L225.365 42.7368L225.366 43.7368ZM225.379 53.5898L225.38 54.5898L226.38 54.5885L226.379 53.5885L225.379 53.5898ZM212.399 53.6065L212.398 52.6065L211.398 52.6077L211.399 53.6077L212.399 53.6065ZM212.407 59.5065L211.407 59.5077L211.408 60.5077L212.408 60.5065L212.407 59.5065ZM227.157 59.4875L228.157 59.4863L228.155 58.4863L227.155 58.4875L227.157 59.4875ZM227.17 69.9305L227.171 70.9305L228.171 70.9293L228.17 69.9293L227.17 69.9305ZM199.322 69.9662L198.322 69.9675L198.323 70.9675L199.323 70.9662L199.322 69.9662ZM199.268 28.1943L199.267 27.1943L198.267 27.1956L198.268 28.1956L199.268 28.1943ZM227.116 28.1586L228.116 28.1573L228.115 27.1573L227.115 27.1586L227.116 28.1586ZM227.13 38.6016L227.131 39.6016L228.131 39.6003L228.13 38.6003L227.13 38.6016ZM211.38 38.6218L211.386 43.7547L213.386 43.7522L213.38 38.6192L211.38 38.6218ZM212.388 44.7535L225.368 44.7368L225.365 42.7368L212.385 42.7535L212.388 44.7535ZM224.366 43.7381L224.379 53.5911L226.379 53.5885L226.366 43.7355L224.366 43.7381ZM225.378 52.5898L212.398 52.6065L212.4 54.6065L225.38 54.5898L225.378 52.5898ZM211.399 53.6077L211.407 59.5077L213.407 59.5052L213.399 53.6052L211.399 53.6077ZM212.408 60.5065L227.158 60.4875L227.155 58.4875L212.405 58.5065L212.408 60.5065ZM226.157 59.4888L226.17 69.9318L228.17 69.9293L228.157 59.4863L226.157 59.4888ZM227.169 68.9305L199.321 68.9662L199.323 70.9662L227.171 70.9305L227.169 68.9305ZM200.322 69.965L200.268 28.193L198.268 28.1956L198.322 69.9675L200.322 69.965ZM199.27 29.1943L227.118 29.1586L227.115 27.1586L199.267 27.1943L199.27 29.1943ZM226.116 28.1599L226.13 38.6028L228.13 38.6003L228.116 28.1573L226.116 28.1599ZM227.129 37.6016L212.379 37.6205L212.381 39.6205L227.131 39.6016L227.129 37.6016ZM233.107 68.5659L232.445 69.3154L233.107 68.5659ZM233.096 59.3029L233.76 60.0507L233.765 60.0454L233.771 60.0401L233.096 59.3029ZM244.011 59.2889L243.337 60.0278L243.343 60.0331L243.348 60.0384L244.011 59.2889ZM244.022 68.5519L243.358 67.8042L244.022 68.5519ZM238.595 69.3879C236.497 69.3906 234.924 68.836 233.769 67.8165L232.445 69.3154C234.048 70.731 236.134 71.391 238.598 71.3879L238.595 69.3879ZM233.769 67.8165C232.607 66.7896 232.039 65.5294 232.037 63.9653L230.037 63.9679C230.039 66.1011 230.851 67.9071 232.445 69.3154L233.769 67.8165ZM232.037 63.9653C232.034 62.3548 232.605 61.076 233.76 60.0507L232.432 58.5552C230.836 59.9721 230.034 61.8023 230.037 63.9679L232.037 63.9653ZM233.771 60.0401C234.923 58.9841 236.491 58.4106 238.581 58.4079L238.579 56.4079C236.106 56.4111 234.018 57.1008 232.42 58.5658L233.771 60.0401ZM238.581 58.4079C240.627 58.4053 242.179 58.9719 243.337 60.0278L244.684 58.55C243.086 57.0921 241.017 56.4048 238.579 56.4079L238.581 58.4079ZM243.348 60.0384C244.506 61.0607 245.079 62.3381 245.082 63.9486L247.082 63.946C247.079 61.7805 246.272 59.9523 244.673 58.5395L243.348 60.0384ZM245.082 63.9486C245.084 65.5127 244.518 66.7743 243.358 67.8042L244.686 69.2997C246.277 67.8874 247.084 66.0792 247.082 63.946L245.082 63.9486ZM243.358 67.8042C242.204 68.8294 240.649 69.3853 238.595 69.3879L238.598 71.3879C241.028 71.3848 243.091 70.7167 244.686 69.2997L243.358 67.8042Z" fill="white" mask="url(#path-1-outside-1_250_184)"/>
<path d="M1.82648 44.3642C1.82119 40.2342 2.64247 36.5555 4.29034 33.328C5.97753 30.1006 8.37366 27.5998 11.4787 25.8258C14.5837 24.0125 18.2406 23.1032 22.4492 23.0978C26.0679 23.0931 29.2941 23.7773 32.1279 25.1504C35.0009 26.484 37.324 28.3887 39.0972 30.8644C40.9097 33.3401 42.1131 36.2296 42.7073 39.5328L28.9013 39.5505C28.2702 38.1746 27.3642 37.1138 26.1833 36.368C25.0416 35.5828 23.7234 35.1911 22.2287 35.1931C20.0261 35.1959 18.2768 36.0241 16.9809 37.6778C15.7244 39.3314 15.0979 41.5545 15.1015 44.3472C15.1051 47.1399 15.7372 49.3614 16.998 51.0118C18.2981 52.6621 20.0495 53.4859 22.2522 53.483C23.7469 53.4811 25.064 53.1058 26.2038 52.357C27.3827 51.5688 28.286 50.486 28.9136 49.1085L42.7196 49.0908C42.1338 52.3955 40.9379 55.2881 39.1317 57.7684C37.3649 60.2487 35.0467 62.179 32.1771 63.5593C29.3468 64.9003 26.1224 65.5731 22.5037 65.5777C18.295 65.5831 14.6359 64.7028 11.5263 62.9368C8.41665 61.1315 6.01409 58.6172 4.31863 55.394C2.66249 52.1708 1.83178 48.4942 1.82648 44.3642ZM53.9468 65.7144C51.6654 65.7173 49.8356 65.11 48.4574 63.8924C47.0792 62.6749 46.3889 61.1418 46.3865 59.2931C46.3841 57.4051 47.0704 55.8506 48.4455 54.6295C49.8206 53.369 51.6488 52.7373 53.9301 52.7344C56.1721 52.7315 57.9822 53.3586 59.3605 54.6155C60.7388 55.833 61.4291 57.3858 61.4315 59.2738C61.4339 61.1225 60.7475 62.6574 59.3724 63.8785C57.9973 65.0996 56.1888 65.7115 53.9468 65.7144ZM86.6525 65.6135C82.7191 65.6185 79.0993 64.6988 75.7929 62.8544C72.5259 61.0099 69.9266 58.4566 67.9951 55.1944C66.0636 51.9322 65.0952 48.2558 65.09 44.1651C65.0847 40.0744 66.0437 36.3955 67.9668 33.1284C69.89 29.8613 72.4827 27.3209 75.745 25.5074C79.0467 23.6545 82.6641 22.7256 86.5975 22.7205C90.5308 22.7155 94.131 23.6352 97.398 25.4797C100.665 27.2848 103.245 29.8185 105.137 33.0808C107.068 36.3429 108.037 40.0194 108.042 44.11C108.047 48.2007 107.088 51.8796 105.165 55.1467C103.281 58.4138 100.689 60.9738 97.3869 62.8267C94.1246 64.6796 90.5465 65.6085 86.6525 65.6135ZM86.6368 53.4005C89.2328 53.3972 91.2378 52.5686 92.6516 50.9148C94.0655 49.2216 94.7706 46.9591 94.7669 44.1271C94.7633 41.2557 94.0524 38.995 92.6342 37.3448C91.2161 35.6553 89.209 34.8122 86.613 34.8155C83.9777 34.8189 81.9531 35.6671 80.5392 37.3603C79.1254 39.0141 78.4203 41.2767 78.4239 44.148C78.4276 46.98 79.1385 49.2408 80.5566 50.9303C81.9748 52.5805 84.0015 53.4039 86.6368 53.4005ZM119.285 65.6306C117.003 65.6336 115.173 65.0262 113.795 63.8087C112.417 62.5911 111.727 61.058 111.724 59.2093C111.722 57.3213 112.408 55.7668 113.783 54.5457C115.158 53.2853 116.987 52.6536 119.268 52.6507C121.51 52.6478 123.32 53.2748 124.698 54.5317C126.077 55.7493 126.767 57.302 126.769 59.19C126.772 61.0387 126.085 62.5736 124.71 63.7947C123.335 65.0158 121.527 65.6278 119.285 65.6306ZM148.986 23.3485C153.352 23.3429 157.169 24.223 160.436 25.9888C163.742 27.7546 166.282 30.2097 168.056 33.3541C169.83 36.4985 170.72 40.0767 170.725 44.0887C170.73 48.0613 169.85 51.6418 168.084 54.8301C166.318 58.0183 163.784 60.5389 160.482 62.3918C157.22 64.2053 153.406 65.1149 149.04 65.1205L131.635 65.1428L131.581 23.3708L148.986 23.3485ZM147.845 53.44C150.795 53.4362 153.134 52.6269 154.863 51.012C156.591 49.3971 157.454 47.095 157.45 44.1057C157.446 41.1164 156.578 38.8165 154.845 37.206C153.112 35.5956 150.771 34.7922 147.821 34.796L144.694 34.8L144.718 53.444L147.845 53.44ZM181.972 65.5503C179.691 65.5532 177.861 64.9459 176.483 63.7283C175.104 62.5107 174.414 60.9776 174.412 59.129C174.409 57.241 175.096 55.6864 176.471 54.4653C177.846 53.2049 179.674 52.5732 181.955 52.5703C184.197 52.5674 186.008 53.1944 187.386 54.4513C188.764 55.6689 189.454 57.2217 189.457 59.1097C189.459 60.9583 188.773 62.4932 187.398 63.7143C186.023 64.9354 184.214 65.5474 181.972 65.5503ZM207.38 33.7167L207.387 38.8497L220.367 38.833L220.379 48.686L207.399 48.7027L207.407 54.6026L222.157 54.5837L222.17 65.0267L194.322 65.0624L194.269 23.2905L222.117 23.2548L222.13 33.6978L207.38 33.7167ZM233.597 65.4841C231.316 65.487 229.486 64.8797 228.108 63.6621C226.729 62.4445 226.039 60.9114 226.037 59.0628C226.034 57.1748 226.721 55.6202 228.096 54.3991C229.471 53.1387 231.299 52.507 233.58 52.5041C235.822 52.5012 237.633 53.1282 239.011 54.3851C240.389 55.6027 241.079 57.1555 241.082 59.0435C241.084 60.8921 240.398 62.427 239.023 63.6481C237.648 64.8692 235.839 65.4812 233.597 65.4841Z" fill="white"/>
</svg>
